<?xml version="1.0" standalone="no"?>
<!DOCTYPE svg PUBLIC "-//W3C//DTD SVG 20010904//EN"
 "http://www.w3.org/TR/2001/REC-SVG-20010904/DTD/svg10.dtd">
<svg version="1.0" xmlns="http://www.w3.org/2000/svg"
 width="1320.000000pt" height="1320.000000pt" viewBox="0 0 1320.000000 1320.000000"
 preserveAspectRatio="xMidYMid meet">
<metadata>
Created by potrace 1.14, written by Peter Selinger 2001-2017
</metadata>
<g transform="translate(0.000000,1320.000000) scale(0.100000,-0.100000)"
fill="#000000" stroke="none">
<path d="M8860 13069 c-90 -11 -298 -20 -395 -18 -285 6 -477 0 -496 -17 -14
-13 -17 -13 -22 -1 -5 14 -39 19 -137 18 -25 0 -70 0 -100 0 -30 -1 -62 -1
-70 -1 -8 0 -64 -3 -125 -7 -220 -14 -704 -1 -773 21 -14 5 -24 1 -30 -10 -7
-13 -10 -13 -14 -3 -6 15 -36 16 -248 5 -174 -8 -281 -22 -292 -37 -7 -11 -11
-11 -15 -1 -6 15 -33 16 -33 1 0 -8 -4 -8 -12 -2 -18 14 -302 6 -478 -12 -212
-23 -297 -24 -620 -9 -85 4 -195 6 -245 5 -196 -4 -638 -12 -782 -14 -84 -1
-153 -5 -153 -9 0 -5 -7 -8 -15 -8 -8 0 -15 3 -15 8 0 8 -130 6 -340 -4 -142
-7 -166 -7 -430 -4 -149 2 -252 -3 -335 -15 -16 -3 -47 -7 -67 -9 -21 -3 -43
-8 -49 -12 -7 -4 -28 -9 -48 -11 -36 -3 -267 -14 -286 -13 -5 0 -46 2 -91 4
-44 1 -85 5 -90 9 -6 3 -16 2 -24 -4 -8 -5 -42 -9 -75 -9 -33 0 -74 -4 -92 -9
-22 -6 -39 -5 -57 4 -23 12 -26 12 -26 -2 0 -13 -15 -14 -105 -10 -58 2 -108
1 -110 -4 -3 -4 -19 -4 -35 1 -18 5 -32 5 -36 -1 -3 -6 -11 -6 -17 -2 -7 5
-52 7 -102 6 -49 -2 -106 -4 -125 -3 -100 1 -325 1 -325 0 0 -1 -20 -3 -45 -4
-25 -2 -56 -7 -70 -11 -14 -5 -32 -9 -40 -10 -8 -1 -33 -5 -55 -9 -22 -4 -82
-8 -132 -10 -50 -2 -95 -6 -101 -10 -5 -3 -37 -5 -70 -5 -37 1 -73 -5 -93 -15
-18 -9 -40 -16 -51 -16 -19 0 -24 -15 -8 -25 5 -3 7 -12 3 -20 -3 -9 0 -22 7
-30 9 -10 9 -15 1 -15 -22 0 -11 -40 15 -52 17 -8 24 -18 21 -29 -3 -10 1 -20
8 -22 7 -3 13 -28 14 -64 2 -74 7 -121 16 -155 5 -20 3 -27 -12 -31 -13 -3
-14 -5 -2 -6 14 -1 19 -34 21 -136 1 -66 -17 -306 -24 -324 -5 -15 -5 -27 1
-30 6 -4 10 -15 10 -26 0 -11 5 -45 10 -75 4 -30 6 -59 4 -63 -3 -4 -6 -72 -8
-150 -3 -78 -7 -173 -10 -212 -3 -38 -8 -142 -10 -230 -6 -264 -14 -475 -22
-565 -4 -47 -6 -107 -5 -135 3 -56 -15 -233 -28 -282 -4 -19 -4 -35 1 -38 4
-3 6 -18 4 -33 -2 -15 -7 -72 -10 -127 -4 -55 -9 -122 -11 -150 -2 -27 -4 -58
-3 -67 6 -105 -9 -368 -22 -384 -5 -6 -4 -15 2 -21 6 -6 7 -40 2 -94 -8 -83
-8 -473 0 -702 2 -66 -1 -136 -7 -158 -9 -34 -7 -50 13 -108 19 -56 22 -79 16
-118 -5 -26 -10 -61 -12 -78 -8 -79 -10 -93 -17 -104 -5 -7 -1 -20 7 -29 18
-21 25 -251 8 -261 -6 -4 -7 -18 -3 -33 4 -15 5 -80 2 -145 -3 -65 -4 -121 -2
-125 1 -4 5 -48 7 -99 3 -50 8 -95 11 -100 3 -6 0 -17 -7 -25 -10 -12 -10 -17
-1 -23 11 -6 25 -73 24 -106 0 -5 -3 -48 -6 -95 -4 -47 -8 -177 -11 -290 -2
-113 -5 -205 -6 -205 -3 0 -8 -90 -10 -170 -1 -44 -5 -85 -10 -91 -5 -7 -5
-24 2 -43 6 -17 9 -50 6 -74 -3 -23 -8 -91 -11 -152 -3 -60 -8 -123 -11 -140
-2 -16 -4 -66 -4 -110 4 -237 -1 -375 -14 -414 -8 -22 -12 -43 -8 -46 12 -13
14 -74 9 -275 -1 -80 -6 -150 -11 -157 -4 -6 -2 -15 4 -18 5 -4 8 -13 6 -19
-3 -7 -1 -34 4 -61 6 -33 5 -52 -2 -61 -6 -8 -9 -25 -7 -39 3 -14 2 -25 -2
-25 -3 0 -7 -53 -7 -117 -2 -228 -8 -388 -16 -399 -4 -7 0 -31 9 -55 13 -36
35 -197 36 -259 0 -83 -6 -157 -15 -168 -8 -10 -7 -16 2 -21 11 -7 14 -49 26
-361 1 -41 4 -75 5 -75 2 0 4 -67 5 -150 2 -82 6 -184 10 -225 4 -41 9 -104
10 -140 2 -36 4 -67 5 -70 1 -3 1 -34 0 -70 -1 -36 -1 -123 0 -195 3 -147 3
-285 0 -460 -2 -87 -6 -125 -18 -143 -14 -21 -14 -27 2 -59 11 -23 13 -39 7
-47 -6 -7 -6 -29 0 -61 5 -28 7 -97 3 -155 -4 -58 -6 -137 -6 -177 1 -40 -3
-75 -8 -78 -14 -9 -13 -78 1 -92 7 -7 13 -49 14 -95 1 -46 6 -145 10 -220 5
-88 4 -142 -2 -150 -21 -27 2 -191 25 -186 8 1 53 -16 96 -38 37 -18 46 -18
46 1 0 17 26 20 36 4 3 -6 16 -8 29 -5 14 4 28 0 35 -9 16 -19 34 -19 26 0 -3
10 1 15 13 15 10 0 23 6 29 13 7 8 41 12 101 12 50 0 91 3 91 6 0 3 17 4 38 2
20 -3 53 -6 72 -7 19 0 38 -5 42 -11 5 -6 11 -6 19 2 6 6 18 9 25 6 9 -3 14 2
14 13 1 18 2 18 13 -1 12 -20 58 -30 87 -19 23 9 110 11 116 3 2 -4 18 -3 34
3 17 5 42 7 55 4 14 -4 25 -2 25 4 0 6 10 6 28 -1 15 -6 63 -12 107 -14 68 -2
99 -6 125 -15 3 -1 29 -2 58 -2 32 0 52 -4 52 -12 0 -6 5 -4 10 5 12 21 161
23 304 3 55 -7 102 -11 106 -9 3 2 55 5 116 6 60 2 120 6 133 11 15 5 28 4 37
-3 11 -9 18 -9 28 0 8 7 43 12 78 13 35 0 103 2 153 3 49 2 95 -1 102 -6 7 -7
13 -6 17 0 4 6 13 8 21 5 7 -3 62 -7 122 -9 59 -1 110 -4 113 -5 3 -1 10 -1
15 0 6 1 26 4 45 6 19 3 42 7 52 10 9 3 19 1 21 -3 3 -5 36 -7 74 -6 186 6
303 6 309 1 3 -3 21 -2 40 3 19 6 40 7 47 2 6 -4 82 -8 167 -10 384 -6 598
-15 642 -27 15 -5 35 -3 47 4 14 7 21 7 21 0 0 -6 12 -10 28 -10 72 1 221 -8
231 -14 6 -4 11 -3 11 2 0 14 284 21 298 8 9 -10 42 -7 42 4 0 7 6 7 18 2 9
-6 47 -12 85 -15 58 -5 67 -4 67 11 1 16 2 16 13 0 9 -11 26 -15 55 -14 23 1
42 -2 42 -7 0 -6 9 -2 21 9 17 15 23 16 41 5 11 -7 17 -8 13 -2 -9 15 18 14
33 -1 9 -9 12 -9 12 1 0 9 14 12 50 9 28 -1 50 0 50 4 0 3 47 5 105 3 59 -2
108 1 111 6 4 6 11 6 19 -1 10 -8 42 -8 65 0 3 2 9 2 14 1 47 -9 143 -17 151
-13 16 10 279 10 292 0 6 -5 14 -5 17 0 5 9 37 9 306 -3 277 -11 287 -12 299
-20 7 -4 18 -2 24 4 16 16 27 14 27 -5 0 -9 5 -12 12 -8 7 5 29 8 48 9 19 1
41 4 47 8 6 4 49 7 94 7 238 1 283 -1 308 -14 27 -14 165 -16 177 -3 4 4 13 2
20 -4 9 -7 20 -6 38 6 14 9 30 14 37 10 18 -12 223 -14 230 -3 4 6 28 7 67 1
43 -7 63 -6 66 1 3 8 7 8 13 1 9 -13 113 -15 113 -4 0 5 15 0 33 -10 18 -10
39 -15 47 -11 8 4 25 12 36 18 12 6 25 7 30 3 13 -12 64 -23 64 -14 0 5 20 7
45 5 25 -2 53 -1 63 3 31 13 76 13 95 0 15 -11 24 -11 38 -2 15 9 24 9 40 -1
14 -9 24 -10 33 -3 7 6 16 8 19 5 3 -4 19 -2 35 4 21 7 33 7 40 0 6 -6 32 -12
59 -14 26 -2 63 -5 81 -8 17 -3 32 -2 32 3 0 8 134 -4 149 -13 5 -4 12 0 15 6
4 10 7 10 12 1 3 -8 15 -9 36 -2 17 5 41 6 53 3 13 -3 39 -1 59 4 20 6 38 7
40 3 3 -4 46 -9 96 -10 50 -1 114 -6 141 -11 33 -6 57 -6 69 0 10 5 26 7 34 4
9 -3 16 -2 16 3 0 6 25 11 56 12 31 1 65 6 75 12 11 5 25 6 32 2 56 -35 149
-44 209 -18 9 4 23 3 30 -1 17 -11 71 -14 83 -4 12 9 45 7 62 -3 6 -4 15 -3
18 3 5 8 11 8 20 0 8 -7 20 -8 26 -4 17 10 68 13 74 4 7 -11 88 0 97 13 4 7
12 6 23 -3 12 -10 21 -10 41 -2 20 10 26 9 31 -3 5 -14 7 -13 18 2 11 15 15
15 29 4 13 -11 17 -11 22 2 5 15 8 15 30 0 13 -8 33 -13 44 -10 11 3 22 1 25
-3 3 -5 21 -7 40 -6 20 2 38 -1 41 -5 3 -5 21 -2 39 6 22 9 54 12 87 9 29 -3
76 -4 103 -2 28 1 75 2 105 2 30 0 58 5 62 10 4 6 13 4 23 -4 13 -11 18 -11
25 -1 5 9 10 10 14 3 4 -6 13 -9 21 -5 8 3 15 1 15 -5 0 -5 16 -6 40 -2 22 4
51 5 66 2 14 -2 36 1 49 8 19 10 27 10 39 1 10 -8 16 -9 21 -2 4 7 16 6 36 -4
18 -10 29 -11 29 -5 0 6 5 8 12 3 7 -4 31 -8 53 -8 22 0 66 -9 98 -20 50 -16
60 -16 69 -4 7 10 11 11 14 2 3 -7 12 -9 20 -6 8 3 21 -1 30 -8 13 -10 17 -10
24 2 7 10 30 13 97 11 83 -2 148 -7 148 -11 0 -7 90 -10 99 -3 6 5 47 7 91 5
44 -2 117 -5 162 -5 60 -1 84 -6 88 -16 9 -25 67 -3 108 42 29 32 36 47 32 69
-3 19 0 27 9 27 21 0 28 31 11 50 -20 22 -19 42 2 38 13 -2 18 5 20 30 1 17
-1 32 -6 32 -17 0 -19 28 -3 51 22 31 24 47 37 334 5 98 11 145 21 156 18 20
18 29 -2 29 -12 0 -14 7 -10 27 4 16 8 90 10 166 2 78 9 143 15 151 6 7 8 16
4 19 -5 6 -17 320 -15 417 0 14 -4 31 -10 38 -7 8 -7 16 0 25 13 16 21 97 11
123 -4 12 -3 41 3 65 5 24 11 145 12 269 1 124 4 230 8 236 8 11 11 148 5 202
-2 18 0 35 5 38 5 3 4 12 -2 19 -7 8 -9 19 -5 25 4 6 9 35 12 63 6 58 10 867
5 880 -2 4 -5 93 -7 197 -2 104 -7 195 -11 202 -5 7 -9 49 -11 93 -2 75 -4
302 -2 335 0 8 -3 31 -6 50 -8 48 -9 231 -1 257 4 12 2 24 -3 27 -6 4 -8 43
-6 95 3 49 1 110 -4 136 -5 25 -5 61 -1 80 9 38 -7 204 -20 220 -9 11 -16 142
-8 150 3 3 1 31 -4 62 -5 31 -5 59 -1 62 5 3 9 43 8 89 0 62 3 81 13 77 6 -2
12 0 12 6 0 5 -7 12 -15 15 -19 8 -20 24 -2 24 20 0 42 51 26 60 -6 4 -8 13
-4 20 4 6 7 30 7 53 -1 22 2 45 5 50 3 6 5 42 3 81 -6 140 -7 271 -1 281 8 15
1 78 -11 92 -13 16 0 75 14 67 11 -7 6 85 -8 154 -4 21 -2 43 6 58 11 20 11
27 -3 42 -10 11 -13 23 -8 31 5 8 12 52 16 100 3 47 13 145 22 216 23 191 27
253 20 315 -7 62 -19 99 -31 94 -7 -3 -12 4 -12 16 0 11 6 20 12 20 16 0 20
14 23 95 2 39 7 77 12 86 5 10 4 20 -3 27 -16 16 -19 96 -7 150 5 24 7 48 3
53 -11 18 -14 127 -5 169 5 22 6 42 2 45 -8 4 -14 126 -12 220 2 110 1 247 -4
380 -9 261 -7 469 4 498 6 15 7 27 2 27 -8 0 -18 82 -24 210 -1 30 2 84 8 120
6 36 9 94 8 130 -5 153 -2 245 7 254 14 14 12 36 -3 36 -10 0 -12 12 -7 50 4
28 3 53 -1 55 -4 3 -3 23 2 45 5 23 11 123 13 223 2 100 5 187 7 192 2 6 0 38
-4 72 -6 43 -4 72 5 95 7 18 12 44 12 58 -6 87 -3 133 11 164 4 10 4 21 -2 25
-17 11 -21 58 -8 108 8 32 9 56 3 73 -10 27 -5 116 17 280 4 25 10 63 15 85 6
26 5 42 -2 46 -7 5 -8 34 -3 90 3 46 5 111 4 144 -5 94 -2 167 7 210 5 21 6
73 3 115 -5 56 -3 79 7 90 8 10 10 21 4 30 -5 8 -5 19 1 26 13 16 6 67 -14 98
-21 32 -22 56 -1 56 13 0 14 8 8 48 -3 26 -13 54 -21 64 -12 13 -12 18 -1 25
26 16 38 49 24 68 -7 10 -18 15 -24 11 -6 -3 -16 2 -21 13 -14 25 -14 68 -1
76 18 11 10 25 -25 42 -32 15 -36 15 -48 1 -17 -21 -64 -29 -71 -11 -4 9 -19
13 -51 10 -25 -2 -49 1 -52 6 -3 4 -11 6 -18 3 -8 -3 -15 -1 -17 4 -2 5 -21 5
-46 -1 -24 -5 -48 -6 -54 -3 -7 4 -40 8 -74 9 -34 1 -66 5 -71 8 -15 9 -185
20 -308 19 -60 0 -115 5 -122 10 -7 5 -17 7 -22 3 -6 -3 -57 -1 -113 6 -57 7
-139 14 -183 15 -44 2 -84 4 -90 4 -5 1 -91 1 -190 0 -99 -1 -184 0 -190 1 -5
1 -14 0 -20 -1 -5 -1 -46 -4 -90 -7 -44 -2 -84 -4 -90 -4 -28 -2 -181 24 -191
32 -7 5 -30 11 -52 12 -22 1 -46 8 -55 15 -8 7 -18 9 -21 4 -3 -5 -40 -7 -83
-5 -91 6 -143 6 -395 -1 -113 -3 -190 -1 -194 5 -3 5 -10 6 -16 3 -14 -9 -393
-12 -457 -4 -25 3 -70 0 -100 -7 -32 -7 -61 -8 -70 -3 -10 5 -24 4 -34 -1 -11
-7 -17 -7 -17 0 0 9 -41 8 -93 -2 -7 -1 -11 4 -9 12 2 11 0 12 -11 3 -8 -7
-22 -10 -31 -6 -10 4 -16 1 -16 -7 0 -12 -2 -12 -9 0 -7 10 -45 14 -172 15
-90 0 -189 -2 -219 -5z m-3710 -299 c0 -5 -4 -10 -10 -10 -5 0 -10 5 -10 10 0
6 5 10 10 10 6 0 10 -4 10 -10z m3656 -281 c4 -7 39 -10 93 -9 47 2 88 2 91 0
29 -11 638 -22 655 -11 6 3 46 7 90 9 87 2 159 8 218 17 26 4 37 2 37 -7 0
-10 33 -13 133 -13 72 0 137 -4 143 -8 15 -10 116 -16 359 -22 110 -2 200 -5
200 -6 0 0 19 -2 43 -4 27 -2 40 1 36 7 -8 12 138 3 222 -13 28 -5 73 -9 100
-8 27 1 85 -1 129 -5 44 -4 89 -7 100 -7 77 4 100 2 103 -8 6 -17 52 -14 52 3
0 23 13 26 71 16 30 -5 79 -12 109 -14 30 -3 56 -10 58 -16 3 -7 8 -7 18 1 11
9 20 9 39 -1 13 -7 34 -10 46 -7 12 3 57 2 98 -4 42 -5 99 -12 126 -15 28 -3
91 -10 140 -17 l90 -12 2 -45 c1 -25 4 -112 6 -193 3 -90 9 -153 16 -160 6 -6
11 -22 11 -36 0 -21 -2 -23 -10 -11 -8 12 -10 8 -12 -15 -5 -95 -2 -178 11
-240 16 -82 17 -103 9 -380 -4 -135 -1 -288 8 -430 8 -121 16 -258 19 -305 8
-156 25 -424 30 -480 3 -30 7 -136 10 -235 2 -99 7 -218 10 -265 13 -208 16
-335 16 -795 -1 -574 -6 -855 -21 -981 -13 -123 -14 -298 0 -484 6 -85 9 -213
6 -285 -3 -71 -8 -204 -12 -295 -4 -104 -2 -204 5 -270 6 -58 15 -139 19 -180
10 -110 5 -1391 -8 -1555 -5 -77 -12 -243 -15 -370 -3 -126 -7 -257 -10 -290
-2 -33 -7 -91 -10 -130 -3 -38 -5 -200 -4 -360 3 -528 1 -816 -5 -1175 -9
-557 -15 -677 -38 -810 -18 -104 -9 -563 12 -665 12 -56 7 -182 -8 -197 -8 -8
-73 -15 -195 -20 -100 -4 -191 -9 -202 -10 -11 -1 -39 -1 -61 0 l-42 2 -11 76
c-6 42 -9 80 -5 85 3 5 0 9 -6 9 -7 0 -11 20 -10 53 0 28 -4 77 -10 107 -22
110 -23 122 -10 130 9 6 8 26 -4 91 -10 52 -12 87 -6 93 5 5 6 16 0 26 -5 10
-9 30 -8 46 0 16 -5 56 -12 89 -6 33 -9 76 -6 97 3 20 2 40 -4 43 -6 4 -10 60
-10 136 0 84 -4 138 -12 152 -12 22 -46 334 -47 433 -1 37 3 53 14 58 12 4 14
18 9 68 -4 35 -5 97 -4 139 1 42 -6 114 -15 160 -11 59 -13 104 -8 154 4 39 6
75 4 80 -2 6 -5 86 -6 180 -2 112 -7 171 -14 173 -13 4 -51 84 -51 106 0 9 6
16 13 17 10 0 10 2 0 6 -16 6 -17 30 -2 35 6 2 -2 33 -20 80 -32 80 -38 113
-21 123 14 9 12 21 -4 38 -21 21 -32 87 -15 87 12 0 12 2 0 9 -10 6 -12 21 -8
50 3 23 1 41 -3 41 -14 0 -35 103 -32 160 2 31 -4 82 -13 115 -25 87 -28 110
-28 213 0 50 -4 92 -8 92 -5 0 -9 15 -9 33 0 17 -4 47 -10 66 -9 31 -18 120
-25 247 -1 29 -6 57 -10 63 -4 7 -8 65 -10 129 -6 184 -42 433 -66 452 -4 3
-6 39 -4 80 2 79 -9 130 -32 143 -17 11 -19 187 -1 187 6 0 4 7 -5 18 -18 20
-22 42 -8 42 4 0 6 11 3 25 -2 14 -11 25 -19 25 -12 0 -13 7 -8 28 8 30 8 28
-1 94 -5 33 -3 48 5 48 16 0 14 46 -5 82 -17 34 -27 215 -11 225 4 2 -3 15
-16 27 -27 25 -37 57 -42 139 -2 36 -10 66 -20 77 -10 11 -25 69 -39 146 -15
90 -30 143 -49 176 -21 37 -26 60 -25 104 1 30 -3 59 -9 62 -6 4 -14 18 -18
32 -4 13 -13 30 -20 37 -7 6 -16 33 -20 58 -3 26 -20 69 -36 96 -16 28 -29 63
-29 79 0 16 -5 32 -11 36 -6 3 -8 17 -5 29 5 19 2 24 -16 27 -14 2 -24 11 -26
23 -8 58 -13 65 -37 65 -18 0 -25 5 -25 20 0 11 5 20 10 20 6 0 10 5 10 10 0
6 -8 10 -18 10 -25 0 -42 20 -42 50 0 14 -7 34 -15 44 -8 11 -15 35 -15 52 0
22 -9 42 -25 58 -14 14 -25 30 -25 35 0 5 -8 16 -18 23 -10 7 -21 21 -25 31
-3 9 -15 17 -25 17 -10 0 -23 5 -29 11 -5 5 -52 13 -104 16 -52 3 -98 9 -104
13 -15 11 -108 5 -134 -9 -13 -7 -32 -11 -42 -8 -10 3 -22 1 -25 -4 -3 -5 -18
-9 -34 -9 -16 0 -32 -4 -35 -10 -3 -5 -17 -10 -30 -10 -13 0 -26 -4 -29 -9 -5
-8 -56 -24 -86 -26 -32 -3 -100 -53 -100 -74 0 -5 -12 -11 -27 -13 -25 -3 -29
-8 -36 -57 -4 -30 -14 -62 -22 -70 -48 -53 -55 -62 -55 -69 0 -5 -11 -14 -25
-20 -15 -7 -25 -20 -25 -32 0 -12 -7 -20 -17 -20 -10 0 -35 -16 -55 -35 -20
-19 -40 -35 -44 -35 -11 0 -33 -34 -34 -52 0 -10 -4 -18 -10 -18 -5 0 -10 -8
-10 -19 0 -10 -6 -24 -13 -30 -29 -23 -97 -195 -97 -243 0 -14 -6 -28 -13 -31
-7 -2 -23 -25 -36 -50 -13 -26 -31 -54 -40 -64 -23 -25 -81 -161 -81 -189 0
-15 -6 -24 -15 -24 -8 0 -15 -6 -15 -14 0 -7 -7 -27 -15 -42 -8 -16 -18 -46
-21 -67 -4 -20 -11 -40 -15 -43 -5 -3 -9 -18 -9 -35 0 -16 -5 -29 -11 -29 -6
0 -8 -7 -5 -16 3 -9 2 -12 -5 -9 -6 4 -13 -2 -16 -13 -3 -11 -11 -23 -18 -26
-8 -3 -11 -13 -8 -24 3 -12 -3 -28 -16 -41 -12 -12 -21 -31 -21 -43 0 -13 -7
-36 -15 -52 -8 -15 -15 -34 -15 -41 0 -8 -11 -22 -25 -33 -18 -15 -28 -36 -36
-79 -7 -32 -17 -62 -23 -68 -6 -5 -17 -28 -24 -50 -6 -22 -19 -65 -28 -95 -10
-30 -25 -66 -34 -80 -12 -18 -18 -46 -18 -95 0 -44 -6 -81 -16 -100 -9 -16
-16 -37 -16 -46 0 -9 -6 -22 -14 -28 -20 -17 -31 -70 -17 -84 16 -16 14 -37
-3 -37 -8 0 -19 -15 -24 -32 -30 -101 -75 -326 -67 -339 9 -14 -25 -183 -38
-191 -7 -4 -11 -36 -11 -82 0 -42 -3 -76 -8 -76 -4 0 -8 -11 -8 -24 0 -14 -5
-28 -11 -32 -8 -4 -10 -27 -6 -65 5 -53 3 -59 -14 -59 -11 0 -21 9 -24 23 -13
55 -23 161 -18 190 2 18 -2 59 -10 92 -9 33 -18 84 -22 112 -4 29 -11 55 -16
59 -5 3 -9 26 -9 52 0 26 -5 78 -10 116 -6 37 -13 112 -15 165 -9 158 -22 254
-39 286 -9 17 -16 50 -15 75 1 45 -16 235 -27 297 -5 25 -2 34 10 39 26 10 23
134 -4 157 -24 20 -26 47 -5 47 18 0 20 57 4 110 -6 19 -13 64 -15 100 -4 43
-11 72 -23 85 -18 20 -37 115 -45 225 -14 195 -41 370 -57 370 -6 0 -9 10 -8
23 1 12 -3 35 -9 50 -7 16 -12 35 -12 42 0 8 -9 19 -20 25 -24 13 -25 26 -4
47 16 16 12 66 -9 91 -7 9 -6 20 3 37 8 14 10 36 6 57 -4 18 -11 73 -16 121
-8 85 -35 187 -65 253 -8 17 -14 52 -13 79 0 34 -4 50 -16 57 -17 10 -22 48
-6 48 6 0 10 11 10 25 0 14 -5 25 -11 25 -7 0 -9 11 -6 27 3 15 -4 54 -14 86
-10 33 -19 68 -19 77 0 10 -7 20 -15 24 -9 3 -15 18 -15 35 0 16 -4 33 -10 36
-5 3 -10 26 -10 51 0 25 -9 73 -20 107 -11 34 -19 73 -18 87 4 40 -14 150 -23
150 -5 0 -9 37 -8 83 1 97 -8 156 -28 179 -9 10 -12 25 -8 37 3 11 -1 33 -9
48 -8 16 -19 58 -26 93 -6 36 -17 85 -25 110 -7 25 -13 52 -14 60 -2 59 -15
151 -22 156 -5 3 -9 16 -9 29 0 13 -4 26 -9 29 -4 3 -11 32 -15 65 -4 33 -12
61 -18 63 -6 2 -13 31 -15 63 -18 273 -23 300 -53 310 -12 4 -22 23 -30 58 -6
29 -16 69 -22 89 -6 20 -8 50 -5 67 4 17 2 33 -3 36 -6 3 -10 19 -10 36 0 16
-4 29 -10 29 -5 0 -10 6 -10 13 0 6 -11 33 -25 59 -14 26 -25 58 -25 72 0 15
-13 38 -34 58 -18 18 -35 42 -37 53 -2 11 -19 27 -37 35 -27 11 -33 19 -29 37
3 15 -1 23 -9 23 -8 0 -14 6 -14 13 0 8 -21 13 -63 15 -34 2 -69 9 -77 17 -9
8 -26 11 -42 8 -21 -4 -28 -1 -28 10 0 24 -93 34 -212 23 -32 -3 -69 -1 -82 4
-13 5 -68 10 -123 12 -86 2 -104 0 -146 -21 -26 -13 -51 -21 -54 -18 -3 4 -21
0 -40 -8 -20 -8 -43 -15 -53 -15 -10 0 -20 -6 -23 -14 -3 -7 -26 -17 -51 -20
-25 -4 -48 -11 -51 -17 -4 -5 -15 -9 -26 -9 -10 0 -19 -4 -19 -10 0 -5 -11
-10 -25 -10 -16 0 -25 -6 -25 -16 0 -12 -6 -15 -21 -11 -14 4 -28 -1 -38 -12
-9 -10 -36 -26 -61 -36 -25 -10 -63 -26 -86 -36 -22 -11 -48 -19 -57 -19 -10
0 -17 -8 -17 -19 0 -12 -12 -24 -29 -32 -17 -7 -34 -24 -40 -36 -6 -13 -17
-23 -26 -23 -8 0 -15 -6 -15 -14 0 -8 -9 -17 -20 -21 -11 -3 -28 -17 -39 -31
-10 -13 -23 -24 -29 -24 -5 0 -31 -20 -57 -45 -25 -25 -55 -50 -66 -55 -10 -6
-19 -16 -19 -21 0 -6 -10 -23 -22 -38 -13 -15 -34 -42 -48 -61 -14 -18 -31
-39 -37 -46 -7 -7 -13 -16 -13 -21 0 -5 -11 -25 -25 -45 -14 -20 -25 -44 -25
-52 0 -9 -4 -16 -10 -16 -5 0 -10 -10 -10 -23 0 -13 -7 -32 -15 -43 -8 -10
-15 -29 -15 -41 0 -12 -4 -25 -10 -28 -5 -3 -10 -15 -10 -27 0 -11 -8 -22 -19
-25 -20 -5 -41 -50 -41 -87 0 -12 -11 -41 -24 -66 -13 -25 -27 -60 -31 -77 -3
-18 -11 -33 -16 -33 -5 0 -9 -16 -9 -35 0 -19 -5 -35 -11 -35 -31 0 -88 -103
-96 -174 -3 -28 -9 -53 -13 -56 -10 -7 -50 -96 -50 -110 0 -6 -8 -22 -17 -37
-11 -17 -17 -45 -17 -79 1 -43 -2 -53 -17 -57 -11 -3 -19 -14 -19 -24 0 -10
-4 -23 -9 -28 -14 -14 -53 -133 -61 -185 -10 -62 -36 -168 -69 -280 -50 -167
-97 -467 -84 -531 4 -20 1 -29 -7 -29 -9 0 -10 -10 -6 -35 5 -26 3 -35 -7 -35
-10 0 -16 -34 -25 -132 -7 -73 -17 -173 -22 -223 -5 -49 -12 -122 -14 -160 -3
-39 -10 -84 -17 -100 -11 -28 -21 -100 -36 -243 -3 -34 -10 -65 -14 -68 -5 -3
-9 -27 -9 -55 0 -27 -4 -49 -10 -49 -5 0 -10 -24 -10 -52 0 -53 -4 -73 -39
-198 -11 -36 -24 -92 -31 -125 -7 -33 -17 -70 -23 -83 -6 -13 -10 -35 -9 -49
1 -15 -5 -34 -14 -44 -13 -15 -15 -30 -10 -83 5 -42 4 -66 -3 -71 -6 -3 -11
-16 -11 -29 0 -12 -5 -27 -11 -33 -5 -5 -13 -35 -15 -64 -3 -30 -10 -72 -15
-94 -9 -36 -32 -206 -45 -330 -3 -27 -9 -77 -14 -110 -6 -33 -10 -85 -10 -115
0 -69 -8 -100 -26 -100 -8 0 -15 10 -15 23 -5 76 -10 101 -22 116 -11 12 -13
44 -10 141 5 149 0 186 -27 193 -23 6 -27 37 -5 37 11 0 15 12 15 50 0 38 -4
50 -15 50 -13 0 -15 7 -9 38 4 20 10 38 15 40 4 2 1 15 -6 30 -24 47 -28 65
-31 130 -2 34 -11 78 -20 98 -13 28 -17 69 -19 197 -1 163 -13 234 -40 257
-10 9 -15 32 -15 74 0 34 -5 67 -11 73 -5 5 -16 55 -23 109 -10 74 -21 114
-45 159 -17 33 -31 72 -31 87 0 16 -5 28 -13 28 -9 0 -13 20 -13 70 -1 52 -5
74 -17 83 -9 7 -17 23 -19 37 -2 14 -8 25 -15 25 -6 0 -15 3 -19 8 -4 4 -15 7
-25 7 -10 0 -27 13 -39 30 -12 16 -28 30 -36 30 -8 0 -21 17 -29 38 -15 37
-98 112 -124 112 -6 0 -11 3 -11 8 0 7 -48 32 -62 32 -5 0 -33 20 -62 44 -33
27 -72 48 -100 55 -25 6 -67 16 -93 22 -27 6 -56 18 -65 27 -10 8 -18 10 -18
5 0 -6 -12 -14 -26 -17 -20 -5 -33 -1 -50 15 -15 14 -24 17 -24 10 0 -9 -8
-11 -21 -8 -11 3 -39 -1 -61 -9 -48 -17 -90 -18 -105 -3 -8 8 -17 8 -31 0 -29
-15 -52 -14 -52 4 0 8 -7 15 -15 15 -8 0 -15 -7 -15 -16 0 -14 -9 -16 -50 -12
-36 4 -50 2 -50 -8 0 -8 -16 -13 -47 -13 -87 -2 -136 -10 -192 -31 -31 -12
-74 -29 -96 -37 -69 -27 -85 -36 -85 -51 0 -11 -8 -13 -29 -9 -23 5 -33 0 -59
-29 -17 -18 -37 -34 -46 -34 -9 0 -16 -4 -16 -10 0 -5 -9 -10 -20 -10 -13 0
-20 -7 -20 -20 0 -10 -5 -41 -11 -69 -8 -39 -15 -50 -35 -55 -13 -4 -24 -11
-24 -17 0 -10 -47 -78 -62 -89 -14 -11 -58 -121 -79 -197 -30 -114 -32 -117
-44 -130 -7 -6 -15 -37 -19 -69 -4 -32 -11 -62 -15 -68 -5 -6 -14 -33 -19 -61
-6 -27 -18 -81 -27 -120 -20 -83 -34 -148 -42 -193 -3 -18 -9 -35 -14 -38 -5
-3 -9 -25 -9 -49 0 -24 -4 -46 -9 -49 -5 -3 -7 -15 -4 -26 3 -11 1 -20 -5 -20
-11 0 -31 -87 -39 -170 -3 -30 -9 -61 -15 -67 -5 -7 -10 -28 -10 -48 0 -19 -4
-38 -9 -41 -5 -3 -9 -21 -9 -40 0 -19 -4 -42 -9 -52 -5 -9 -14 -48 -19 -87
-22 -153 -36 -235 -56 -341 -14 -74 -18 -117 -12 -127 7 -10 3 -23 -12 -42
-13 -17 -22 -42 -22 -64 0 -20 -5 -52 -11 -71 -5 -19 -10 -50 -11 -68 0 -17
-4 -35 -9 -38 -5 -3 -9 -17 -9 -32 0 -31 -25 -203 -46 -312 -8 -42 -14 -91
-14 -110 0 -19 -7 -60 -15 -90 -8 -30 -12 -65 -9 -77 4 -13 2 -29 -4 -36 -5
-6 -12 -28 -15 -47 -3 -19 -19 -89 -36 -155 -17 -66 -35 -145 -40 -175 -5 -30
-26 -131 -46 -225 -54 -254 -76 -383 -95 -555 -4 -41 -15 -122 -23 -180 -9
-58 -19 -158 -22 -224 -3 -65 -7 -122 -10 -125 -2 -4 -5 -27 -6 -52 0 -24 -5
-69 -10 -99 -26 -161 -49 -485 -55 -775 -2 -104 -6 -212 -8 -240 -12 -115 -16
-179 -21 -333 -3 -90 -7 -167 -9 -171 -3 -4 -7 -60 -11 -126 -3 -65 -8 -122
-11 -127 -4 -5 -8 -39 -11 -75 -2 -36 -7 -82 -12 -102 l-7 -36 -85 -1 c-46 0
-124 -4 -173 -8 l-88 -7 8 38 c8 41 12 383 4 383 -8 0 -4 632 3 656 7 18 8
387 4 844 0 85 0 252 1 370 1 252 0 283 -12 292 -6 4 -5 17 2 33 7 14 12 50
12 79 0 29 5 67 11 85 8 23 8 35 0 45 -6 7 -12 35 -13 62 -3 83 5 242 13 255
4 7 1 19 -7 26 -8 8 -14 23 -14 34 0 10 -4 19 -10 19 -12 0 -14 33 -3 44 9 8
11 57 11 201 -1 113 -2 138 -12 153 -4 7 -4 21 0 30 4 9 9 44 11 76 2 33 8 65
12 70 5 6 6 34 3 61 -2 28 -6 97 -8 155 -1 58 -5 118 -8 134 -4 16 -1 34 4 41
7 8 10 82 9 196 -3 282 -3 287 10 303 7 8 8 17 3 20 -11 6 -15 99 -15 301 1
229 8 423 16 431 11 11 9 72 -3 79 -5 3 -10 33 -10 66 0 46 -3 59 -15 59 -19
0 -19 10 -1 45 8 15 18 62 21 104 4 42 12 82 17 89 8 9 6 12 -7 12 -14 0 -16
5 -10 28 6 24 18 332 18 457 0 28 0 115 0 195 0 80 -1 222 -2 316 -2 95 1 174
6 177 4 3 6 43 3 89 -8 116 -3 253 9 277 8 14 8 20 -2 24 -9 3 -9 12 2 43 17
45 24 214 9 214 -6 0 -7 14 -2 32 3 18 7 130 6 248 0 194 2 219 20 254 20 39
28 174 26 436 -1 230 -1 275 5 445 8 219 16 345 24 357 5 9 15 321 13 423 0
27 -6 55 -12 62 -8 10 -8 20 -1 36 7 14 8 52 4 97 -4 41 -4 109 1 150 4 41 9
93 11 115 3 21 -1 56 -9 77 -7 20 -14 89 -15 155 -5 261 -1 353 16 353 8 0 10
15 7 48 -2 26 -6 105 -9 176 -3 99 -1 131 9 137 10 6 10 9 1 9 -19 0 -14 130
4 137 11 4 14 26 13 97 -3 144 -5 136 38 137 20 1 69 3 107 6 39 2 110 6 158
8 49 3 119 10 155 16 99 17 111 18 455 20 211 1 322 -2 330 -9 14 -12 115 -11
135 1 7 5 12 3 12 -5 0 -10 2 -10 9 1 7 10 22 12 62 7 30 -4 62 -8 72 -9 9 -1
17 -5 17 -10 0 -4 4 -6 9 -3 5 3 31 7 57 7 27 1 57 7 67 13 12 8 22 7 37 -2
27 -17 37 -15 60 8 25 25 50 26 50 2 0 -11 8 -18 20 -19 11 -1 20 2 20 8 0 5
7 9 15 9 8 0 15 -4 15 -9 0 -13 153 -11 161 2 12 17 102 20 149 4 54 -18 156
-22 535 -22 304 0 466 7 625 26 52 6 118 13 145 15 28 3 68 6 90 8 47 4 286 8
400 6 44 -1 152 1 240 4 386 13 650 15 766 7 71 -4 152 -4 190 1 36 4 105 5
155 1 49 -5 125 -5 169 -2 44 3 196 -3 340 -13 143 -10 272 -16 288 -12 15 3
27 2 27 -3 0 -4 98 -9 218 -11 119 -1 249 -6 287 -10 101 -11 325 -7 333 5 10
15 163 13 186 -3 16 -11 25 -10 54 2 20 8 42 12 50 9 8 -3 69 3 136 14 138 22
193 26 364 26 91 0 122 3 122 13 0 15 26 16 36 1z m2791 -85 c-3 -3 -12 -4
-19 -1 -8 3 -5 6 6 6 11 1 17 -2 13 -5z m1233 -544 c0 -5 -4 -10 -10 -10 -5 0
-10 5 -10 10 0 6 5 10 10 10 6 0 10 -4 10 -10z m-271 -1031 c-1 -61 -11 -68
-23 -17 -3 15 -2 29 3 32 5 3 7 15 4 26 -3 11 0 20 6 20 6 0 10 -23 10 -61z
m-5784 -24 c39 1 75 -3 82 -8 7 -5 28 -9 48 -10 19 -1 35 -5 35 -9 0 -4 12 -8
26 -8 21 0 24 -4 19 -20 -5 -14 -2 -20 9 -20 9 0 16 -5 16 -11 0 -7 9 -9 24
-5 24 6 47 -12 60 -47 3 -11 15 -21 26 -24 11 -3 20 -12 20 -19 0 -8 6 -14 14
-14 15 0 26 -21 26 -51 0 -10 6 -19 14 -19 17 0 50 -66 41 -81 -4 -6 0 -16 8
-22 14 -11 47 -101 47 -129 0 -7 10 -33 22 -58 11 -25 22 -56 24 -68 1 -13 10
-34 18 -48 9 -13 16 -32 16 -43 0 -11 5 -23 10 -26 6 -4 8 -11 5 -16 -4 -5 -1
-9 5 -9 7 0 9 -7 6 -16 -4 -9 -1 -23 5 -31 9 -10 9 -17 1 -25 -7 -7 -8 -16 -3
-22 16 -21 29 -95 18 -99 -6 -2 -7 -9 -2 -17 5 -8 8 -29 6 -47 -1 -18 1 -38 5
-45 5 -7 9 -17 9 -23 3 -31 18 -85 25 -85 4 0 10 -15 13 -32 3 -18 11 -55 17
-83 6 -27 13 -63 16 -80 3 -16 8 -37 11 -45 3 -8 5 -24 4 -36 -1 -11 4 -33 10
-50 7 -16 14 -44 16 -63 2 -18 8 -41 13 -51 6 -10 10 -30 10 -44 0 -30 27
-140 42 -173 6 -11 8 -25 4 -31 -6 -10 11 -179 20 -194 3 -5 7 -36 8 -70 2
-36 7 -63 14 -66 7 -2 12 -8 12 -13 0 -6 -5 -7 -12 -3 -8 5 -9 0 -4 -17 37
-122 59 -209 59 -237 0 -18 4 -27 8 -20 4 7 10 -4 14 -28 4 -21 9 -46 11 -54
2 -8 3 -19 3 -24 0 -5 4 -12 10 -15 5 -4 11 -24 12 -46 1 -22 5 -44 8 -50 6
-12 7 -18 9 -63 1 -18 6 -31 11 -28 5 3 7 -16 5 -43 -3 -29 0 -52 6 -56 6 -3
7 -11 4 -17 -4 -6 0 -14 7 -19 12 -8 12 -11 -1 -19 -13 -8 -13 -13 4 -44 10
-19 15 -42 12 -54 -4 -12 -1 -26 8 -35 8 -8 15 -23 15 -33 1 -44 4 -61 13 -99
6 -22 13 -53 15 -70 3 -16 8 -37 13 -45 4 -8 8 -35 9 -60 2 -66 5 -82 19 -108
10 -17 11 -27 2 -37 -7 -9 -8 -19 -1 -32 8 -16 38 -157 46 -223 2 -13 7 -47
11 -75 4 -27 7 -58 5 -67 -1 -10 5 -33 15 -53 9 -19 13 -42 10 -52 -7 -17 -1
-47 42 -218 38 -153 46 -208 56 -385 3 -47 7 -98 10 -115 3 -16 7 -66 11 -110
3 -44 8 -88 11 -97 12 -40 45 -238 68 -408 9 -69 22 -159 28 -200 6 -41 10
-84 11 -95 0 -34 25 -174 52 -295 15 -63 33 -155 41 -205 8 -49 17 -99 19
-110 25 -133 47 -266 54 -335 12 -105 28 -172 57 -227 20 -38 21 -44 7 -70 -8
-15 -16 -48 -18 -72 -2 -24 -9 -47 -15 -51 -6 -4 -8 -33 -6 -76 3 -43 0 -74
-7 -83 -9 -11 -9 -15 1 -19 9 -3 5 -11 -12 -27 -15 -14 -23 -30 -20 -38 3 -8
1 -18 -5 -22 -16 -10 -13 -43 5 -53 14 -8 14 -11 -2 -27 -11 -10 -19 -36 -21
-64 -7 -101 -15 -151 -25 -151 -5 0 -7 -8 -4 -18 3 -10 -2 -34 -13 -54 -10
-22 -16 -48 -13 -63 2 -15 -1 -37 -8 -50 -7 -14 -10 -39 -7 -59 4 -27 2 -36
-9 -36 -8 0 -14 -6 -15 -12 0 -7 -3 -24 -5 -38 -2 -14 -6 -57 -9 -96 -2 -38
-11 -86 -19 -105 -19 -47 -31 -159 -17 -159 6 0 11 -4 11 -10 0 -5 -10 -10
-21 -10 -16 0 -20 -5 -16 -20 3 -13 0 -20 -9 -20 -8 0 -14 -6 -15 -12 -1 -7
-2 -38 -4 -68 -2 -30 -12 -78 -24 -107 -15 -38 -17 -53 -8 -56 8 -3 6 -10 -6
-25 -21 -23 -36 -144 -31 -239 2 -29 -1 -53 -6 -53 -5 0 -9 -8 -9 -18 0 -20
-16 -187 -32 -327 -6 -56 -7 -113 -4 -128 5 -17 2 -33 -6 -43 -10 -12 -10 -15
1 -12 7 2 15 -3 17 -9 3 -7 -2 -13 -11 -13 -17 0 -21 -19 -17 -78 2 -18 -5
-65 -13 -105 -21 -94 -46 -235 -57 -322 -4 -38 -13 -87 -18 -109 -5 -21 -7
-44 -5 -51 7 -18 -13 -28 -33 -16 -12 6 -20 5 -28 -5 -7 -10 -40 -16 -110 -19
-149 -8 -192 -13 -215 -25 -12 -6 -67 -10 -139 -8 -66 1 -123 -1 -127 -4 -4
-4 -11 -5 -17 -1 -5 3 -62 6 -126 6 -64 0 -120 2 -124 4 -4 3 -62 7 -128 9
-65 2 -122 5 -127 5 -4 1 -9 0 -12 -1 -10 -4 -405 -7 -413 -3 -4 2 -62 6 -130
8 -67 1 -218 6 -336 9 -163 5 -217 3 -222 -6 -6 -9 -13 -8 -27 5 -16 14 -38
18 -104 18 -47 0 -89 -1 -94 -2 -5 -1 -17 1 -27 6 -9 4 -23 3 -30 -2 -6 -5
-55 -8 -107 -6 -52 1 -159 3 -237 4 -126 2 -169 9 -131 21 7 3 8 9 3 19 -5 8
-8 24 -6 37 1 12 -2 22 -8 22 -7 0 -11 24 -12 58 0 48 -6 110 -22 237 -1 11 1
40 4 65 4 25 5 49 2 53 -3 5 -6 46 -8 92 -2 46 -6 89 -10 95 -4 6 -2 17 5 25
7 8 7 15 1 19 -6 4 -6 18 -1 36 5 18 5 56 -1 93 -6 34 -9 76 -7 94 1 17 0 35
-4 38 -3 3 -3 20 1 38 4 18 4 73 -1 122 -4 50 -10 139 -12 198 -2 63 -8 113
-15 120 -6 6 -11 18 -11 26 0 8 -7 23 -17 33 -11 13 -12 18 -3 18 10 0 9 4 -1
17 -10 11 -14 46 -14 113 0 54 -5 104 -11 111 -6 8 -11 48 -12 89 -3 123 -25
257 -53 325 -11 26 -15 77 -7 90 16 26 -11 273 -33 301 -4 5 -6 20 -2 32 3 12
-1 32 -9 44 -14 21 -26 82 -31 148 -1 14 -6 28 -12 32 -15 11 -14 48 1 48 9 0
14 11 14 30 0 17 -4 30 -10 30 -5 0 -10 18 -10 39 0 22 -5 43 -10 46 -6 4 -8
21 -5 39 5 23 2 36 -9 45 -11 9 -13 19 -5 37 13 37 11 100 -5 113 -9 7 -13 29
-11 61 1 27 -4 61 -11 76 -17 33 -18 31 5 37 17 4 28 23 61 102 5 11 14 46 20
77 6 32 16 60 21 64 6 3 8 17 4 31 -3 14 -1 31 5 39 7 7 9 17 7 21 -8 13 22
256 36 293 7 18 17 80 21 130 1 19 6 76 10 125 11 124 13 142 24 205 5 30 8
69 5 86 -3 18 0 35 6 38 6 4 11 16 11 27 0 10 5 19 10 19 6 0 10 7 10 15 0 8
-5 15 -11 15 -8 0 -8 4 1 15 6 8 9 19 6 24 -4 5 -2 12 4 16 6 4 8 10 5 15 -3
5 -1 19 6 32 7 13 11 63 10 130 -1 60 2 115 6 121 4 7 8 48 9 92 2 80 20 191
34 210 4 6 15 46 25 90 9 44 21 95 25 114 6 21 5 41 -1 52 -11 22 13 195 30
212 6 6 11 25 11 42 0 16 7 43 15 59 8 15 15 41 15 56 0 16 6 35 13 42 18 18
60 165 53 185 -4 8 -2 21 3 27 20 25 37 130 44 276 2 36 9 75 15 86 6 11 11
40 11 64 1 57 6 97 16 133 5 20 4 27 -6 27 -8 0 -5 8 9 18 20 16 23 28 26 97
2 44 6 88 11 98 4 9 5 24 2 32 -4 8 -2 17 2 20 5 3 7 14 4 25 -3 11 0 26 6 33
6 8 10 31 10 53 -4 100 3 174 16 182 8 4 16 30 19 57 4 28 10 73 16 100 8 45
15 110 25 228 2 20 8 43 14 50 13 17 51 135 51 162 0 11 7 30 15 42 9 12 17
46 19 75 2 29 7 60 11 69 3 10 1 20 -5 24 -8 5 -7 12 4 24 9 10 17 31 19 47 2
16 8 38 14 49 6 11 15 38 19 60 4 22 18 63 31 92 12 30 23 67 23 83 0 27 15
66 30 80 4 3 18 30 33 60 15 30 31 62 36 70 33 55 61 122 61 144 0 15 8 30 20
36 11 6 20 20 20 30 0 11 4 28 10 38 20 37 69 150 75 175 4 15 11 30 16 33 5
3 9 15 9 28 0 12 5 27 11 33 6 6 12 28 13 50 2 25 12 49 30 67 14 16 26 35 26
42 0 8 5 14 10 14 6 0 10 6 10 13 0 6 13 18 29 25 21 9 28 18 24 32 -3 12 1
22 11 26 9 3 16 13 16 22 0 69 129 213 233 260 44 20 71 39 78 56 7 14 17 22
25 19 8 -3 14 0 14 7 0 19 43 60 63 60 10 0 17 5 15 12 -6 16 57 47 80 41 10
-2 24 3 31 11 8 9 21 16 31 16 9 0 25 9 35 20 13 14 22 17 35 10 13 -7 22 -4
35 10 11 12 23 17 29 12 6 -5 43 -8 81 -7z m5781 -72 c-10 -10 -19 5 -10 18 6
11 8 11 12 0 2 -7 1 -15 -2 -18z m7 -63 c3 -11 1 -20 -4 -20 -5 0 -9 9 -9 20
0 11 2 20 4 20 2 0 6 -9 9 -20z m7 -107 c0 -23 -4 -33 -9 -27 -9 8 -4 64 5 64
2 0 4 -17 4 -37z m-2147 -2867 c4 -9 15 -12 32 -8 24 4 26 2 21 -16 -5 -16 -1
-23 20 -34 19 -9 31 -25 36 -48 5 -19 20 -57 33 -85 52 -111 65 -145 65 -169
0 -15 5 -26 10 -26 6 0 10 -6 10 -14 0 -7 6 -36 14 -62 8 -27 21 -83 30 -124
9 -41 25 -109 37 -150 23 -86 39 -152 44 -195 2 -16 7 -50 10 -75 3 -25 12
-65 20 -90 25 -81 39 -165 50 -305 17 -209 25 -274 36 -281 5 -3 9 -20 9 -37
0 -18 6 -63 14 -102 8 -38 17 -95 21 -125 8 -69 12 -94 15 -100 1 -3 4 -36 5
-75 1 -38 4 -81 7 -95 3 -14 8 -54 12 -90 4 -36 11 -85 16 -110 11 -52 39
-244 45 -310 4 -51 52 -308 60 -319 4 -7 19 -114 30 -216 1 -11 6 -51 10 -90
4 -38 10 -74 13 -80 3 -5 5 -23 4 -40 -1 -16 9 -102 24 -190 14 -88 32 -205
40 -260 9 -55 20 -125 25 -155 5 -30 13 -87 18 -127 4 -40 13 -78 19 -86 7 -7
14 -51 17 -96 2 -45 7 -87 11 -92 3 -6 12 -49 20 -97 8 -48 16 -98 19 -112 2
-14 7 -52 10 -85 4 -33 12 -65 17 -72 5 -7 7 -16 4 -22 -5 -8 2 -120 19 -318
3 -29 11 -81 19 -115 20 -83 47 -258 42 -266 -5 -9 15 -209 34 -332 5 -36 14
-117 20 -180 13 -140 37 -358 50 -460 6 -41 13 -102 16 -135 3 -33 7 -67 10
-76 2 -8 0 -36 -5 -61 -4 -26 -5 -50 -1 -55 4 -4 10 -36 13 -71 4 -53 3 -62
-11 -63 -10 0 -71 -2 -137 -5 -66 -2 -132 -6 -147 -8 -16 -2 -30 -1 -32 2 -2
4 -86 5 -186 2 -100 -3 -191 -2 -202 3 -12 4 -26 3 -34 -4 -9 -7 -18 -7 -33 0
-16 9 -22 8 -30 -6 -8 -15 -12 -16 -22 -5 -16 15 -66 16 -71 1 -2 -7 -12 -7
-30 0 -18 7 -29 7 -33 0 -4 -5 -10 -7 -15 -4 -5 3 -27 1 -48 -5 -49 -13 -340
-22 -347 -11 -5 9 -257 6 -352 -3 -25 -3 -51 -2 -57 2 -19 12 -320 10 -335 -2
-10 -8 -15 -8 -18 0 -2 7 -22 10 -48 8 -24 -2 -47 1 -50 7 -5 7 -11 6 -20 -1
-10 -8 -27 -9 -59 -2 -25 5 -48 7 -51 4 -6 -7 -26 -9 -135 -16 -47 -3 -99 -8
-115 -11 -17 -3 -45 -1 -63 4 -17 5 -32 6 -32 2 0 -9 -31 -8 -47 2 -6 4 -32 3
-58 -3 -25 -6 -72 -8 -105 -6 -33 3 -62 1 -64 -3 -3 -4 -62 -9 -130 -9 -69 -1
-131 -3 -137 -4 -14 -3 -21 130 -8 138 4 2 6 22 4 44 -2 22 0 42 5 45 4 3 8
26 8 53 0 26 3 65 7 86 4 22 9 49 10 60 1 12 3 21 4 21 5 0 9 33 15 118 4 48
12 101 17 119 10 34 26 146 35 252 3 32 10 70 15 83 5 14 7 28 4 33 -3 4 2 43
10 86 8 42 12 87 9 99 -3 13 -1 26 5 29 7 5 7 13 -1 26 -9 14 -9 25 0 45 7 14
12 46 12 70 0 24 4 45 9 47 5 2 11 46 13 98 3 53 8 102 13 110 5 8 8 31 6 52
-2 24 2 38 9 38 7 0 10 8 7 19 -2 10 0 27 6 37 6 10 14 34 18 54 4 19 19 67
34 105 15 39 29 87 32 108 3 20 9 37 14 37 13 0 11 48 -2 52 -8 3 -7 17 2 48
7 25 14 56 15 70 9 133 18 181 38 202 12 13 19 32 18 49 -2 15 2 30 7 34 7 4
9 22 5 45 -5 32 -3 41 10 46 9 4 16 14 15 23 -3 28 26 82 38 70 14 -14 27 99
13 116 -8 9 -6 17 5 29 9 9 15 28 14 44 -2 15 2 37 9 49 7 12 12 33 12 46 0
14 9 69 20 122 11 54 18 100 15 103 -3 3 -1 10 4 16 5 6 16 47 26 91 9 44 21
84 26 90 5 5 9 22 9 37 0 16 4 36 9 46 6 9 19 71 31 137 12 66 27 152 35 190
7 39 11 73 9 77 -2 4 1 10 8 14 8 5 4 10 -10 15 -27 10 -29 29 -2 29 12 0 22
8 25 23 18 82 23 111 18 123 -3 8 -1 20 5 27 8 10 17 53 26 122 5 40 28 141
37 160 10 24 29 125 34 180 5 62 44 284 61 345 32 117 36 128 50 123 8 -3 14
0 14 6 0 6 -5 11 -11 11 -6 0 -3 7 5 16 19 19 20 31 4 38 -10 3 -8 8 4 16 12
8 16 20 12 46 -4 32 -2 35 16 29 15 -5 21 0 26 21 4 15 2 35 -5 45 -16 27 -14
38 9 32 11 -3 20 0 20 6 0 6 -4 11 -10 11 -5 0 -10 5 -10 10 0 6 7 10 15 10 8
0 15 9 15 21 0 11 5 29 11 40 7 15 7 24 -2 35 -9 11 -9 14 2 14 12 0 47 80 53
120 1 9 6 21 10 28 4 7 6 16 3 18 -8 8 48 125 114 239 31 55 65 125 75 155 9
30 19 62 22 70 3 8 4 23 3 33 -1 9 2 17 7 17 6 0 13 12 16 28 6 23 87 200 118
257 7 11 17 30 23 42 7 13 24 35 38 49 15 15 27 33 27 40 0 8 5 14 10 14 6 0
10 7 10 14 0 8 11 36 25 62 14 26 25 51 25 56 0 5 16 43 37 86 34 71 116 172
140 172 6 0 14 10 20 22 10 23 12 23 151 30 28 1 52 6 52 10 0 14 38 9 43 -6z
m-7484 -21 c7 3 8 0 5 -9 -5 -12 1 -16 24 -16 18 0 32 6 36 16 3 9 12 14 20
11 7 -3 18 -1 24 5 10 10 52 -9 52 -24 0 -5 7 -8 15 -8 9 0 12 6 9 15 -7 17
11 21 21 4 4 -6 14 -8 22 -5 8 3 24 0 36 -6 12 -7 24 -13 27 -14 3 0 13 -4 23
-9 10 -4 30 -5 45 -2 21 4 31 1 40 -14 7 -11 17 -17 22 -14 5 3 11 1 15 -5 3
-5 14 -10 24 -10 19 0 45 -22 164 -138 98 -95 96 -93 113 -163 8 -35 19 -72
25 -82 5 -10 7 -22 5 -26 -7 -11 21 -107 45 -151 23 -44 39 -107 32 -126 -3
-7 2 -16 10 -20 10 -3 14 -16 12 -38 -4 -37 11 -122 25 -148 6 -10 10 -28 10
-42 0 -13 9 -50 19 -83 10 -32 17 -71 14 -86 -3 -15 -1 -27 4 -27 5 0 10 -28
10 -62 2 -95 15 -229 28 -288 20 -90 40 -139 59 -144 20 -6 20 -7 3 -17 -14
-8 -17 -21 -16 -55 2 -25 6 -47 9 -49 3 -2 5 -43 3 -91 -1 -61 2 -93 11 -106
10 -13 11 -29 6 -48 -4 -15 -6 -50 -4 -76 11 -135 15 -182 19 -209 3 -16 7
-50 9 -75 2 -25 10 -58 16 -75 7 -16 14 -52 16 -80 2 -27 7 -75 11 -105 4 -30
7 -62 8 -70 0 -8 6 -25 13 -37 7 -13 9 -23 5 -23 -13 0 -14 -192 -2 -207 6 -7
8 -20 5 -29 -6 -16 19 -260 30 -288 3 -9 11 -16 16 -16 7 0 6 -5 -1 -13 -6 -8
-8 -17 -4 -20 3 -4 7 -31 8 -59 1 -29 7 -89 14 -133 8 -44 14 -96 16 -115 1
-19 7 -64 13 -100 6 -36 14 -86 17 -112 3 -27 11 -48 18 -48 8 0 8 -3 0 -11
-9 -9 -7 -29 10 -104 2 -11 8 -51 12 -90 4 -38 9 -81 11 -95 1 -14 6 -63 9
-110 3 -47 13 -98 21 -114 8 -18 10 -33 5 -40 -6 -7 -2 -40 10 -86 10 -41 19
-92 19 -112 0 -21 7 -59 16 -85 11 -33 13 -48 5 -51 -6 -2 -8 -9 -4 -15 4 -7
8 -29 8 -50 1 -22 7 -42 16 -48 10 -6 10 -9 2 -9 -18 0 -16 -20 4 -42 11 -12
12 -18 3 -18 -9 0 -10 -10 -5 -37 4 -21 11 -65 16 -98 6 -33 12 -71 15 -85 3
-14 10 -73 17 -132 7 -58 14 -109 17 -111 3 -3 5 -33 4 -66 -1 -34 2 -61 5
-61 3 0 7 -21 7 -46 1 -41 7 -61 35 -115 4 -9 4 -30 0 -45 -5 -19 -3 -38 6
-56 7 -16 9 -28 4 -28 -5 0 -12 8 -14 17 -4 14 -5 14 -6 -3 0 -12 6 -27 14
-34 8 -7 15 -16 15 -21 0 -5 -7 -9 -15 -9 -8 0 -15 -7 -15 -15 0 -8 5 -14 11
-12 6 1 13 -6 14 -15 2 -10 -1 -18 -6 -18 -5 0 -9 -9 -9 -20 0 -11 4 -20 8
-20 5 0 10 -17 11 -37 3 -63 9 -114 21 -193 6 -41 13 -91 14 -110 2 -19 6 -51
9 -70 5 -27 5 -30 -2 -10 l-9 25 -1 -27 c-1 -15 4 -30 9 -33 6 -4 8 -16 4 -27
-3 -11 -2 -18 2 -15 5 3 10 -5 10 -16 2 -30 15 -99 21 -117 3 -8 7 -22 8 -30
1 -8 7 -40 12 -70 6 -30 11 -68 12 -85 1 -16 6 -32 11 -33 6 -2 10 -10 10 -18
0 -9 -4 -12 -10 -9 -5 3 -10 1 -10 -4 0 -6 5 -11 10 -11 6 0 10 -10 9 -22 0
-13 -3 -17 -6 -10 -4 10 -8 10 -19 1 -11 -9 -41 -10 -112 -4 -53 4 -104 7
-112 7 -8 0 -47 -1 -86 -3 -39 -1 -75 1 -81 4 -9 6 -190 19 -243 18 -14 0 -32
2 -40 6 -19 7 -111 10 -115 3 -2 -3 -87 -5 -189 -5 -102 0 -186 -3 -186 -7 0
-3 -37 -5 -82 -4 -46 2 -91 -1 -101 -6 -11 -6 -23 -6 -30 0 -15 12 -124 14
-131 3 -6 -10 -56 -2 -73 11 -7 6 -15 3 -21 -8 -9 -15 -12 -16 -41 -1 -17 8
-33 12 -35 8 -7 -11 -146 10 -146 22 0 5 -7 4 -15 -3 -8 -7 -20 -8 -27 -3 -17
11 -157 12 -185 2 -14 -5 -25 -4 -29 2 -4 8 -9 8 -17 0 -7 -7 -16 -7 -29 0
-12 7 -18 6 -18 -1 0 -7 -20 -11 -47 -10 -27 0 -127 -3 -223 -6 -176 -7 -360
-13 -457 -14 -29 0 -53 -3 -53 -8 0 -6 -134 -7 -150 -1 -3 1 -12 2 -20 3 -8 1
-15 7 -14 14 1 6 2 23 3 37 0 16 7 25 17 25 13 0 14 3 4 15 -8 10 -10 37 -5
92 4 43 9 82 12 86 3 5 8 41 10 80 3 39 8 80 13 91 4 11 4 35 0 53 -5 20 -4
33 2 33 5 0 6 10 3 22 -6 17 -4 20 9 15 10 -4 16 -1 16 8 0 8 -4 15 -10 15 -5
0 -10 12 -10 26 0 14 4 23 9 19 5 -3 12 -1 15 4 4 5 2 12 -3 15 -11 7 -2 46
10 46 5 0 9 11 9 25 0 13 6 30 14 37 10 9 11 21 4 43 -9 34 -8 125 3 140 7 9
11 89 10 175 0 19 4 46 9 60 6 14 13 68 15 120 6 114 8 131 19 148 13 21 15
66 3 80 -16 20 -8 122 14 177 17 43 18 74 4 125 -14 55 -11 122 11 232 9 46
19 97 21 115 3 18 11 38 19 44 16 13 19 49 4 49 -5 0 -10 7 -10 16 0 8 -5 12
-11 8 -14 -8 -10 65 5 84 7 9 6 16 -4 22 -8 5 -10 17 -6 36 4 16 9 40 11 54 2
14 8 55 14 92 6 36 11 131 10 210 -1 122 2 151 20 197 11 30 18 58 15 63 -3 5
-1 14 4 21 19 24 22 65 6 96 -8 17 -13 35 -9 41 3 5 8 36 10 67 7 93 16 134
31 140 7 2 16 26 19 51 4 26 9 54 12 62 11 28 11 40 1 40 -6 0 -8 25 -3 70 5
49 4 70 -4 70 -12 0 -15 42 -4 53 4 4 8 26 10 50 2 23 11 57 19 75 11 22 12
37 6 45 -7 8 -6 18 4 32 8 10 12 27 8 37 -3 10 2 25 10 34 21 20 21 58 1 50
-12 -4 -14 0 -9 22 4 15 12 36 18 47 6 11 9 38 6 60 -3 27 1 51 13 75 9 19 15
42 12 51 -3 10 1 44 9 76 8 32 15 67 15 78 0 53 20 214 31 250 6 22 17 74 24
115 8 52 16 74 25 72 9 -2 11 3 7 13 -3 8 -9 22 -12 30 -4 10 0 15 11 15 14 0
15 3 6 14 -9 11 -10 20 -1 36 6 11 8 25 5 30 -3 6 -3 16 2 22 4 7 8 29 9 49 1
20 8 47 15 60 13 25 16 36 23 109 3 25 14 76 25 114 11 38 18 73 14 79 -4 6
-1 7 7 2 10 -6 11 -4 5 11 -11 25 -8 84 6 100 6 7 8 23 4 36 -5 18 -4 20 4 8
9 -13 11 -12 12 5 1 11 0 28 -1 39 -1 10 4 23 12 28 10 7 10 11 1 15 -20 8
-16 36 3 29 15 -6 16 0 11 50 -4 44 -3 55 7 51 16 -7 30 73 15 88 -5 5 -9 16
-9 25 0 13 2 13 10 0 6 -10 9 2 8 38 0 40 8 69 32 117 25 49 30 71 25 95 -5
24 -3 35 12 45 14 11 15 16 6 26 -9 9 -9 19 2 45 7 18 10 35 7 39 -4 3 -1 10
6 14 7 4 14 19 15 32 0 13 5 27 9 30 5 3 26 55 47 115 22 60 45 124 53 143 14
36 68 101 84 101 5 0 16 9 23 19 8 11 20 17 27 14 6 -2 19 5 27 17 8 12 16 17
18 11 6 -18 73 18 95 50 10 16 24 27 31 24 7 -2 15 0 18 5 7 11 37 1 47 -14 4
-6 8 1 8 17 0 30 11 35 30 12 18 -21 30 -19 30 6 0 18 3 19 15 9 8 -6 19 -9
24 -5z m10040 -692 c0 -5 -4 -17 -9 -28 -8 -18 -9 -17 -9 8 -1 15 4 27 9 27 6
0 10 -3 9 -7z m-4512 -545 c-3 -8 -6 -5 -6 6 -1 11 2 17 5 13 3 -3 4 -12 1
-19z m823 -652 c0 -3 -4 -8 -10 -11 -5 -3 -10 -1 -10 4 0 6 5 11 10 11 6 0 10
-2 10 -4z"/>
<path d="M6699 10301 c-39 -19 -51 -54 -37 -110 12 -47 4 -91 -17 -91 -8 0
-15 -6 -15 -13 0 -8 -11 -24 -25 -37 -26 -24 -34 -60 -14 -60 12 0 4 -67 -11
-85 -4 -5 -6 -26 -4 -45 1 -19 -2 -62 -8 -95 -11 -65 -15 -98 -23 -188 -2 -32
-7 -62 -10 -67 -3 -5 -1 -11 5 -15 6 -3 10 -18 9 -33 -2 -54 10 -162 20 -181
15 -27 33 -142 37 -236 5 -133 15 -297 20 -345 2 -25 6 -70 9 -100 12 -158 15
-198 20 -236 3 -22 8 -100 10 -172 3 -73 12 -174 20 -225 9 -50 18 -108 21
-127 7 -50 14 -70 25 -70 6 0 17 -7 26 -16 14 -14 13 -18 -18 -44 l-34 -28 21
-29 c17 -22 29 -28 60 -29 45 0 84 14 84 31 0 12 37 50 48 50 4 0 5 10 4 23
-2 13 3 25 13 29 14 5 16 14 11 44 -3 22 -2 39 2 39 5 0 21 19 36 42 23 36 28
55 32 132 8 175 10 598 2 602 -5 3 -6 10 -2 15 16 26 23 236 11 298 -6 28 -5
52 1 66 6 13 8 26 4 29 -3 4 -7 25 -9 49 -6 64 -5 494 0 561 5 54 1 72 -24
131 -5 11 -11 59 -13 107 -3 57 -10 94 -21 112 -10 15 -14 33 -10 46 4 14 2
20 -7 18 -8 -2 -14 8 -16 25 -2 15 -7 27 -12 27 -5 0 -10 12 -12 28 -2 15 -9
27 -18 28 -26 2 -60 16 -60 25 0 5 -7 9 -15 9 -14 0 -16 32 -3 45 3 4 -1 23
-10 44 -19 43 -46 49 -103 22z"/>
<path d="M6177 10095 c-40 -16 -62 -45 -73 -95 -6 -26 -15 -44 -22 -42 -7 1
-12 -2 -12 -8 0 -5 -9 -10 -20 -10 -11 0 -20 -4 -20 -10 0 -5 5 -10 10 -10 6
0 10 -5 10 -11 0 -6 -9 -8 -20 -4 -17 5 -20 2 -20 -20 0 -15 -6 -39 -14 -53
-8 -15 -22 -52 -30 -82 -9 -30 -22 -73 -28 -95 -6 -22 -16 -46 -22 -53 -5 -8
-11 -44 -12 -80 -1 -37 -7 -92 -14 -122 -17 -78 -17 -93 -6 -108 7 -9 6 -16
-4 -22 -11 -7 -11 -12 -2 -23 12 -15 11 -135 -2 -155 -3 -6 -2 -13 3 -17 6 -3
9 -25 7 -48 -1 -23 1 -47 6 -53 5 -6 10 -51 12 -98 3 -48 10 -94 16 -101 7 -8
10 -21 7 -29 -3 -9 -1 -43 4 -78 6 -35 12 -120 12 -190 1 -71 5 -128 8 -128 4
0 7 -10 7 -22 1 -147 1 -285 0 -338 -1 -36 2 -96 7 -135 5 -38 9 -77 9 -85 1
-9 14 -17 35 -20 35 -5 56 -30 26 -30 -9 0 -13 -5 -9 -11 3 -6 1 -22 -6 -35
-11 -20 -10 -26 11 -48 25 -27 59 -35 59 -14 0 9 3 9 11 1 8 -8 24 -6 60 9 43
18 49 24 49 49 0 16 -4 29 -10 29 -5 0 -10 7 -10 15 0 13 19 20 44 16 4 -1 14
3 20 9 7 5 16 7 19 3 4 -3 7 -1 7 6 0 8 11 11 28 9 22 -2 28 1 30 22 2 14 11
31 20 38 9 7 11 12 4 12 -7 0 -12 7 -12 15 0 8 -7 15 -15 15 -8 0 -15 5 -15
10 0 6 4 10 9 10 12 0 21 39 11 45 -11 7 5 63 25 85 14 15 14 18 0 30 -11 9
-14 22 -10 41 9 42 11 150 3 155 -10 7 -10 48 -1 58 4 4 6 36 4 72 -2 54 0 64
14 64 12 0 15 5 9 23 -4 12 -11 25 -17 29 -6 4 -9 40 -8 90 2 45 4 109 4 141
1 44 5 57 17 57 11 0 12 2 3 8 -7 5 -13 26 -12 48 0 21 0 73 -1 114 -1 42 3
88 9 102 7 18 6 37 -4 64 -12 38 -12 60 0 249 13 204 15 232 14 265 0 19 -5
40 -11 47 -5 7 -7 24 -4 38 5 18 2 25 -9 25 -16 0 -20 16 -6 24 5 4 5 23 -1
47 -8 29 -8 43 1 52 18 18 13 75 -11 112 -13 19 -28 35 -34 35 -6 0 -19 9 -30
21 l-18 20 -8 -20 c-4 -12 -14 -21 -23 -21 -19 0 -19 14 0 30 42 34 -5 87 -58
65z"/>
<path d="M10018 7087 c-14 -5 -31 -21 -37 -34 -7 -15 -19 -23 -36 -23 -17 0
-25 -6 -25 -17 0 -15 -4 -13 -20 7 -19 24 -20 24 -20 3 0 -31 -33 -84 -48 -78
-9 3 -11 -1 -7 -14 4 -13 -2 -23 -20 -35 -14 -9 -25 -25 -25 -36 0 -10 -6 -23
-13 -27 -18 -10 -30 -60 -17 -68 6 -3 7 -17 4 -30 -8 -32 -11 -71 -18 -250 -4
-82 -11 -188 -16 -235 -10 -95 -11 -127 -10 -252 1 -48 -2 -93 -6 -99 -8 -14
-9 -151 0 -199 3 -19 8 -82 10 -140 3 -58 7 -113 11 -122 4 -9 2 -25 -4 -36
-7 -12 -7 -22 0 -29 5 -5 11 -39 12 -74 2 -35 6 -69 9 -74 8 -13 19 -81 23
-143 1 -24 10 -51 19 -61 9 -10 16 -35 16 -58 0 -57 8 -73 36 -73 13 0 24 -4
24 -10 0 -5 -7 -10 -15 -10 -8 0 -15 -4 -15 -10 0 -5 9 -10 19 -10 11 0 21 -5
23 -11 2 -6 21 -11 43 -11 67 0 90 7 93 28 1 11 16 28 32 39 36 24 37 28 7 52
-35 27 -39 49 -16 92 21 41 26 66 36 179 3 39 9 72 13 72 12 0 18 259 7 277
-8 12 -1 178 7 192 3 5 0 11 -6 14 -10 3 -10 7 0 19 13 16 12 50 -3 130 -4 20
-2 45 4 56 6 11 14 53 17 94 4 40 13 82 20 93 9 14 10 31 5 57 -5 20 -7 49 -4
65 5 33 5 332 0 418 -3 57 -21 105 -40 105 -5 0 -7 7 -3 15 3 8 -1 18 -9 22
-17 10 -37 91 -24 99 5 3 9 0 9 -5 0 -26 17 -8 26 29 8 28 8 42 0 51 -8 8 -8
13 2 16 17 7 15 27 -6 46 -21 19 -26 19 -64 4z"/>
<path d="M10475 7037 c-11 -7 -23 -16 -27 -22 -4 -5 -10 -6 -14 -3 -4 4 -15
-3 -26 -17 -14 -18 -18 -37 -16 -85 3 -68 -12 -90 -59 -90 -24 0 -31 -14 -13
-25 16 -10 12 -25 -5 -19 -11 5 -13 -2 -9 -32 3 -24 0 -40 -8 -45 -7 -5 -14
-33 -15 -66 -8 -188 -8 -253 -1 -291 14 -80 13 -285 -2 -312 -8 -14 -15 -46
-15 -71 -1 -25 -5 -51 -9 -57 -4 -6 -4 -23 0 -37 5 -20 3 -24 -10 -19 -11 4
-16 1 -16 -10 0 -9 7 -16 15 -16 20 0 19 -10 -2 -26 -17 -13 -17 -13 0 -14 13
0 17 -9 17 -38 0 -21 -5 -43 -12 -50 -8 -8 -8 -15 0 -24 12 -15 10 -208 -3
-229 -13 -20 -15 -60 -5 -80 7 -12 6 -19 -2 -21 -9 -3 -9 -11 1 -35 13 -31 6
-83 -12 -94 -6 -4 -6 -15 -2 -25 4 -11 9 -25 9 -33 1 -18 46 -48 46 -31 0 7 7
10 16 6 10 -4 22 1 30 11 12 16 13 15 14 -14 0 -18 -5 -33 -10 -33 -6 0 -8
-11 -6 -25 3 -13 0 -27 -5 -30 -17 -11 -9 -27 11 -22 11 3 23 1 26 -4 3 -5 11
-8 17 -7 7 2 14 -2 15 -7 2 -6 8 -15 14 -22 5 -7 7 -25 3 -42 -4 -20 -2 -32 8
-38 8 -4 19 -18 25 -30 8 -14 18 -20 32 -16 11 3 20 10 20 15 0 5 9 6 20 3 11
-4 20 -2 20 4 0 6 5 11 10 11 6 0 26 10 45 23 33 21 35 24 35 84 0 34 4 64 8
67 9 5 9 47 0 62 -10 15 -6 298 3 305 5 3 11 27 14 54 2 26 7 57 11 67 3 10 1
18 -5 18 -6 0 -5 12 3 33 7 17 12 58 11 90 -1 32 2 60 7 63 4 3 8 20 8 39 0
18 4 35 8 37 5 2 12 18 15 36 5 23 3 32 -7 32 -8 0 -17 8 -20 17 -9 23 3 138
20 185 8 25 10 46 4 65 -5 15 -17 54 -26 86 -9 32 -25 63 -35 70 -25 16 -25
53 1 60 11 3 20 10 20 16 0 6 -6 8 -14 5 -10 -4 -13 8 -14 50 0 52 1 55 19 46
16 -9 19 -7 19 12 0 12 10 32 22 45 l22 24 -29 24 c-17 14 -38 22 -47 19 -13
-4 -18 0 -18 16 0 11 -10 35 -22 52 -17 22 -19 32 -10 35 13 5 17 65 5 77 -4
4 -6 25 -4 46 3 41 -1 44 -46 41 -11 -1 -24 2 -27 8 -8 13 15 51 30 51 7 0 12
17 12 40 0 22 -4 40 -9 40 -6 0 -17 7 -25 15 -18 18 -22 18 -49 2z"/>
<path d="M3147 7362 c-6 -7 -14 -38 -18 -69 -4 -31 -14 -60 -21 -64 -15 -9
-21 -58 -9 -74 10 -11 7 -123 -4 -175 -4 -19 -14 -42 -21 -51 -17 -19 -19 -51
-7 -99 5 -19 8 -51 7 -70 -5 -81 -16 -317 -15 -335 0 -11 0 -47 -1 -80 0 -33
1 -76 2 -95 6 -109 0 -324 -11 -330 -7 -5 -8 -10 -1 -14 9 -5 14 -151 14 -349
-1 -32 -10 -86 -21 -120 -11 -34 -21 -87 -23 -117 -1 -30 -5 -60 -9 -65 -5 -6
-4 -17 1 -25 11 -18 100 -21 115 -4 6 7 20 15 32 19 22 6 23 4 19 -47 -2 -29
-4 -61 -5 -70 0 -9 -8 -24 -17 -32 -14 -15 -14 -19 8 -44 29 -34 53 -31 100
11 49 43 59 68 76 182 5 33 16 77 25 98 9 20 14 37 12 37 -2 0 6 11 19 25 13
14 26 25 30 25 15 0 38 31 32 45 -3 8 -1 17 5 21 5 3 9 15 7 27 -2 14 2 22 12
22 11 0 14 14 13 67 -1 45 2 70 12 78 9 8 12 27 9 63 -3 38 1 62 14 89 11 21
22 34 26 31 13 -13 5 24 -10 45 -14 21 -14 25 -1 40 8 10 14 33 13 57 -2 22 1
51 5 65 4 14 10 66 13 115 3 50 7 97 10 105 2 8 8 58 11 110 4 52 9 120 12
150 8 74 7 79 -11 203 -17 114 -35 155 -95 214 -17 18 -31 36 -31 41 0 5 -7
15 -15 22 -8 7 -13 16 -10 20 13 22 -120 81 -146 64 -9 -5 -20 26 -13 37 3 6
0 16 -6 25 -7 8 -14 38 -15 67 -2 28 -6 69 -10 90 -7 37 -8 38 -52 35 -25 -2
-50 -9 -56 -16z"/>
<path d="M2754 7345 c-10 -8 -32 -15 -49 -15 -31 -1 -69 -22 -59 -33 4 -3 -4
-22 -16 -41 -14 -23 -19 -43 -15 -57 6 -17 3 -20 -17 -19 -46 4 -64 -10 -82
-64 -11 -31 -15 -62 -11 -75 5 -18 2 -24 -14 -28 -25 -6 -26 -13 -6 -59 11
-27 13 -60 10 -132 -3 -54 -5 -114 -5 -135 1 -21 -2 -42 -6 -48 -3 -6 -7 -88
-9 -182 -3 -147 -8 -222 -15 -222 -1 0 -3 -27 -5 -60 -2 -33 -8 -80 -14 -105
-5 -25 -11 -86 -12 -136 -2 -111 -17 -204 -35 -225 -17 -19 -18 -36 -1 -46 15
-10 17 -23 23 -163 3 -93 8 -123 27 -160 22 -46 30 -49 82 -36 l26 7 -8 -48
c-4 -26 -7 -66 -6 -88 1 -22 -2 -44 -6 -50 -5 -5 -11 -24 -14 -42 -7 -38 5
-50 60 -59 33 -5 49 -2 76 15 19 11 46 21 61 21 16 0 26 5 26 15 0 8 7 15 15
15 10 0 15 10 15 33 0 18 4 37 9 43 9 9 32 98 29 111 0 5 2 16 5 26 4 9 9 24
12 33 3 8 9 13 14 9 5 -3 12 -1 15 4 4 5 3 12 -2 15 -15 9 -1 66 17 66 12 0
13 2 3 8 -19 13 -24 118 -6 133 10 8 11 15 3 25 -8 9 -5 16 12 24 16 9 19 14
8 20 -10 7 -10 12 -1 23 7 8 12 51 12 108 0 52 7 128 15 169 9 41 16 84 16 94
0 10 7 28 15 40 18 26 18 36 0 36 -8 0 -18 5 -21 10 -11 18 -14 80 -5 111 5
16 5 31 -1 34 -5 3 -6 33 -2 65 4 42 2 60 -6 60 -6 0 -11 9 -11 21 0 11 -6 27
-14 35 -11 11 -14 35 -12 95 2 63 -1 90 -15 120 -11 21 -19 44 -19 52 0 7 -5
18 -11 24 -7 7 -7 13 -1 17 12 7 -3 79 -17 84 -6 2 -11 21 -11 42 0 21 -6 52
-14 70 -10 24 -11 43 -4 68 9 33 6 46 -13 48 -5 1 -13 2 -19 3 -11 1 -14 41
-4 41 4 0 13 -8 20 -17 10 -15 15 -16 25 -5 20 19 39 105 27 120 -7 8 -7 16 1
26 6 8 11 18 10 22 -1 5 -1 11 1 14 12 32 6 60 -15 74 -30 20 -36 20 -61 1z"/>
</g>
</svg>
