<?xml version="1.0" standalone="no"?>
<!DOCTYPE svg PUBLIC "-//W3C//DTD SVG 20010904//EN"
 "http://www.w3.org/TR/2001/REC-SVG-20010904/DTD/svg10.dtd">
<svg version="1.0" xmlns="http://www.w3.org/2000/svg"
 width="1320.000000pt" height="1320.000000pt" viewBox="0 0 1320.000000 1320.000000"
 preserveAspectRatio="xMidYMid meet">
<metadata>
Created by potrace 1.14, written by Peter Selinger 2001-2017
</metadata>
<g transform="translate(0.000000,1320.000000) scale(0.100000,-0.100000)"
fill="#000000" stroke="none">
<path d="M8875 13072 c-22 -1 -47 -5 -55 -8 -29 -11 -291 -16 -485 -10 -22 1
-48 -2 -59 -7 -14 -7 -16 -6 -11 3 6 10 1 11 -21 6 -16 -3 -81 -6 -144 -7
-111 0 -146 -9 -134 -33 3 -6 -2 -2 -11 9 -17 21 -35 24 -160 25 -47 0 -81 -4
-83 -10 -3 -7 -8 -7 -18 0 -16 14 -90 15 -124 2 -14 -5 -34 -6 -45 -2 -22 8
-66 7 -81 -2 -11 -7 -382 -2 -504 7 -47 3 -108 7 -135 8 -28 2 -57 7 -64 12
-9 5 -18 2 -26 -9 -9 -12 -14 -13 -18 -4 -3 9 -24 12 -73 10 -38 -1 -96 -3
-128 -3 -33 0 -68 -5 -79 -11 -14 -7 -18 -7 -12 2 5 8 -2 10 -27 6 -18 -4 -73
-11 -122 -16 -51 -5 -93 -15 -99 -22 -7 -10 -10 -10 -14 0 -8 19 -36 15 -29
-5 6 -15 5 -16 -11 -1 -15 13 -41 14 -163 10 -80 -2 -164 -4 -187 -4 -24 0
-43 -2 -43 -6 0 -4 -29 -7 -65 -7 -36 0 -65 -2 -65 -5 0 -3 -37 -7 -82 -9 -45
-1 -90 -7 -99 -11 -9 -5 -19 -7 -23 -3 -3 3 -42 7 -86 9 -58 2 -80 0 -80 -9 0
-9 -2 -9 -8 0 -10 17 -479 32 -504 17 -4 -3 -8 1 -8 8 0 8 -3 9 -8 3 -4 -6
-85 -10 -207 -10 -122 0 -203 -4 -207 -10 -5 -6 -8 -6 -8 2 0 14 -134 7 -164
-9 -14 -8 -17 -7 -11 3 6 9 3 10 -11 5 -26 -10 -25 -10 -67 -2 -23 5 -42 4
-50 -2 -7 -6 -18 -7 -26 -3 -8 5 -25 5 -40 1 -14 -4 -36 -4 -48 1 -16 6 -23 3
-28 -9 -6 -15 -8 -15 -22 3 -10 13 -17 16 -20 8 -2 -7 -10 -10 -16 -8 -24 9
-108 11 -113 3 -3 -4 -14 -3 -24 2 -14 7 -31 6 -59 -4 -23 -7 -38 -10 -35 -5
7 12 -9 11 -41 -1 -19 -7 -24 -7 -19 1 5 8 -1 10 -19 5 -14 -3 -67 -7 -116 -7
-59 -1 -88 -5 -84 -12 4 -6 1 -7 -6 -3 -20 13 -59 16 -248 16 -121 1 -189 -3
-204 -10 -17 -9 -20 -9 -14 0 5 8 2 10 -11 7 -11 -3 -41 -8 -69 -12 -27 -3
-55 -11 -62 -17 -9 -7 -13 -7 -13 1 0 14 -43 4 -48 -10 -2 -5 -15 -6 -28 -3
-13 3 -32 3 -41 -2 -10 -4 -72 -9 -138 -11 -66 -2 -124 -4 -130 -4 -5 0 -32 2
-58 6 -32 4 -54 2 -63 -6 -11 -9 -14 -9 -14 1 0 7 -8 10 -20 7 -11 -3 -23 -1
-26 4 -3 5 -13 5 -24 -1 -10 -5 -43 -10 -73 -10 -74 0 -118 -10 -110 -24 4 -6
-1 -5 -10 3 -10 8 -20 11 -24 8 -3 -4 -12 1 -19 11 -13 16 -13 16 -14 -1 0
-16 -10 -18 -104 -15 -58 1 -108 0 -111 -4 -4 -3 -19 -2 -35 2 -19 5 -30 5
-33 -3 -2 -6 -9 -7 -17 -2 -21 13 -160 12 -207 -2 -30 -8 -43 -9 -45 -1 -5 15
-48 18 -72 6 -10 -6 -16 -6 -13 -1 3 5 -43 8 -106 6 -82 -1 -111 -5 -109 -14
2 -9 -1 -9 -10 -2 -11 8 -73 11 -73 3 0 -3 -47 -10 -68 -11 -9 0 -16 -3 -13
-7 2 -4 -10 -7 -27 -8 -87 -2 -167 -9 -167 -14 0 -10 -54 -6 -62 4 -4 6 -12 5
-21 -3 -9 -6 -35 -11 -59 -10 -54 2 -108 -8 -127 -24 -8 -7 -23 -11 -34 -9
-13 3 -18 -1 -14 -10 2 -7 10 -12 16 -10 8 1 7 -4 -1 -18 -11 -17 -10 -22 2
-31 11 -8 12 -12 3 -16 -22 -8 -14 -43 13 -55 17 -8 24 -18 21 -29 -3 -10 1
-20 8 -22 7 -3 13 -27 14 -59 2 -85 11 -149 22 -169 8 -16 6 -19 -13 -20 -18
-1 -19 -2 -5 -6 14 -4 17 -11 13 -29 -4 -13 -3 -24 1 -24 9 0 7 -112 -2 -173
-3 -25 -2 -36 5 -32 7 4 7 -2 1 -18 -5 -13 -11 -65 -13 -114 -1 -50 -6 -89
-10 -86 -14 8 -8 -8 8 -25 11 -10 13 -17 5 -20 -7 -2 -8 -9 -2 -21 12 -21 20
-140 11 -146 -4 -2 -4 -25 0 -49 4 -25 3 -43 0 -41 -4 3 -7 -30 -7 -73 0 -42
-3 -113 -7 -157 -10 -107 -10 -190 -1 -205 5 -9 4 -11 -3 -6 -14 8 -14 3 -3
-46 5 -21 5 -38 1 -38 -4 0 -7 -43 -6 -95 0 -52 -2 -95 -5 -95 -3 0 -6 -36 -7
-80 0 -55 3 -80 11 -80 9 0 9 -2 1 -8 -6 -4 -14 -57 -19 -122 -4 -63 -8 -129
-10 -146 -1 -17 0 -37 4 -43 4 -6 4 -37 -1 -69 -5 -31 -11 -83 -13 -114 -3
-32 -9 -68 -14 -82 -6 -13 -7 -27 -4 -30 8 -7 10 -195 2 -190 -6 3 -10 -38
-12 -133 -1 -28 -5 -49 -9 -46 -11 6 -10 -5 3 -29 14 -27 17 -140 3 -154 -6
-7 -11 -53 -12 -104 0 -54 -6 -97 -13 -106 -10 -12 -7 -17 11 -16 3 0 5 -17 5
-38 0 -21 -3 -36 -7 -34 -9 6 -15 -116 -7 -148 4 -16 5 -28 1 -28 -10 0 -5
-506 4 -522 9 -14 11 -68 3 -68 -3 0 -6 -21 -6 -47 -1 -27 -4 -67 -7 -90 -3
-24 0 -55 6 -70 6 -16 13 -35 16 -43 7 -22 6 -97 -2 -165 -4 -33 -9 -69 -10
-81 -1 -11 -6 -26 -10 -33 -5 -7 0 -21 13 -35 12 -12 18 -26 14 -29 -3 -4 -5
-57 -4 -117 2 -79 -1 -110 -9 -110 -8 0 -9 -7 -5 -17 9 -23 10 -247 1 -262 -4
-6 -4 -16 0 -22 3 -6 8 -52 10 -101 2 -49 7 -94 10 -99 3 -6 0 -17 -7 -25 -10
-12 -10 -17 -1 -23 11 -6 26 -73 24 -106 0 -5 -2 -63 -4 -127 -2 -65 -6 -118
-9 -118 -11 0 -10 -172 1 -185 8 -9 8 -15 0 -20 -12 -8 -13 -75 -1 -94 6 -10
5 -23 -2 -35 -15 -29 -18 -78 -3 -69 7 5 7 2 -1 -8 -7 -8 -12 -24 -12 -34 -1
-11 -2 -39 -3 -63 -2 -23 0 -43 4 -45 3 -1 1 -18 -6 -38 -10 -27 -10 -43 -1
-70 7 -19 9 -48 4 -66 -4 -18 -4 -33 0 -33 3 0 1 -4 -4 -8 -7 -4 -9 -38 -5
-89 3 -45 1 -79 -4 -76 -5 3 -7 -11 -4 -31 2 -20 1 -36 -3 -36 -4 0 -7 -31 -6
-69 1 -38 -1 -67 -5 -65 -8 5 2 -65 12 -85 4 -7 4 -29 0 -47 -4 -19 -4 -37 1
-40 5 -2 3 -14 -3 -24 -9 -14 -10 -29 -2 -59 6 -22 7 -38 3 -35 -5 3 -10 -15
-11 -40 -1 -25 -2 -54 -2 -63 -1 -10 -7 -24 -14 -31 -14 -15 -6 -36 10 -26 6
4 5 -2 -2 -15 -12 -23 -5 -65 10 -56 4 3 4 -12 0 -33 -5 -20 -7 -48 -6 -62 1
-14 -2 -33 -6 -43 -5 -10 -5 -32 1 -52 6 -21 6 -35 0 -35 -12 0 -12 -42 0 -73
7 -17 5 -32 -4 -50 -7 -14 -10 -29 -7 -32 7 -7 12 -41 12 -83 0 -13 5 -20 10
-17 11 7 2 -23 -13 -42 -5 -7 -7 -24 -5 -38 3 -14 2 -25 -1 -25 -9 0 -6 -214
4 -229 5 -9 4 -12 -2 -8 -15 9 -24 -56 -13 -93 5 -16 5 -30 2 -30 -4 0 -7 -30
-6 -67 1 -38 -2 -77 -6 -88 -4 -12 0 -42 11 -72 15 -43 31 -170 31 -243 0 -88
-6 -161 -13 -166 -5 -3 -9 -10 -9 -15 0 -6 4 -7 10 -4 6 4 11 -9 11 -32 1 -21
3 -56 5 -78 8 -104 8 -135 2 -138 -4 -1 -3 -19 3 -40 5 -20 7 -42 4 -48 -4 -5
-2 -16 5 -24 6 -7 7 -16 2 -19 -5 -3 -8 -18 -5 -33 16 -120 17 -136 8 -170 -3
-13 -1 -23 5 -23 6 0 9 -4 6 -8 -7 -12 -8 -85 -1 -177 19 -263 21 -327 11
-393 -4 -24 -2 -59 3 -78 5 -19 6 -34 1 -34 -4 0 -7 -18 -7 -40 1 -22 4 -40 8
-40 10 0 8 -252 -2 -273 -9 -15 -8 -18 2 -12 8 6 10 4 3 -6 -10 -17 -11 -44
-3 -86 4 -19 3 -30 -2 -27 -11 6 -11 2 0 -53 5 -24 5 -43 0 -43 -5 0 -13 -9
-19 -21 -9 -16 -8 -28 5 -55 11 -24 13 -39 7 -47 -7 -8 -7 -30 -1 -62 5 -28 7
-97 3 -155 -4 -58 -6 -137 -6 -177 1 -40 -3 -75 -8 -78 -15 -9 -11 -77 5 -99
8 -11 12 -30 9 -46 -3 -15 -1 -43 4 -63 6 -20 7 -37 3 -39 -3 -2 -2 -68 3
-147 6 -89 6 -149 0 -160 -15 -26 -12 -137 4 -133 8 1 11 -2 7 -8 -11 -17 5
-50 21 -43 7 3 14 0 14 -6 0 -6 5 -11 10 -11 6 0 30 -9 52 -20 52 -25 58 -25
58 0 0 19 2 20 28 6 16 -8 38 -13 49 -10 13 4 22 0 26 -10 4 -9 11 -16 18 -16
6 0 9 7 5 15 -4 10 1 15 14 15 11 0 20 4 20 8 0 5 12 14 26 20 14 7 23 8 19 2
-7 -11 17 -12 92 -1 29 4 50 4 47 -1 -3 -4 0 -8 5 -8 6 0 11 4 11 10 0 5 7 6
17 3 9 -4 14 -2 10 3 -3 5 3 10 13 10 10 0 16 -4 14 -8 -6 -9 62 -22 80 -15 8
3 17 1 19 -6 3 -9 7 -9 17 0 7 6 19 9 28 5 11 -4 14 -1 9 11 -4 11 -1 17 8 17
8 0 14 -3 14 -7 -4 -22 4 -28 39 -27 20 1 42 2 47 4 6 1 26 2 45 2 19 0 40 4
46 9 8 6 14 4 17 -5 5 -12 12 -13 37 -5 17 6 39 9 50 6 11 -3 22 -1 25 3 5 9
20 7 48 -5 9 -4 24 -4 33 -1 8 3 13 2 10 -2 -2 -4 32 -7 75 -6 52 0 83 -4 90
-12 7 -8 19 -10 40 -4 17 5 29 5 29 -1 0 -5 11 -7 25 -3 16 4 25 2 25 -6 0 -7
9 -2 20 11 10 13 19 20 20 14 0 -11 122 -11 140 0 5 3 10 1 10 -5 0 -7 6 -8
18 -1 11 6 23 6 28 1 5 -5 37 -11 71 -14 33 -3 74 -8 89 -12 15 -4 25 -3 21 2
-3 5 45 9 111 8 65 0 127 4 139 9 16 7 27 6 37 -2 15 -12 40 -6 32 7 -2 4 27
5 66 2 38 -3 75 -2 81 3 7 4 46 7 88 6 42 -1 82 2 89 6 8 5 11 4 6 -3 -3 -6
-2 -13 3 -16 5 -4 12 -2 16 3 3 5 15 8 28 5 46 -9 187 -11 187 -1 0 5 10 2 23
-6 14 -9 29 -12 37 -7 7 4 19 6 27 3 7 -3 13 -1 13 3 0 8 47 10 75 4 35 -7
147 -1 160 10 12 10 15 10 15 0 0 -9 25 -11 105 -7 62 3 105 1 105 -5 0 -5 6
-6 12 -1 16 9 98 12 98 3 0 -4 11 -7 25 -7 15 0 22 4 18 10 -4 7 0 8 13 2 30
-13 98 -14 106 -2 6 9 8 9 8 0 0 -8 30 -12 103 -13 56 0 165 -2 242 -5 77 -3
149 -5 160 -5 73 0 99 -4 107 -15 5 -6 18 -6 38 2 16 6 30 7 30 3 0 -5 23 -8
51 -6 28 1 53 -2 55 -6 7 -12 126 -7 142 5 7 6 12 6 11 1 -4 -21 2 -24 17 -9
13 12 19 13 24 4 5 -6 13 -8 21 -4 16 10 249 12 249 3 0 -13 38 -9 43 5 3 9 7
9 18 1 22 -18 139 -25 146 -8 2 7 11 10 19 7 8 -3 11 -9 8 -14 -8 -13 20 -11
34 3 9 9 12 9 12 0 0 -16 27 -15 33 1 3 6 6 4 6 -7 1 -19 1 -19 22 0 16 15 24
16 39 6 17 -10 18 -9 13 6 -7 16 -5 16 18 1 19 -13 27 -14 36 -4 8 9 24 10 52
5 23 -4 41 -3 41 1 0 5 19 9 43 8 23 0 49 0 57 1 8 0 36 -1 62 -4 26 -3 50 -1
53 5 4 5 12 6 18 2 16 -10 57 -12 62 -2 3 4 18 4 33 0 15 -5 49 -8 74 -7 25 0
44 -2 41 -6 -2 -5 0 -8 6 -8 5 0 12 4 16 10 3 5 13 6 22 3 11 -5 14 -3 8 6 -5
10 -3 11 11 4 11 -5 69 -9 129 -8 61 2 115 -2 122 -7 7 -5 13 -5 17 0 3 5 29
8 58 7 29 -2 59 2 66 7 8 7 12 7 12 0 0 -5 20 -12 45 -14 25 -2 45 0 45 4 0 4
15 2 32 -3 41 -11 41 -11 32 2 -4 8 -1 8 12 1 11 -5 61 -10 112 -11 52 -1 101
-5 109 -8 12 -5 14 -3 8 6 -6 10 -3 11 14 2 16 -9 26 -9 42 0 13 7 19 7 15 1
-9 -15 14 -26 27 -13 17 17 37 13 30 -6 -5 -14 -3 -15 7 -6 7 6 19 9 26 6 8
-3 21 0 28 6 10 9 16 9 21 1 5 -8 11 -8 20 0 8 6 44 11 82 10 37 0 91 1 120 3
28 1 50 0 48 -4 -3 -3 24 -4 59 -2 41 2 76 -2 99 -12 42 -17 71 -20 62 -5 -3
5 0 8 7 5 30 -9 98 -14 93 -6 -6 11 14 9 32 -2 6 -4 28 3 49 15 21 12 35 17
31 11 -9 -15 36 -22 79 -13 19 5 32 4 28 -1 -8 -13 63 -11 88 2 15 8 19 8 14
0 -4 -6 -2 -11 3 -11 6 0 11 4 11 9 0 5 13 11 29 13 18 3 27 0 24 -5 -3 -6 7
-8 26 -5 18 3 34 0 38 -5 3 -5 9 -3 14 4 8 12 10 12 18 0 6 -9 15 -11 27 -6
28 12 45 14 39 5 -2 -4 6 -7 20 -7 14 0 22 3 19 8 -3 5 -1 9 5 9 5 0 13 -5 17
-11 3 -6 15 -9 25 -6 10 3 18 2 17 -2 -2 -18 5 -18 40 -1 20 10 42 15 47 10
13 -10 65 -19 65 -11 0 3 24 6 52 7 29 0 71 3 92 7 22 3 47 0 57 -6 13 -8 24
-8 42 0 19 9 27 8 40 -4 9 -10 20 -12 29 -7 7 5 21 7 32 5 10 -1 15 2 12 7 -4
6 2 8 14 5 12 -3 20 0 20 8 0 8 5 6 13 -5 15 -21 50 -26 85 -14 13 4 21 4 18
-1 -9 -13 29 -20 49 -8 13 7 16 6 11 -2 -4 -6 -2 -11 3 -11 6 0 11 4 11 8 0
10 80 5 127 -8 22 -5 33 -4 37 3 3 9 6 9 13 0 6 -8 17 -8 46 2 23 8 37 9 37 3
0 -13 79 -1 98 14 10 9 12 8 10 -2 -2 -10 12 -15 57 -17 110 -5 190 -12 214
-19 15 -5 22 -3 18 3 -4 6 7 9 29 7 28 -2 34 1 30 12 -4 10 -2 12 6 8 17 -11
98 -6 131 8 21 8 31 8 36 0 3 -6 18 -12 31 -14 14 -2 35 -9 47 -16 25 -14 36
-15 29 -4 -3 5 9 6 25 4 17 -3 41 1 54 8 14 7 31 9 42 5 40 -17 98 -12 87 7
-4 6 3 5 15 -1 12 -7 26 -9 31 -6 5 3 12 1 15 -5 5 -8 11 -7 22 1 12 10 16 10
23 0 4 -8 13 -10 19 -7 6 4 8 13 4 19 -4 8 -1 7 9 -1 10 -8 26 -10 42 -6 16 4
26 2 26 -5 0 -7 9 -9 23 -6 12 3 32 7 45 8 12 0 22 4 22 8 0 4 7 9 15 13 8 3
14 0 12 -6 -3 -18 29 -21 46 -3 14 14 16 13 23 -7 6 -21 7 -21 18 -2 6 10 17
20 24 22 8 1 11 -2 8 -7 -4 -5 -2 -12 4 -16 6 -3 13 1 16 10 6 14 9 14 31 -1
14 -8 34 -14 44 -11 10 3 21 2 23 -2 3 -4 20 -6 38 -5 18 1 39 -2 45 -8 7 -6
13 -6 13 -1 0 10 24 14 100 14 30 0 80 1 110 2 30 0 80 1 110 1 30 1 58 5 62
11 5 6 12 5 20 -3 6 -6 17 -12 23 -12 5 0 3 5 -5 10 -13 8 -13 10 2 10 9 0 19
-4 23 -10 3 -5 12 -7 20 -3 8 3 15 1 15 -5 0 -6 16 -6 41 -2 22 4 49 5 60 3
11 -3 33 0 49 7 24 10 33 10 45 0 9 -8 15 -8 15 -2 0 15 50 8 61 -9 7 -12 9
-12 9 0 0 11 3 11 17 0 12 -11 17 -11 20 -2 3 8 12 9 26 4 12 -5 34 -8 49 -7
14 1 25 -1 23 -4 -2 -3 17 -12 43 -20 34 -10 47 -10 50 -2 2 7 10 12 18 12 9
0 13 -4 10 -9 -4 -5 2 -7 13 -4 10 3 22 0 25 -6 10 -15 29 -14 23 2 -4 10 16
13 92 11 53 0 103 -4 112 -8 10 -4 20 -2 24 4 6 9 9 9 15 -1 9 -14 100 -21
100 -8 0 5 16 7 35 5 19 -3 48 -1 64 4 18 5 33 4 40 -3 6 -6 50 -11 103 -11
70 0 96 -3 104 -14 14 -19 73 -1 94 29 8 12 23 30 33 39 10 10 17 28 15 41 -2
13 1 25 6 26 20 3 27 33 12 49 -9 8 -16 25 -16 36 0 17 2 18 15 8 17 -14 17
-14 20 20 1 14 -3 33 -10 44 -10 14 -11 24 -3 42 6 13 14 24 17 24 3 0 7 12 8
27 4 55 5 88 4 108 -1 11 1 34 5 50 3 17 7 83 9 147 3 91 7 122 22 144 18 27
17 28 -5 22 -14 -4 -20 -2 -15 5 10 16 20 147 11 147 -5 0 -4 9 2 19 13 24 13
54 1 46 -6 -3 -7 6 -2 22 4 16 7 45 7 65 -1 23 4 40 12 43 7 3 10 10 6 17 -7
11 -16 189 -14 283 0 28 1 55 1 60 0 23 -8 63 -16 75 -5 9 -4 11 3 6 16 -9 15
9 0 34 -11 17 -10 22 0 28 16 11 19 125 3 130 -9 3 -9 7 0 18 7 8 9 17 6 21
-4 3 -2 14 4 25 13 24 18 458 5 458 -5 0 -3 7 4 15 6 8 8 20 4 26 -4 7 -3 9 4
5 15 -9 20 142 5 171 -8 15 -8 23 -1 23 5 0 8 7 5 15 -4 8 -2 17 4 21 6 4 6
11 -2 20 -9 11 -9 18 -2 25 7 7 8 22 3 40 -5 18 -5 29 1 29 5 0 8 32 7 75 -2
41 0 75 3 75 8 0 5 233 -4 247 -4 6 -3 14 1 17 9 5 6 399 -3 423 -2 6 1 13 7
15 7 3 8 9 3 19 -5 8 -10 23 -10 34 0 11 -4 26 -8 33 -5 7 -4 12 3 12 13 0 4
309 -10 325 -5 6 -8 37 -6 68 2 31 -1 57 -6 57 -5 0 -6 5 -2 12 9 15 5 134 -6
163 -5 13 -5 26 0 31 11 11 14 97 5 144 -9 48 -12 197 -4 243 4 20 3 40 -1 42
-5 3 -7 48 -5 100 1 52 -1 114 -6 139 -4 24 -4 58 0 74 10 33 -4 183 -18 211
-11 19 -19 147 -10 155 3 4 2 27 -2 54 -10 62 -11 84 -1 79 4 -3 8 28 9 69 0
41 -3 72 -8 68 -5 -3 -6 2 -3 11 4 9 13 14 20 11 8 -3 14 -1 14 5 0 5 -7 12
-15 15 -8 4 -15 10 -15 15 0 5 7 9 15 9 13 0 17 6 14 26 0 4 5 11 13 15 8 6 9
12 3 17 -12 8 -14 62 -3 62 3 0 4 9 1 20 -3 11 -2 28 2 37 10 24 6 155 -5 168
-5 6 -5 17 0 25 6 9 4 20 -3 29 -9 12 -9 13 1 7 8 -5 12 1 12 18 0 14 -6 26
-12 26 -9 0 -9 3 -2 8 12 8 14 52 2 52 -5 0 -3 10 4 23 14 25 11 89 -4 98 -6
4 -8 21 -4 43 4 21 11 34 17 30 14 -8 9 89 -7 141 -10 33 -9 44 4 67 13 22 13
29 3 42 -7 9 -17 14 -20 11 -4 -2 -8 2 -8 10 0 8 4 12 8 9 12 -7 18 24 24 125
3 51 7 96 9 100 2 3 7 44 10 90 3 45 8 87 11 91 11 17 12 110 3 110 -7 0 -7 4
-1 13 13 16 26 70 16 64 -5 -3 -8 13 -8 36 0 23 -4 56 -10 74 -9 27 -13 30
-30 20 -17 -9 -18 -9 -7 5 7 8 10 23 6 32 -4 12 -2 15 9 11 19 -8 22 5 26 90
2 39 7 78 12 87 7 12 4 20 -8 27 -10 6 -14 11 -10 11 4 0 3 9 -3 19 -7 14 -6
21 3 25 8 4 9 8 1 11 -8 4 -7 23 3 66 14 61 11 85 -10 72 -8 -4 -8 -2 1 9 8
11 10 32 6 69 -3 30 -2 71 4 92 6 21 7 39 1 42 -5 3 -8 16 -8 28 2 67 -4 144
-13 161 -7 13 -7 16 1 12 7 -5 11 3 11 19 0 18 -4 24 -12 19 -9 -5 -9 -3 1 9
7 9 11 28 9 42 -3 14 -1 25 4 25 5 0 7 3 5 8 -5 7 -17 408 -18 622 -1 70 4
137 10 153 7 17 7 26 1 22 -6 -4 -10 20 -10 64 0 38 -4 72 -9 76 -11 6 -6 149
7 216 5 25 5 55 1 68 -6 14 -5 20 1 16 13 -8 13 11 0 36 -8 13 -7 19 0 19 7 0
9 8 4 22 -10 33 -6 190 6 202 15 15 12 39 -4 33 -14 -6 -14 19 -1 85 2 10 0
20 -5 23 -4 3 -4 24 2 47 12 55 16 338 4 338 -5 0 -3 7 4 15 14 17 15 120 2
156 -7 16 -6 31 0 43 5 9 7 24 4 32 -3 9 -1 12 4 9 13 -8 15 15 7 117 -2 26 0
45 4 43 4 -3 7 5 6 18 0 12 4 31 8 41 6 15 5 18 -6 14 -11 -4 -14 6 -14 46 0
28 3 54 8 57 11 8 11 69 0 98 -6 15 -6 43 -1 69 4 25 9 73 10 108 2 34 7 60
12 56 5 -3 7 2 3 10 -5 14 -1 42 18 126 4 16 2 21 -6 16 -8 -5 -10 11 -7 60 2
42 0 66 -7 66 -5 0 -4 4 3 9 9 5 13 26 12 57 -4 148 -3 223 4 254 8 39 8 145
0 173 -3 10 -1 24 5 30 5 7 8 22 7 32 -2 11 0 25 5 31 9 11 8 74 -1 74 -3 0
-11 14 -19 30 -14 32 -8 66 9 55 5 -3 10 3 10 14 0 12 -4 21 -8 21 -5 0 -7 13
-4 29 3 20 -2 32 -16 42 -16 11 -17 16 -7 26 7 6 16 9 19 6 3 -4 6 3 6 15 0
12 5 22 10 22 7 0 7 7 0 20 -8 14 -17 19 -29 15 -13 -4 -20 1 -25 17 -9 35 -7
78 4 78 20 0 9 20 -20 35 -33 17 -54 20 -45 6 5 -9 -13 -18 -53 -26 -11 -2
-23 3 -26 11 -7 17 -46 19 -46 2 0 -9 -3 -9 -9 1 -5 8 -16 11 -24 8 -8 -3 -20
0 -26 6 -9 9 -14 8 -21 -3 -8 -13 -10 -12 -10 3 0 17 -9 17 -72 0 -10 -2 -23
-1 -29 3 -19 11 -93 13 -106 2 -9 -7 -13 -7 -13 0 0 15 -45 23 -152 28 -51 2
-115 5 -143 7 -27 3 -60 0 -72 -4 -13 -5 -25 -4 -29 2 -4 7 -10 7 -18 0 -9 -7
-19 -6 -34 5 -12 8 -26 12 -32 9 -5 -3 -56 -1 -112 6 -132 16 -218 18 -242 6
-13 -6 -16 -6 -12 2 7 10 -7 16 -28 12 -31 -6 -364 -4 -374 3 -7 4 -12 3 -12
-1 0 -5 -35 -9 -77 -10 -43 -1 -91 -2 -108 -3 -16 -1 -39 1 -50 3 -11 3 -45 8
-75 12 -30 4 -59 11 -65 15 -15 12 -48 16 -62 7 -8 -5 -13 -3 -13 4 0 8 -5 7
-17 -2 -9 -8 -14 -9 -10 -3 4 7 0 17 -7 23 -10 8 -16 9 -21 1 -3 -6 -11 -8
-16 -5 -5 4 -9 1 -9 -6 0 -9 -4 -8 -15 1 -11 9 -22 9 -45 1 -18 -6 -28 -6 -25
-1 6 10 -17 13 -115 12 -84 0 -92 -1 -84 -13 4 -7 -1 -7 -16 1 -18 10 -24 9
-31 -1 -5 -8 -9 -9 -9 -3 0 6 -24 10 -59 10 -33 -1 -57 -4 -54 -8 2 -5 -7 -4
-20 1 -14 6 -28 7 -31 4 -8 -8 -69 -8 -91 1 -10 3 -23 2 -30 -4 -9 -8 -14 -6
-19 5 -3 9 -10 13 -16 10 -6 -4 -7 -11 -4 -17 5 -7 2 -8 -7 -2 -19 12 -308 14
-315 2 -3 -5 -11 -5 -19 2 -9 8 -15 8 -20 0 -3 -6 -11 -7 -18 -3 -6 3 -32 8
-58 10 -26 1 -51 3 -56 4 -12 3 -85 -11 -111 -22 -15 -6 -21 -6 -17 1 3 5 0
11 -7 11 -18 2 -21 1 -42 -7 -12 -5 -17 -4 -13 3 4 6 -3 11 -18 11 -14 0 -25
-3 -25 -7 0 -3 -14 -6 -31 -7 -23 -1 -29 2 -24 14 4 12 3 12 -9 3 -7 -6 -22
-8 -31 -4 -15 5 -17 3 -12 -13 7 -18 7 -18 -7 0 -13 16 -32 18 -178 20 -90 0
-181 0 -203 -2z m-69 -584 c5 -7 3 -8 -6 -3 -9 5 -11 4 -6 -3 4 -6 20 -10 37
-8 18 2 36 -3 46 -13 16 -15 16 -15 10 1 -5 14 -2 17 16 14 12 -1 36 0 54 5
25 5 35 3 42 -8 6 -11 10 -12 15 -4 5 8 13 8 29 -1 12 -6 24 -12 27 -12 3 -1
4 -4 3 -8 -2 -4 4 -5 12 -2 8 4 12 10 9 15 -6 11 20 12 30 2 12 -13 126 -11
119 1 -4 6 0 5 9 -2 9 -7 18 -9 21 -5 6 9 107 10 122 1 9 -5 137 -3 143 2 3 3
41 3 45 0 6 -6 65 -5 61 1 -2 4 14 9 37 11 22 2 43 0 46 -5 3 -5 10 -6 17 -4
42 16 58 18 52 8 -11 -17 5 -13 27 7 15 12 18 13 12 2 -6 -12 -5 -13 6 -2 15
14 33 16 24 3 -3 -5 0 -13 6 -17 7 -4 9 -3 6 3 -4 6 1 14 10 17 9 4 20 1 25
-6 4 -8 8 -8 8 -2 0 6 7 11 15 11 8 0 15 -5 15 -11 0 -6 5 -3 11 7 14 23 29
22 24 -3 -2 -13 0 -18 7 -14 17 11 52 10 60 -1 5 -6 11 -6 19 2 7 7 18 9 28 4
9 -5 28 -8 44 -6 15 2 27 -1 27 -6 0 -6 6 -7 13 -2 6 4 19 8 27 8 8 0 21 4 28
8 7 5 12 4 12 -3 0 -6 5 -8 10 -5 6 3 10 2 10 -3 0 -6 7 -13 16 -16 8 -3 12
-2 9 4 -3 6 1 10 10 10 9 0 14 -4 11 -9 -4 -5 2 -8 11 -6 10 2 18 4 18 6 0 1
10 3 23 4 12 1 22 -2 22 -7 0 -5 9 -7 19 -3 11 3 22 2 25 -4 7 -11 25 -9 45 3
10 7 12 6 6 -4 -6 -10 -4 -11 6 -4 20 12 38 14 44 4 3 -5 18 -5 35 0 21 6 32
4 41 -6 8 -10 16 -11 29 -4 25 13 33 13 24 -2 -6 -10 -4 -10 7 -3 8 6 37 10
64 10 28 -1 53 3 58 9 5 7 11 5 18 -7 7 -12 15 -15 27 -9 15 7 37 8 45 2 1 -1
12 -3 24 -4 17 -2 20 0 12 10 -7 9 0 12 30 11 22 -1 38 -4 36 -7 -2 -4 17 -7
43 -8 95 -3 121 -6 116 -13 -2 -4 16 -6 41 -4 25 2 43 -1 39 -6 -8 -14 3 -10
20 7 9 8 21 12 28 8 7 -4 23 -9 37 -10 13 -2 28 -9 32 -16 7 -10 9 -8 9 5 0
15 5 17 23 11 12 -4 32 -8 45 -8 14 0 21 -5 18 -13 -3 -7 -1 -13 3 -13 5 0 12
7 15 16 3 9 12 14 19 11 6 -2 21 0 31 6 16 8 18 6 12 -8 -5 -15 -4 -16 8 -6
16 13 40 6 31 -9 -3 -5 -1 -11 4 -14 5 -4 13 -2 16 4 5 8 12 7 23 -2 12 -10
14 -10 8 0 -4 6 -2 12 3 12 6 0 10 3 10 8 -5 27 1 34 18 21 15 -12 16 -12 8 1
-8 13 -7 13 8 1 9 -7 17 -10 17 -6 0 4 8 1 17 -6 11 -10 14 -10 9 -1 -9 15 -1
15 25 1 11 -5 17 -14 14 -19 -3 -6 1 -7 9 -4 9 3 14 10 11 14 -6 10 15 7 34
-4 11 -7 12 -6 6 5 -7 12 -6 12 7 1 8 -7 23 -10 32 -6 13 5 15 2 9 -12 -6 -16
-4 -17 9 -7 8 7 18 10 21 6 4 -3 7 0 7 8 1 12 3 11 13 -1 12 -16 82 -25 72
-10 -3 4 3 7 12 5 10 -2 18 -4 18 -5 0 -1 21 -3 47 -4 25 0 50 -5 55 -10 5 -5
2 -6 -6 -1 -10 6 -12 4 -7 -4 6 -9 11 -9 22 0 11 9 18 9 26 1 15 -15 31 -16
23 -2 -10 16 18 7 33 -10 8 -8 11 -10 8 -4 -3 7 4 12 19 12 14 0 23 -4 20 -8
-2 -4 15 -8 38 -8 111 -4 126 -6 121 -14 -3 -4 0 -8 7 -8 9 0 9 -4 -1 -15 -6
-8 -8 -20 -4 -27 14 -22 15 -50 2 -42 -7 5 -8 3 -2 -7 5 -8 9 -41 9 -74 0 -33
3 -65 7 -70 6 -10 5 -34 -5 -80 -3 -11 0 -26 6 -32 5 -7 7 -13 3 -13 -4 0 1
-14 10 -31 14 -29 14 -31 0 -26 -8 3 -18 2 -21 -3 -4 -6 -2 -10 2 -10 5 0 9
-9 10 -20 1 -11 -2 -18 -6 -16 -10 6 -8 -36 3 -53 7 -10 5 -12 -5 -6 -11 6
-12 5 -2 -5 9 -10 10 -17 2 -27 -7 -7 -7 -13 -2 -13 5 0 10 -7 10 -15 0 -8 -4
-15 -8 -15 -9 0 -7 -20 4 -37 4 -6 2 -15 -3 -18 -8 -5 -7 -12 2 -23 8 -10 13
-27 12 -39 0 -13 3 -23 7 -23 5 0 8 -3 8 -7 -1 -5 0 -10 1 -13 9 -24 9 -65 -2
-78 -11 -13 -11 -14 1 -7 11 6 12 5 5 -6 -5 -8 -9 -57 -9 -109 -1 -53 -4 -101
-8 -107 -4 -6 -3 -23 3 -37 6 -16 6 -27 0 -31 -6 -4 -10 -11 -10 -16 0 -6 4
-8 8 -5 5 3 9 -1 9 -9 0 -8 -3 -15 -7 -15 -3 0 -6 -9 -6 -20 0 -11 4 -20 8
-20 5 0 5 -8 0 -17 -7 -15 -8 -97 -1 -113 1 -3 3 -32 4 -65 1 -33 5 -71 9 -85
3 -14 1 -27 -7 -32 -6 -4 -7 -8 -2 -8 7 0 11 -24 10 -60 0 -33 2 -60 5 -60 3
0 5 -24 5 -52 -1 -29 3 -56 9 -60 8 -6 7 -11 -3 -17 -10 -7 -11 -13 -1 -31 10
-18 10 -21 -2 -14 -11 6 -11 5 1 -9 11 -14 11 -17 0 -17 -9 0 -10 -3 -4 -8 6
-4 10 -23 10 -42 -1 -19 3 -43 8 -54 7 -13 6 -16 -3 -11 -9 5 -10 2 -3 -11 5
-11 8 -44 8 -74 -1 -30 1 -59 4 -65 3 -5 7 -46 7 -90 2 -85 4 -102 18 -124 5
-7 5 -16 -1 -20 -11 -8 -11 -131 1 -149 5 -8 4 -18 -3 -25 -13 -13 -15 -40 -1
-32 5 3 8 -7 7 -25 -1 -16 -6 -30 -12 -30 -6 0 -6 -3 0 -8 6 -4 11 -38 12 -77
5 -191 9 -241 17 -246 5 -4 5 -13 0 -20 -10 -16 -13 -50 -4 -44 3 2 6 -20 7
-48 0 -29 3 -62 6 -74 3 -13 2 -25 -3 -28 -4 -3 -7 -13 -5 -23 1 -9 -2 -25 -6
-34 -5 -9 -5 -19 -1 -22 4 -2 7 -38 7 -78 0 -40 4 -76 10 -80 7 -5 7 -8 -1 -8
-7 0 -10 -26 -9 -70 1 -39 -2 -70 -8 -70 -6 0 -6 -5 0 -12 5 -7 9 -69 8 -138
-1 -69 3 -133 8 -144 7 -14 6 -16 -4 -11 -8 6 -10 4 -3 -6 11 -19 14 -39 5
-39 -4 0 -7 -31 -7 -70 1 -38 5 -70 9 -70 4 0 3 -9 -3 -20 -6 -11 -8 -25 -5
-30 3 -6 2 -10 -3 -10 -5 0 -9 -7 -9 -15 0 -8 3 -15 7 -15 4 0 7 -13 7 -30 0
-16 -4 -30 -7 -30 -4 0 -7 -11 -7 -25 0 -13 3 -22 8 -19 13 8 11 -10 -3 -25
-11 -11 -10 -12 2 -6 13 8 13 7 1 -9 -10 -11 -11 -20 -4 -24 11 -7 14 -42 3
-42 -3 0 -5 -26 -5 -57 1 -32 -3 -64 -9 -72 -8 -11 -8 -13 2 -7 6 4 12 3 12
-1 0 -5 -6 -15 -12 -22 -11 -11 -10 -12 1 -6 10 6 12 4 5 -6 -9 -15 -12 -49
-17 -166 -1 -39 -5 -75 -9 -79 -4 -4 -4 -12 -1 -18 11 -17 12 -35 2 -42 -5 -3
-9 -10 -9 -15 0 -6 4 -8 9 -5 12 8 8 -57 -4 -66 -6 -5 -6 -8 2 -8 6 0 10 -8 8
-17 -1 -10 3 -24 9 -32 9 -12 8 -13 -3 -6 -10 6 -12 4 -6 -5 15 -25 25 -311
11 -302 -7 4 -7 1 0 -9 10 -13 10 -26 1 -106 -2 -18 1 -33 6 -33 5 0 3 -8 -4
-17 -12 -15 -12 -16 1 -8 12 7 13 6 4 -6 -5 -8 -9 -27 -9 -44 1 -16 -1 -34 -4
-40 -7 -13 -9 -307 -2 -320 10 -18 8 -50 -3 -57 -8 -6 -8 -8 1 -8 6 0 10 -9 8
-20 -2 -11 0 -20 4 -20 4 0 7 -15 6 -32 -2 -18 2 -38 7 -45 6 -7 5 -14 -2 -18
-8 -5 -7 -11 2 -23 11 -13 11 -14 -2 -7 -13 7 -13 6 -2 -7 8 -10 10 -26 6 -44
-4 -15 -3 -25 2 -21 12 7 11 -83 0 -102 -7 -11 -6 -12 5 -6 11 7 12 6 2 -7 -7
-8 -11 -17 -8 -20 3 -2 6 -43 8 -91 3 -60 0 -84 -7 -80 -6 3 -5 0 1 -7 9 -10
9 -17 2 -26 -7 -9 -7 -19 0 -32 6 -11 8 -22 5 -24 -8 -9 -13 -49 -5 -44 4 3 8
-10 8 -29 0 -20 -4 -32 -10 -28 -6 4 -7 1 -1 -8 12 -20 14 -39 3 -39 -6 0 -7
-5 -3 -12 12 -19 11 -141 0 -157 -9 -12 -8 -13 4 -6 13 8 13 7 1 -8 -9 -12
-10 -17 -2 -17 7 0 9 -5 5 -12 -12 -19 -14 -58 -3 -58 6 0 6 -7 -1 -19 -6 -12
-6 -22 -1 -26 5 -3 6 -18 2 -33 -4 -15 -7 -66 -6 -114 1 -49 -3 -88 -8 -88 -5
0 -5 -5 1 -12 17 -22 18 -24 2 -43 -8 -11 -10 -16 -4 -12 14 8 13 -155 -1
-165 -6 -5 -6 -8 2 -8 12 0 12 -17 0 -37 -4 -6 -3 -15 3 -18 7 -4 7 -11 2 -18
-5 -7 -8 -36 -7 -65 0 -28 -2 -52 -5 -52 -3 0 -5 -24 -4 -52 0 -29 -3 -61 -8
-70 -4 -9 -4 -19 0 -22 11 -7 9 -66 -2 -85 -7 -10 -5 -12 5 -6 11 7 12 6 2 -7
-7 -8 -9 -18 -5 -22 10 -10 10 -56 0 -50 -13 8 -9 -11 4 -24 10 -10 10 -15 -1
-21 -10 -6 -10 -10 -2 -16 7 -4 8 -11 3 -18 -5 -7 -8 -45 -7 -85 1 -40 -2 -75
-7 -78 -4 -3 -2 -16 4 -30 8 -17 8 -28 2 -32 -6 -4 -10 -19 -9 -35 1 -15 -2
-27 -7 -27 -5 0 -6 -6 -2 -12 10 -16 13 -48 5 -48 -4 0 -6 -65 -6 -144 0 -95
-3 -142 -10 -139 -5 3 -4 0 2 -7 10 -11 10 -17 0 -29 -10 -12 -9 -13 1 -7 11
7 12 4 4 -11 -8 -15 -10 -58 -2 -58 6 0 7 -41 2 -49 -9 -14 -11 -66 -3 -66 4
0 6 -34 5 -75 0 -41 3 -75 8 -75 9 0 6 -29 -5 -47 -5 -7 -5 -19 0 -25 9 -15
12 -258 3 -258 -11 0 -7 -55 4 -63 7 -4 8 -10 1 -15 -12 -9 -16 -84 -4 -76 5
3 9 1 9 -5 0 -5 -5 -13 -10 -16 -6 -3 -7 -18 -4 -33 4 -21 3 -24 -5 -12 -6 8
-11 10 -11 4 0 -5 5 -15 12 -22 9 -9 9 -15 0 -24 -8 -8 -9 -15 -1 -25 9 -10 8
-17 -2 -30 -12 -15 -12 -16 1 -8 12 7 13 6 3 -6 -9 -11 -11 -54 -3 -54 1 0 3
-28 4 -62 1 -35 -2 -63 -7 -63 -4 0 -5 -5 -1 -12 11 -17 13 -98 2 -98 -4 0 -8
-5 -8 -11 0 -5 5 -7 10 -4 7 4 8 -3 4 -22 -3 -15 -7 -95 -9 -178 -1 -82 -6
-158 -10 -167 -4 -11 -3 -18 3 -18 12 0 11 -18 -2 -39 -7 -10 -6 -12 4 -6 10
6 11 4 4 -6 -5 -8 -9 -35 -9 -60 0 -26 -7 -54 -15 -64 -8 -11 -10 -16 -3 -12
15 9 23 -14 11 -36 -5 -10 -6 -26 -3 -37 3 -10 1 -21 -4 -24 -5 -4 -8 -18 -5
-32 3 -14 1 -31 -4 -38 -5 -6 -8 -31 -7 -56 1 -25 0 -49 -4 -55 -10 -17 -10
-76 0 -69 10 6 5 -37 -5 -55 -4 -5 0 -12 6 -14 10 -4 9 -8 -2 -16 -8 -6 -10
-11 -4 -11 13 0 12 -52 -1 -62 -6 -5 -6 -8 1 -8 7 0 10 -22 9 -60 -1 -33 1
-60 5 -60 4 0 7 -7 7 -15 0 -8 -5 -15 -11 -15 -6 0 -6 -4 2 -12 7 -7 8 -17 2
-29 -6 -11 -6 -20 -1 -24 5 -3 8 -19 6 -35 -2 -17 0 -30 5 -30 4 0 7 -11 6
-25 -2 -13 1 -22 5 -19 5 3 9 0 9 -5 0 -6 -4 -11 -9 -11 -10 0 -9 -26 2 -36
12 -12 8 -26 -5 -18 -10 5 -10 4 -1 -6 7 -8 8 -22 3 -41 -10 -33 -10 -34 -10
-51 0 -9 -3 -9 -12 0 -9 9 -15 7 -25 -6 -8 -9 -11 -11 -7 -3 5 10 3 12 -7 6
-17 -11 -249 -13 -249 -2 0 5 -7 1 -16 -7 -19 -19 -28 -21 -18 -3 6 9 4 9 -8
-1 -12 -9 -18 -10 -23 -2 -5 8 -13 6 -26 -6 -10 -9 -19 -13 -19 -8 0 5 -20 9
-45 9 -38 -1 -44 2 -40 16 3 10 2 20 -3 23 -5 3 -8 20 -7 38 1 18 -2 36 -8 39
-5 4 -6 12 -1 20 13 22 13 38 0 33 -6 -2 -12 5 -13 16 -1 12 2 18 9 14 7 -5 8
-2 2 7 -12 20 -14 39 -3 39 13 0 7 23 -11 38 -13 12 -13 13 0 6 12 -6 13 -4 3
6 -9 9 -9 17 -2 26 7 8 7 14 0 18 -6 4 -7 14 -4 23 4 10 2 14 -4 10 -6 -4 -14
0 -17 9 -4 10 -2 13 7 8 9 -6 9 -4 1 7 -13 16 -10 47 5 62 7 7 7 17 -1 31 -11
20 -10 20 8 6 18 -14 18 -14 4 4 -8 11 -16 29 -17 40 -1 21 -10 61 -13 61 -1
0 -3 8 -5 18 -2 10 3 21 11 24 8 3 14 9 14 15 0 5 -4 7 -9 4 -10 -6 -22 40
-13 49 10 10 10 35 1 35 -6 0 -7 5 -4 10 3 6 2 10 -2 10 -5 0 -8 12 -8 28 1
15 -1 32 -4 37 -8 14 -8 75 -1 75 3 0 6 9 6 20 0 11 -5 20 -11 20 -11 0 -13
159 -2 178 4 6 3 13 -1 16 -5 3 -8 18 -7 33 1 15 -3 34 -9 42 -9 12 -8 13 4 7
8 -4 6 0 -4 8 -15 12 -21 31 -23 79 -5 117 -9 152 -18 166 -6 10 -4 12 6 6 11
-7 12 -6 3 6 -7 8 -11 28 -9 44 1 17 -3 36 -9 44 -9 12 -8 13 4 6 13 -7 13 -6
2 7 -9 11 -10 18 -2 23 6 3 7 12 3 18 -4 7 -8 28 -9 49 -1 26 3 35 13 31 7 -3
13 -1 14 3 0 5 2 18 5 29 2 11 1 27 -3 35 -10 24 -10 34 0 48 6 8 5 12 -3 12
-8 0 -10 3 -7 7 4 3 2 12 -4 20 -9 10 -8 13 1 13 7 0 10 7 6 15 -3 8 0 15 7
15 8 0 7 4 -3 10 -11 7 -12 12 -3 21 7 7 8 20 4 33 -5 11 -6 34 -4 49 3 22 1
27 -9 21 -8 -5 -8 -1 2 11 11 14 11 17 1 11 -10 -7 -12 -3 -6 14 4 13 3 20 -2
17 -5 -3 -9 10 -8 29 1 18 -1 34 -5 34 -4 0 -7 14 -7 30 0 17 3 30 7 30 4 0 6
50 6 110 0 61 -3 110 -6 110 -3 0 -5 35 -4 78 1 42 3 77 4 77 1 0 3 15 5 32 1
18 -2 33 -7 33 -6 0 -4 8 3 18 7 9 9 14 5 10 -5 -4 -16 -2 -24 5 -13 10 -14 9
-7 -2 6 -10 4 -12 -4 -7 -7 5 -10 14 -7 22 3 8 1 14 -4 14 -6 0 -10 12 -10 26
0 14 -4 23 -8 20 -4 -2 -8 4 -9 14 -1 13 3 17 13 13 10 -4 12 0 8 11 -3 9 -10
16 -16 16 -5 0 -6 5 -3 10 4 6 10 8 15 5 7 -4 7 17 0 35 -1 3 -2 9 -1 14 1 5
-8 19 -20 32 -11 12 -18 27 -14 33 3 6 2 11 -4 11 -5 0 -8 9 -6 20 2 11 -1 20
-6 20 -14 0 -1 42 17 56 13 10 12 13 -1 18 -9 3 -13 10 -10 16 3 5 -1 10 -10
10 -12 0 -15 6 -10 21 4 12 3 19 -2 16 -5 -3 -9 3 -10 13 -1 13 3 17 13 13 10
-4 12 0 8 11 -3 9 -9 14 -13 11 -5 -2 -7 8 -5 23 1 15 3 27 4 27 2 0 4 10 5
23 2 15 -2 21 -11 18 -8 -3 -11 2 -9 15 2 10 0 19 -5 19 -5 0 -7 7 -3 15 3 9
-2 24 -11 34 -9 10 -13 21 -10 24 12 11 11 111 0 126 -9 12 -8 13 3 7 10 -7
10 -3 -2 15 -8 13 -13 32 -12 42 2 9 -1 17 -7 17 -6 0 -8 7 -4 15 3 8 1 15 -4
15 -6 0 -10 5 -10 11 0 5 5 7 10 4 13 -8 13 2 -2 28 -15 28 -19 48 -10 61 10
16 11 76 1 70 -5 -3 -9 0 -9 5 0 6 4 11 10 11 5 0 7 7 4 15 -4 8 -1 15 6 15 6
0 9 4 5 10 -3 5 -11 7 -18 4 -9 -3 -12 8 -12 38 1 24 -4 46 -9 50 -7 5 -6 8 3
8 11 0 10 4 -5 16 -10 8 -12 12 -4 8 12 -6 13 -5 3 7 -7 9 -9 20 -3 29 5 9 5
20 -2 28 -14 16 -20 65 -8 57 5 -3 6 5 3 17 -3 13 -5 33 -5 45 0 13 -4 21 -8
18 -5 -3 -7 3 -5 12 2 10 4 18 5 18 1 0 3 10 4 23 2 12 -1 22 -6 22 -5 0 -6 5
-3 10 3 6 1 10 -6 10 -8 0 -9 3 0 14 9 10 8 16 -4 26 -9 8 -13 20 -9 29 8 21
12 93 5 106 -3 5 -6 30 -8 55 -5 90 -9 115 -17 129 -7 11 -6 12 5 6 11 -7 12
-6 3 6 -5 8 -9 32 -8 53 1 22 -6 54 -15 70 -9 17 -16 43 -15 58 2 17 -2 27 -9
25 -12 -2 -13 16 -4 58 3 11 2 25 -2 30 -11 20 -9 34 7 40 15 6 15 8 -2 20
-16 12 -17 17 -6 30 11 14 11 16 -1 13 -8 -2 -13 4 -12 15 0 10 -1 16 -4 13
-3 -3 -11 1 -19 8 -11 11 -12 34 -4 56 1 3 1 10 0 15 -8 41 -8 50 1 61 7 8 7
14 -1 19 -8 5 -5 11 6 20 17 12 16 13 -4 26 -23 14 -31 41 -11 37 6 -2 14 3
17 11 3 9 0 11 -8 6 -10 -6 -11 -2 -6 18 5 20 3 25 -8 21 -8 -3 -17 -1 -21 5
-3 6 -1 11 5 11 6 0 8 5 5 10 -3 6 -2 10 4 10 5 0 9 9 8 20 -1 11 -5 20 -9 20
-4 0 -7 3 -7 8 1 4 0 9 -1 12 -1 3 -3 19 -4 36 -2 23 1 31 10 27 16 -6 12 48
-7 92 -7 17 -13 37 -14 46 -1 9 -5 21 -9 28 -4 6 -4 17 1 24 11 17 12 98 1 91
-4 -3 -8 0 -8 6 0 6 6 13 13 16 16 6 19 34 3 31 -5 -1 -10 5 -11 13 0 9 -8 14
-18 12 -14 -2 -17 2 -13 22 3 14 -1 32 -7 38 -14 16 -18 48 -6 48 5 0 9 7 9
15 0 8 -4 15 -9 15 -4 0 -8 10 -8 23 -1 41 -3 48 -13 42 -9 -6 -14 8 -11 28 0
4 -3 7 -8 7 -5 0 -9 12 -9 28 0 38 -8 77 -17 92 -6 9 -4 11 6 5 12 -8 12 -6 0
8 -7 9 -10 17 -6 17 4 0 3 6 -2 13 -6 6 -9 27 -7 45 1 18 -2 30 -7 27 -8 -6
-14 16 -10 38 1 5 -3 6 -9 2 -10 -6 -14 7 -11 34 2 7 -2 10 -8 6 -6 -3 -11 -2
-11 4 0 5 -3 17 -7 27 -3 10 -2 15 3 12 8 -5 11 43 4 65 -1 4 -3 13 -4 20 -1
6 -7 11 -12 10 -6 -1 -11 3 -12 10 -3 42 -7 55 -14 51 -8 -5 -18 12 -22 40 -1
8 -5 18 -9 22 -3 4 -2 15 4 25 7 13 6 19 -1 19 -6 0 -8 4 -5 10 3 6 -1 10 -9
10 -10 0 -16 9 -16 23 0 25 -13 49 -26 48 -5 -1 -10 13 -10 29 -3 55 -4 61
-13 56 -10 -7 -9 20 2 30 11 11 8 26 -3 19 -30 -19 -63 27 -35 47 6 5 5 8 -3
8 -7 0 -11 3 -9 8 8 12 -17 29 -40 27 -14 -1 -20 4 -18 14 1 9 7 15 13 14 6
-1 13 4 16 12 3 8 0 14 -7 12 -7 -1 -11 4 -9 12 3 12 0 12 -12 2 -13 -11 -17
-10 -22 3 -3 9 -11 13 -16 10 -6 -4 -5 2 1 14 7 14 8 23 1 27 -6 4 -8 11 -5
16 4 5 -1 9 -10 9 -9 0 -14 4 -10 9 3 5 1 12 -3 15 -5 3 -8 22 -5 42 3 26 0
34 -8 28 -9 -5 -10 -2 -6 10 6 14 3 17 -8 12 -9 -3 -13 -2 -10 4 3 6 -1 13
-10 16 -9 4 -14 13 -11 20 3 8 -1 14 -10 14 -9 0 -12 5 -8 12 5 7 2 9 -9 5
-11 -4 -15 -1 -12 14 4 19 -2 22 -37 22 -10 0 -15 4 -12 8 5 8 -26 14 -50 10
-4 -1 -13 2 -20 7 -6 5 -41 8 -78 7 -49 -1 -69 2 -72 12 -5 11 -10 11 -27 2
-17 -9 -20 -8 -13 3 6 11 5 11 -9 -1 -14 -11 -17 -11 -17 0 0 9 -3 10 -8 4
-10 -14 -32 -17 -32 -5 0 6 -4 10 -10 10 -5 0 -9 -6 -7 -12 1 -8 -6 -12 -17
-10 -10 2 -16 0 -13 -5 3 -5 -3 -9 -14 -9 -10 0 -19 4 -19 9 0 5 -7 4 -15 -3
-9 -7 -28 -14 -42 -16 -15 -1 -29 -7 -31 -13 -2 -5 -9 -8 -17 -5 -7 3 -27 -1
-43 -10 -16 -8 -32 -12 -36 -9 -3 4 -6 0 -6 -7 0 -7 -3 -10 -6 -7 -4 3 -16 2
-27 -4 -10 -6 -17 -7 -14 -2 4 5 0 10 -8 10 -8 0 -12 -4 -10 -8 5 -7 -33 -22
-48 -20 -5 1 -6 -3 -3 -8 4 -5 -4 -17 -16 -25 -12 -9 -18 -16 -13 -16 6 0 4
-4 -4 -9 -8 -5 -23 -8 -33 -6 -10 2 -16 0 -13 -6 4 -5 -2 -9 -12 -9 -10 0 -14
-4 -8 -8 14 -10 17 -52 5 -67 -6 -7 -9 -19 -8 -26 2 -8 -5 -13 -14 -13 -9 1
-19 -5 -22 -13 -4 -8 -1 -11 5 -7 6 3 5 -3 -3 -15 -7 -12 -19 -19 -27 -16 -8
3 -11 0 -8 -9 3 -8 -2 -20 -11 -28 -13 -11 -15 -11 -8 2 4 9 2 8 -7 -2 -8 -10
-17 -15 -20 -12 -3 3 -4 -5 -3 -19 2 -17 -1 -24 -9 -21 -7 3 -20 -2 -29 -11
-9 -9 -16 -14 -16 -10 0 3 -6 0 -14 -7 -8 -7 -12 -16 -9 -20 2 -5 -3 -8 -12
-8 -9 0 -14 -4 -10 -9 3 -6 -3 -8 -15 -6 -11 2 -19 1 -19 -3 3 -20 -2 -32 -11
-27 -7 4 -9 -3 -6 -20 4 -21 2 -26 -11 -21 -11 4 -14 2 -10 -9 4 -8 -1 -21 -9
-30 -9 -8 -12 -15 -8 -15 4 0 -1 -7 -12 -15 -10 -8 -15 -15 -10 -15 5 0 1 -9
-10 -21 -10 -11 -20 -32 -21 -47 -2 -15 -4 -33 -5 -39 -1 -7 -5 -13 -10 -13
-5 0 -7 -4 -4 -9 4 -5 2 -11 -4 -13 -5 -1 -11 -24 -12 -49 -2 -30 -7 -45 -14
-42 -7 2 -15 -1 -20 -8 -5 -8 -3 -10 7 -4 8 5 4 -3 -8 -16 -21 -23 -23 -27
-23 -50 0 -5 -5 -7 -12 -3 -8 5 -9 2 -5 -9 4 -11 1 -17 -8 -17 -8 0 -14 -6
-12 -12 1 -7 -4 -12 -11 -10 -9 2 -11 -4 -7 -18 4 -13 2 -20 -6 -20 -7 0 -9
-3 -6 -7 4 -3 -1 -12 -11 -20 -10 -9 -11 -11 -2 -7 12 7 13 5 3 -8 -7 -8 -9
-19 -5 -23 4 -5 2 -5 -4 -2 -13 8 -27 -20 -18 -34 3 -5 1 -9 -4 -9 -5 0 -8
-13 -7 -29 2 -23 -1 -29 -14 -26 -12 2 -17 -5 -19 -23 -1 -14 -10 -34 -20 -45
-12 -15 -13 -18 -2 -12 11 7 10 2 -3 -19 -10 -15 -16 -30 -13 -33 3 -4 0 -13
-7 -21 -10 -13 -9 -15 3 -8 8 4 7 1 -3 -7 -12 -10 -16 -24 -13 -40 3 -20 1
-24 -10 -20 -8 3 -14 2 -13 -3 3 -20 -2 -35 -10 -29 -6 3 -8 -3 -6 -15 2 -11
-1 -19 -8 -17 -7 1 -12 -10 -11 -30 0 -24 -3 -30 -15 -25 -9 3 -13 2 -9 -3 4
-4 0 -14 -10 -22 -10 -9 -11 -11 -2 -7 13 7 13 5 2 -9 -8 -9 -11 -21 -8 -26 4
-5 2 -12 -4 -16 -6 -4 -8 -10 -5 -15 3 -4 -2 -11 -11 -14 -9 -3 -14 -12 -11
-19 2 -6 -3 -21 -12 -31 -13 -16 -13 -18 -1 -12 8 4 6 1 -4 -8 -10 -8 -23 -13
-29 -9 -5 3 -6 -3 -3 -15 4 -11 2 -23 -3 -26 -5 -4 -8 -15 -6 -26 2 -12 0 -18
-6 -15 -5 4 -8 -4 -6 -16 2 -12 -5 -31 -15 -41 -11 -11 -17 -25 -15 -31 2 -7
-3 -18 -12 -25 -12 -10 -13 -12 -1 -6 13 7 13 6 1 -9 -8 -10 -11 -20 -7 -24 3
-3 -2 -15 -11 -26 -13 -15 -14 -18 -3 -12 12 6 12 5 3 -5 -6 -7 -9 -19 -6 -28
5 -11 3 -13 -7 -7 -10 6 -12 4 -7 -8 4 -10 0 -20 -9 -25 -9 -5 -15 -12 -15
-15 3 -19 0 -28 -7 -24 -4 3 -8 -12 -8 -34 -1 -21 2 -36 6 -34 4 2 7 -2 7 -10
0 -8 -4 -15 -9 -15 -5 0 -7 -4 -3 -9 3 -5 1 -13 -5 -16 -8 -5 -7 -11 1 -21 9
-11 9 -14 0 -14 -7 0 -9 -4 -6 -10 3 -5 1 -10 -5 -10 -6 0 -8 -5 -5 -10 3 -6
-1 -13 -10 -16 -11 -5 -13 -9 -5 -14 6 -3 8 -14 4 -23 -3 -9 -10 -15 -14 -12
-5 3 -11 -8 -15 -25 -4 -19 -11 -28 -18 -24 -9 5 -9 4 0 -6 6 -7 9 -19 6 -27
-3 -8 0 -13 7 -11 7 2 14 -5 15 -14 3 -15 0 -16 -17 -7 -18 10 -20 9 -15 -5 4
-9 2 -16 -3 -16 -5 0 -7 -9 -5 -20 2 -11 0 -20 -5 -20 -5 0 -7 -10 -5 -22 3
-12 -2 -29 -10 -38 -8 -9 -13 -27 -10 -40 2 -13 0 -29 -6 -37 -6 -7 -8 -20 -5
-29 4 -9 1 -23 -5 -30 -6 -8 -8 -14 -4 -14 4 0 1 -8 -6 -17 -12 -14 -12 -16 0
-8 11 6 12 5 5 -6 -4 -8 -9 -18 -11 -24 -11 -52 -12 -66 -4 -61 5 3 8 -2 6
-11 -2 -10 -4 -18 -6 -18 -1 0 -2 -14 -3 -30 -1 -17 -6 -36 -10 -43 -4 -7 -4
-17 -1 -22 4 -6 2 -16 -3 -23 -6 -7 -11 -16 -12 -22 -1 -5 -5 -9 -9 -8 -3 1
-7 -11 -8 -25 -2 -15 -4 -40 -6 -57 -2 -16 0 -38 5 -47 5 -10 3 -22 -5 -30 -8
-7 -13 -24 -12 -37 1 -12 -3 -25 -10 -27 -12 -5 -15 -78 -2 -90 13 -14 7 -30
-12 -30 -12 0 -17 5 -13 15 3 9 1 12 -6 8 -7 -5 -10 4 -8 25 2 18 0 38 -3 43
-3 6 -6 19 -6 30 0 11 -4 26 -8 32 -4 7 -4 21 1 30 7 14 9 73 3 91 -1 1 -1 5
-2 10 0 4 -6 13 -12 21 -10 12 -9 13 2 6 11 -6 12 -5 5 6 -4 8 -9 19 -10 24
-9 50 -14 66 -20 76 -5 8 -3 9 7 4 11 -7 12 -6 3 6 -6 8 -10 22 -9 31 2 10 -2
21 -7 25 -7 4 -8 1 -3 -7 5 -8 4 -11 -3 -7 -12 8 -11 25 2 46 6 10 5 12 -2 7
-7 -4 -12 -2 -12 3 0 6 6 11 13 11 7 0 8 3 2 8 -6 4 -10 19 -10 35 1 15 -2 27
-6 27 -3 0 -5 16 -4 35 2 19 0 37 -4 39 -4 3 -6 32 -6 65 0 33 -2 58 -5 56 -4
-2 -7 11 -7 30 0 19 4 32 8 30 9 -6 6 16 -5 34 -6 10 -5 12 2 7 8 -5 10 -2 6
8 -3 9 -9 14 -13 12 -4 -3 -7 19 -6 47 1 29 -3 58 -9 66 -9 12 -8 13 4 6 13
-8 13 -6 2 8 -8 9 -11 20 -8 26 3 5 1 11 -6 13 -6 2 -12 11 -14 19 -1 7 -6 23
-10 33 -5 14 -4 17 5 11 10 -6 11 -3 2 13 -13 25 -14 35 -2 28 10 -6 10 11 0
29 -3 6 -4 20 -3 33 0 12 -2 22 -5 22 -4 0 -6 19 -5 43 0 23 -4 48 -10 56 -9
12 -8 13 4 6 12 -7 13 -6 4 6 -7 8 -10 29 -8 47 2 20 0 31 -6 27 -14 -9 -12 8
3 24 10 11 9 12 -2 6 -10 -6 -12 -4 -7 4 5 7 14 10 20 8 9 -4 12 15 10 71 -3
97 -2 94 -14 87 -5 -3 -10 1 -10 10 0 9 -4 13 -10 10 -5 -3 -10 -2 -10 3 0 15
13 22 24 12 9 -6 11 7 10 48 -1 31 -2 57 -4 57 -1 0 -7 20 -13 50 -2 8 -6 17
-10 21 -3 4 -2 14 3 24 5 10 6 20 2 24 -3 4 -7 21 -8 39 -3 47 -3 49 -14 42
-5 -3 -10 1 -10 10 0 9 -5 13 -10 10 -7 -4 -9 5 -5 24 3 17 1 31 -4 31 -5 0
-8 8 -6 18 1 9 -3 23 -9 31 -9 12 -8 13 3 6 11 -6 12 -5 5 6 -12 19 -12 50 -1
73 6 12 6 16 -2 12 -6 -4 -9 6 -7 29 2 19 0 35 -4 35 -5 0 -6 10 -2 22 3 12 1
19 -5 15 -13 -8 -11 56 2 65 6 5 6 8 -2 8 -6 0 -10 11 -8 25 1 14 -1 25 -5 25
-4 0 -6 12 -5 28 1 15 -3 33 -9 41 -9 12 -8 13 4 6 12 -6 13 -5 3 6 -7 7 -13
17 -13 22 0 4 6 5 13 1 6 -4 4 2 -5 13 -20 22 -24 38 -6 27 7 -4 8 -3 4 5 -4
6 -11 9 -16 6 -5 -3 -11 -1 -14 4 -4 5 -2 12 3 15 13 9 1 47 -13 39 -6 -3 -8
-3 -4 2 4 4 2 15 -5 23 -10 13 -9 14 3 7 12 -6 12 -5 3 5 -6 7 -9 18 -7 25 3
7 0 16 -7 21 -8 4 -10 3 -5 -4 5 -8 2 -10 -8 -6 -9 3 -13 10 -10 15 3 5 0 9
-5 9 -8 0 -7 7 1 19 7 11 16 17 21 14 6 -4 7 5 2 23 -8 34 -13 56 -14 67 -1 5
-5 6 -10 3 -12 -8 -7 24 5 32 11 9 14 83 3 76 -5 -3 -6 2 -3 10 3 9 1 16 -4
16 -6 0 -9 12 -7 28 1 15 8 26 15 24 6 -1 9 2 5 8 -3 6 -10 8 -15 5 -5 -3 -7
8 -5 25 2 16 0 30 -4 30 -4 0 -7 18 -7 41 0 22 -5 44 -11 47 -6 4 -9 15 -7 25
1 9 -2 17 -7 17 -6 0 -7 5 -4 10 3 6 3 10 -2 10 -4 0 -9 12 -9 26 -1 14 -10
35 -20 46 -13 14 -14 19 -4 13 12 -6 13 -5 3 5 -7 8 -9 20 -4 29 8 17 7 23 -4
58 -4 13 -12 20 -18 16 -5 -3 -7 -1 -3 5 3 5 1 12 -6 14 -13 5 -2 28 13 28 6
0 8 -4 4 -9 -3 -5 -1 -12 4 -15 7 -5 8 22 1 32 -4 3 -7 21 -9 38 0 8 -5 13 -9
10 -4 -2 -9 4 -9 15 -1 11 2 17 7 14 5 -3 8 4 7 15 -1 11 -5 20 -9 20 -4 0 -5
7 -2 15 4 8 1 15 -6 15 -6 0 -8 5 -5 10 3 6 1 10 -5 10 -7 0 -9 8 -5 19 3 11
1 22 -4 25 -5 4 -8 18 -5 32 4 20 1 24 -13 22 -13 -2 -18 4 -18 22 0 14 -4 31
-9 39 -7 10 -5 12 5 7 9 -5 9 -3 -1 6 -11 9 -16 30 -15 63 0 28 -5 56 -12 63
-7 7 -10 19 -7 27 4 8 2 15 -4 15 -6 0 -9 8 -8 18 2 9 -2 20 -8 25 -8 5 -7 10
2 16 19 12 19 15 2 36 -13 17 -13 18 0 10 13 -8 13 -6 2 8 -8 9 -11 21 -8 26
4 5 2 12 -3 16 -6 3 -8 21 -7 40 2 21 -1 33 -7 32 -14 -3 -16 83 -2 102 8 12
7 13 -5 6 -13 -8 -13 -7 -1 8 9 12 10 17 2 17 -8 0 -10 12 -7 36 4 23 2 33 -4
29 -13 -8 -8 17 5 27 6 5 5 8 -3 8 -7 0 -10 5 -7 10 3 6 0 10 -8 10 -8 0 -17
7 -21 15 -3 8 -1 15 3 15 11 0 9 19 -3 39 -6 10 -5 12 2 7 8 -5 10 -2 6 8 -3
9 -11 13 -17 9 -6 -4 -8 0 -4 10 3 10 2 17 -3 17 -5 0 -7 9 -5 20 2 11 -1 20
-7 20 -5 0 -7 7 -4 16 4 9 1 24 -6 32 -11 13 -11 14 1 7 11 -6 12 -5 5 6 -5 8
-9 21 -9 30 0 9 -7 24 -15 34 -9 11 -10 16 -2 11 17 -10 15 -1 -4 19 -12 12
-13 19 -5 29 9 10 9 16 1 21 -6 4 -9 12 -7 18 2 7 0 22 -4 34 -5 13 -4 25 1
28 7 4 6 13 0 26 -6 11 -8 23 -6 28 3 5 -1 11 -9 14 -8 4 -12 15 -10 27 2 11
-1 20 -6 20 -6 0 -7 5 -4 10 3 6 2 10 -3 10 -5 0 -8 14 -7 30 1 17 -1 30 -4
30 -4 0 -7 12 -7 28 1 15 -4 26 -9 25 -6 -1 -12 7 -13 18 -1 10 -2 25 -3 32
-1 6 2 27 5 45 5 23 2 34 -8 38 -14 5 -16 27 -3 40 3 4 3 14 -2 23 -10 20 -8
112 2 128 6 9 3 11 -9 6 -12 -4 -15 -3 -10 5 4 7 2 12 -4 12 -7 0 -10 7 -7 14
4 11 1 13 -10 9 -12 -5 -14 -3 -8 7 6 10 4 12 -8 7 -11 -4 -14 -2 -10 9 3 7 1
14 -5 14 -6 0 -9 11 -7 25 1 14 -2 28 -6 31 -5 3 -5 13 0 22 7 12 5 22 -7 35
-17 19 -25 67 -11 67 11 0 6 37 -6 47 -4 5 -5 2 0 -6 5 -9 4 -12 -2 -8 -6 4
-10 23 -8 43 3 29 1 34 -12 30 -11 -4 -14 -2 -9 9 3 8 0 15 -6 15 -7 0 -7 4 0
13 11 13 -10 42 -22 30 -3 -4 -6 3 -6 15 0 11 -4 23 -9 26 -4 3 -7 17 -6 31 2
14 -2 25 -8 25 -5 0 -7 3 -4 7 4 3 -1 12 -11 20 -9 8 -11 11 -3 7 9 -4 12 -3
7 4 -4 6 -14 8 -23 5 -10 -4 -14 -2 -10 4 4 6 0 14 -9 17 -10 4 -13 13 -9 27
5 15 4 19 -4 15 -6 -4 -11 -1 -11 8 0 10 -7 13 -20 11 -13 -3 -18 0 -14 7 5 7
2 9 -7 6 -10 -4 -15 1 -16 13 -1 10 2 19 8 19 5 0 9 5 9 10 0 6 -8 10 -17 8
-13 -2 -18 3 -17 20 1 21 0 21 -18 5 -10 -9 -18 -12 -18 -7 0 5 -17 9 -37 9
-41 -1 -85 14 -78 25 7 11 -30 8 -37 -4 -9 -12 -30 13 -22 25 2 4 -9 6 -26 4
-16 -2 -30 1 -30 6 0 6 -6 9 -12 6 -7 -2 -19 3 -26 12 -10 13 -12 13 -10 1 2
-8 -6 -15 -19 -16 -12 -1 -20 2 -18 7 3 4 1 10 -5 14 -5 3 -10 0 -10 -9 0 -8
-7 -13 -17 -11 -10 1 -26 -2 -36 -7 -12 -6 -19 -5 -23 7 -3 8 -10 12 -15 9 -5
-3 -7 -9 -4 -14 9 -15 -36 -2 -55 15 -13 11 -20 13 -25 5 -5 -8 -11 -7 -23 2
-9 8 -13 8 -9 1 5 -8 -5 -11 -33 -10 -22 1 -40 4 -40 7 0 3 -9 6 -20 7 -11 1
-18 -2 -15 -8 7 -10 -18 -13 -29 -2 -11 12 -36 12 -43 1 -4 -7 -1 -8 7 -3 9 5
11 4 6 -4 -6 -9 -11 -9 -22 0 -8 6 -17 9 -21 5 -3 -3 -1 -6 6 -6 7 0 10 -4 6
-10 -3 -5 -12 -7 -20 -3 -9 3 -15 -1 -15 -11 0 -12 -5 -14 -25 -6 -18 7 -25 6
-25 -2 0 -6 -3 -8 -7 -5 -3 4 -13 1 -21 -6 -8 -6 -27 -12 -41 -12 -16 0 -26
-6 -26 -15 0 -8 -9 -15 -20 -15 -11 0 -26 -4 -34 -9 -10 -7 -12 -6 -6 4 6 10
4 11 -6 4 -14 -9 -19 -10 -40 -13 -5 0 -7 -6 -3 -13 4 -6 3 -8 -4 -5 -12 8
-44 -2 -38 -12 3 -4 -5 -8 -17 -8 -17 -2 -19 0 -7 7 10 6 11 10 3 10 -15 0
-35 -35 -26 -44 11 -10 -21 -6 -37 5 -12 9 -11 10 5 4 15 -5 17 -3 8 6 -12 12
-37 3 -28 -10 5 -8 -17 -31 -45 -46 -13 -8 -13 -7 0 11 10 12 2 10 -22 -9 -21
-15 -44 -27 -52 -25 -8 2 -22 -6 -31 -17 -9 -11 -13 -13 -9 -5 5 10 -1 8 -16
-5 -13 -11 -20 -14 -16 -7 7 11 4 12 -11 3 -11 -6 -23 -8 -25 -5 -3 2 -4 -6
-3 -20 2 -18 -1 -23 -11 -19 -8 3 -17 -2 -20 -12 -4 -9 -13 -14 -21 -11 -8 3
-12 2 -8 -3 7 -13 -5 -42 -16 -35 -5 3 -9 0 -9 -5 0 -6 -7 -11 -16 -11 -8 0
-12 -5 -9 -10 3 -6 -2 -13 -12 -17 -10 -4 -26 -17 -36 -30 -10 -13 -25 -23
-33 -23 -8 0 -14 -4 -14 -10 0 -5 -7 -6 -17 -3 -11 4 -14 3 -9 -5 4 -7 1 -15
-8 -18 -9 -3 -13 -10 -10 -15 3 -5 2 -9 -3 -8 -20 3 -34 -2 -28 -11 3 -6 -5
-14 -19 -20 -14 -5 -26 -14 -26 -20 0 -6 -4 -8 -10 -5 -6 4 -9 -3 -7 -16 1
-15 -6 -27 -20 -34 -13 -7 -20 -15 -17 -18 4 -4 0 -9 -9 -13 -9 -3 -13 -12
-10 -21 4 -10 2 -14 -4 -10 -6 4 -17 -1 -24 -10 -12 -14 -12 -16 1 -9 9 4 8 2
-2 -7 -10 -8 -15 -17 -11 -21 4 -4 -1 -4 -11 0 -15 6 -17 3 -12 -14 5 -14 1
-25 -11 -34 -10 -7 -19 -20 -21 -28 -2 -8 -7 -17 -11 -20 -5 -3 -7 -13 -5 -23
1 -9 -1 -15 -6 -12 -13 8 -30 -19 -20 -34 10 -18 2 -41 -15 -41 -7 0 -12 -8
-12 -17 0 -41 -4 -54 -12 -48 -6 3 -8 -4 -6 -15 2 -11 -1 -20 -6 -20 -6 0 -8
-4 -4 -9 3 -6 -3 -8 -14 -6 -22 4 -34 -16 -24 -42 4 -10 2 -14 -4 -10 -6 4 -9
-5 -7 -23 2 -18 -1 -30 -8 -30 -6 0 -8 -3 -5 -7 4 -3 1 -13 -6 -21 -10 -13 -9
-14 3 -7 8 4 3 -3 -12 -18 -29 -27 -37 -44 -15 -31 8 5 8 2 -2 -9 -7 -9 -10
-17 -6 -17 4 0 2 -7 -5 -15 -6 -8 -8 -20 -4 -27 4 -7 4 -10 -1 -6 -12 11 -36
-12 -28 -26 15 -22 14 -48 -1 -43 -8 3 -17 -1 -20 -9 -3 -9 -11 -12 -17 -8 -8
4 -9 3 -5 -5 4 -6 1 -14 -8 -17 -8 -3 -17 -12 -20 -20 -4 -10 -2 -12 6 -8 7 5
8 3 2 -7 -5 -8 -9 -17 -9 -21 0 -3 -4 -10 -9 -15 -6 -5 -6 -2 -1 7 5 9 5 12
-1 7 -5 -5 -10 -21 -10 -35 -1 -15 -3 -28 -4 -29 -1 -2 -3 -18 -4 -35 -1 -22
-7 -32 -15 -30 -8 2 -11 -3 -8 -13 4 -8 2 -15 -4 -15 -6 0 -8 -4 -5 -9 3 -5
-1 -14 -9 -21 -8 -7 -12 -16 -9 -21 3 -5 1 -9 -5 -9 -5 0 -8 -11 -5 -24 2 -14
-1 -28 -7 -32 -8 -5 -9 -3 -4 6 5 8 4 11 -3 6 -6 -4 -8 -14 -5 -23 4 -10 2
-14 -4 -10 -7 5 -10 -2 -8 -18 1 -14 -2 -25 -6 -25 -5 0 -7 -10 -5 -22 3 -13
5 -23 6 -23 1 0 3 -8 5 -17 2 -13 -3 -17 -18 -15 -16 2 -21 -4 -21 -24 -1 -15
-10 -36 -20 -48 -11 -12 -16 -21 -11 -21 4 0 1 -8 -6 -17 -12 -15 -12 -16 1
-8 11 6 10 3 -3 -12 -9 -11 -14 -22 -11 -25 3 -4 1 -15 -5 -26 -9 -16 -17 -56
-23 -109 -1 -7 -5 -13 -9 -13 -4 0 -5 -10 -1 -22 3 -13 1 -19 -6 -15 -6 4 -9
0 -7 -10 1 -10 -3 -24 -9 -32 -9 -12 -8 -13 4 -6 13 8 13 7 1 -8 -7 -9 -10
-17 -6 -17 4 0 1 -8 -6 -17 -12 -15 -12 -16 1 -8 13 8 13 6 2 -8 -8 -9 -10
-22 -6 -28 5 -8 3 -9 -6 -4 -9 6 -10 2 -5 -15 5 -15 4 -20 -4 -16 -7 5 -9 1
-5 -8 4 -9 1 -16 -6 -16 -7 0 -10 -6 -7 -14 3 -8 3 -17 -1 -20 -7 -8 -13 -32
-25 -111 -2 -11 -6 -25 -9 -30 -3 -6 -4 -19 -2 -30 1 -10 -2 -25 -8 -32 -6 -7
-7 -13 -3 -13 4 0 3 -6 -2 -12 -5 -7 -9 -34 -8 -60 0 -27 -2 -48 -5 -48 -3 0
-5 -15 -5 -32 1 -18 -1 -37 -3 -42 -8 -15 -11 -76 -3 -72 4 3 8 -4 8 -15 1
-11 -2 -17 -8 -14 -5 4 -10 3 -10 -2 -6 -36 -5 -53 3 -53 5 0 6 -5 3 -11 -4
-6 -13 -8 -20 -5 -10 3 -12 -6 -10 -37 1 -23 -3 -48 -9 -56 -8 -11 -8 -13 2
-7 6 4 12 2 12 -3 0 -6 -4 -11 -8 -11 -5 0 -8 -16 -7 -35 2 -19 -1 -38 -7 -41
-5 -3 -5 -11 2 -19 7 -9 7 -15 1 -19 -5 -4 -8 -15 -6 -26 2 -11 1 -20 -3 -20
-4 0 -7 -32 -8 -71 -1 -45 -5 -74 -14 -79 -8 -5 -9 -10 -2 -14 12 -7 10 -52
-3 -64 -4 -4 -5 -1 0 7 6 10 4 12 -4 7 -9 -6 -8 -13 5 -27 13 -14 14 -22 5
-32 -6 -8 -8 -17 -4 -20 3 -4 0 -14 -8 -24 -9 -11 -10 -14 -2 -9 9 5 11 2 7
-8 -3 -9 -10 -16 -16 -16 -5 0 -7 -4 -3 -9 3 -5 2 -12 -3 -15 -4 -2 -7 -22 -6
-43 0 -21 -4 -41 -10 -45 -7 -5 -6 -8 3 -8 11 0 11 -3 0 -17 -12 -15 -12 -16
1 -8 12 7 13 6 4 -6 -6 -8 -10 -22 -9 -32 2 -9 0 -15 -5 -12 -5 3 -7 -17 -6
-45 2 -27 -1 -50 -6 -50 -5 0 -6 -4 -3 -10 3 -6 2 -10 -2 -10 -5 0 -8 -23 -8
-50 0 -34 -3 -49 -11 -46 -7 3 -10 -12 -9 -47 1 -29 -3 -58 -9 -66 -9 -12 -8
-13 4 -6 12 7 13 6 3 -7 -7 -8 -10 -18 -6 -21 3 -4 2 -7 -3 -7 -5 0 -10 -10
-11 -23 -5 -50 -8 -62 -18 -69 -10 -7 -13 -23 -17 -85 -1 -18 -6 -33 -10 -33
-4 0 -4 -7 -1 -17 5 -11 3 -14 -6 -8 -10 6 -11 2 -6 -15 5 -16 4 -20 -5 -15
-9 6 -9 3 -1 -14 11 -20 8 -25 -13 -22 -5 1 -6 -5 -3 -14 4 -8 3 -15 -2 -15
-4 0 -8 -7 -8 -15 0 -8 4 -12 8 -9 4 2 7 -5 6 -16 -1 -11 -8 -22 -17 -25 -12
-4 -16 -18 -16 -55 0 -28 4 -50 8 -50 4 0 6 -10 4 -22 -3 -13 -5 -27 -5 -31
-1 -5 -5 -6 -10 -2 -6 3 -8 -6 -5 -20 3 -16 -1 -27 -10 -31 -9 -3 -12 -12 -9
-21 4 -10 2 -14 -4 -10 -5 3 -10 0 -10 -8 0 -8 4 -12 9 -9 4 3 8 -2 8 -10 0
-9 -5 -16 -11 -16 -6 0 -8 -7 -5 -16 3 -8 1 -25 -5 -36 -9 -16 -8 -19 2 -13 8
6 10 4 3 -6 -4 -8 -9 -18 -11 -24 -1 -5 -5 -21 -8 -35 -4 -14 -8 -41 -9 -60
-1 -19 -6 -41 -10 -49 -7 -10 -5 -12 4 -6 10 6 11 4 4 -6 -5 -8 -10 -30 -11
-49 -6 -73 -7 -80 -16 -80 -5 0 -4 -7 3 -15 7 -9 8 -15 2 -15 -5 0 -13 -7 -16
-16 -3 -8 -2 -12 4 -9 6 3 10 -1 10 -9 0 -9 -5 -16 -11 -16 -8 0 -8 -4 1 -15
7 -8 8 -20 4 -27 -5 -7 -9 -20 -9 -28 0 -8 -3 -19 -7 -25 -3 -5 -5 -22 -3 -37
2 -16 -1 -30 -6 -34 -5 -3 -9 -10 -9 -15 0 -6 4 -8 8 -5 4 2 9 -4 9 -15 1 -12
-3 -17 -10 -13 -9 5 -9 3 0 -6 10 -11 10 -17 0 -29 -9 -12 -9 -13 1 -7 19 11
14 1 -9 -20 l-21 -19 7 34 c5 22 4 31 -3 27 -11 -7 -11 12 1 32 5 7 3 12 -4
12 -6 0 -9 8 -6 20 3 13 -1 21 -13 25 -12 4 -16 12 -13 26 5 16 8 17 21 7 12
-10 12 -8 -2 14 -13 20 -14 27 -4 31 8 3 6 6 -6 6 -13 1 -16 5 -11 19 12 27
13 175 1 191 -9 12 -8 13 4 6 12 -7 13 -6 3 7 -7 8 -9 18 -5 22 4 5 0 7 -8 6
-27 -4 -37 0 -37 14 0 10 9 13 26 10 14 -3 21 -1 15 3 -6 5 -10 31 -8 60 1 39
-1 50 -11 47 -18 -7 -30 15 -15 29 10 9 11 9 5 -2 -5 -10 -4 -12 4 -7 6 4 8
13 4 19 -13 21 -11 36 3 30 10 -4 12 0 8 11 -3 9 -10 16 -14 16 -4 0 -11 7
-14 16 -4 10 -2 13 7 8 9 -5 9 -4 0 6 -6 7 -9 18 -7 25 3 7 0 16 -7 21 -8 5
-10 3 -4 -7 5 -8 4 -10 0 -6 -12 11 -15 37 -4 37 9 0 8 28 -2 45 -4 6 -5 19
-3 30 1 10 -2 25 -8 32 -7 9 -7 18 3 30 12 14 12 15 0 9 -18 -11 -33 14 -19
32 8 9 8 16 -1 25 -10 9 -11 8 -6 -8 4 -15 2 -14 -7 3 -7 15 -8 26 -2 30 12 9
13 105 0 114 -6 4 -4 13 5 24 12 15 12 16 0 9 -11 -6 -12 -5 -5 6 12 20 13 59
1 59 -5 0 -3 8 4 17 12 15 12 16 -1 8 -12 -7 -13 -6 -3 6 7 9 8 20 3 29 -5 8
-6 18 -4 22 3 4 1 8 -5 8 -5 0 -8 9 -6 20 2 11 0 18 -4 15 -5 -3 -12 2 -15 11
-4 10 -2 13 6 8 7 -4 8 -3 4 4 -4 7 -13 12 -19 12 -8 0 -13 15 -13 40 0 22 3
40 8 40 5 0 6 6 1 13 -8 13 -10 18 -12 43 0 9 -6 12 -13 8 -8 -5 -9 -2 -5 9 3
10 3 17 -1 17 -5 0 -7 21 -7 48 1 26 -3 50 -8 54 -7 4 -6 13 4 24 12 15 12 17
0 9 -11 -6 -13 -4 -8 8 3 9 2 19 -4 23 -6 3 -8 12 -5 20 3 8 1 14 -4 14 -6 0
-10 7 -10 16 0 9 -5 12 -11 8 -7 -4 -10 -1 -7 7 3 8 -2 20 -11 27 -9 8 -10 10
-2 7 10 -6 10 -3 -2 16 -8 13 -13 38 -13 56 2 28 0 30 -18 21 -16 -9 -18 -8
-13 7 4 9 7 23 7 31 0 10 5 12 13 8 8 -5 8 -2 -2 9 -7 9 -10 17 -6 17 4 0 3 6
-2 13 -6 6 -9 24 -8 39 1 15 -2 25 -7 22 -4 -3 -8 0 -8 6 0 6 -4 9 -9 6 -4 -3
-8 4 -7 16 1 21 -55 88 -72 88 -4 0 1 -7 10 -14 23 -17 23 -25 1 -21 -10 2
-22 4 -27 4 -5 1 -7 4 -3 7 3 4 -4 15 -16 26 -12 11 -16 16 -8 12 9 -5 12 -3
7 5 -4 6 -16 9 -27 6 -15 -5 -19 -1 -19 14 0 12 -5 21 -11 21 -5 0 -7 5 -3 11
8 14 -92 107 -114 105 -9 0 -16 5 -14 12 1 8 -3 12 -10 10 -7 -3 -19 2 -26 11
-10 12 -12 13 -6 1 7 -12 5 -13 -8 -3 -8 7 -18 10 -21 6 -4 -3 -9 2 -13 11 -3
9 -10 14 -14 11 -4 -3 -14 3 -21 12 -12 14 -12 16 0 8 10 -6 12 -4 7 4 -5 7
-14 10 -21 7 -8 -3 -19 3 -27 12 -11 13 -11 14 1 7 9 -5 12 -4 7 3 -4 6 -14 8
-23 5 -11 -4 -14 -2 -9 5 4 7 -1 10 -14 7 -11 -2 -20 0 -20 5 0 5 -9 7 -20 5
-11 -2 -20 1 -20 6 0 6 -4 8 -9 4 -5 -3 -12 -1 -16 5 -4 6 -11 8 -16 4 -5 -3
-17 0 -26 8 -14 11 -16 11 -8 -2 8 -13 7 -13 -8 -1 -10 8 -20 11 -24 8 -9 -9
-34 13 -27 24 3 5 1 9 -4 9 -6 0 -13 -7 -16 -16 -3 -8 -10 -13 -15 -9 -5 3
-13 1 -16 -5 -4 -6 -14 -2 -24 11 -19 23 -52 35 -48 17 1 -6 -4 -13 -12 -16
-8 -3 -11 0 -7 7 4 6 2 11 -4 11 -6 0 -8 5 -4 12 4 7 3 8 -5 4 -6 -4 -9 -12
-6 -17 4 -5 1 -10 -4 -10 -21 -3 -26 -4 -38 -12 -7 -5 -17 -5 -23 -2 -5 3 -10
2 -10 -3 0 -14 -61 -7 -70 8 -11 17 -15 17 -34 -2 -17 -18 -47 -14 -43 5 1 7
-4 11 -10 9 -7 -1 -13 4 -13 10 0 7 -5 5 -11 -5 -5 -9 -7 -22 -4 -27 4 -6 -10
-8 -37 -5 -23 3 -46 11 -50 18 -8 12 -12 -2 -9 -29 1 -6 -5 -11 -14 -11 -8 0
-12 4 -9 9 3 4 -2 8 -11 8 -9 0 -14 -4 -11 -8 7 -12 -26 -11 -41 1 -9 6 -13 6
-13 -2 0 -7 -4 -9 -10 -6 -5 3 -10 1 -10 -5 0 -6 -5 -8 -12 -3 -19 11 -39 13
-32 2 3 -5 1 -9 -5 -9 -5 0 -14 7 -19 15 -7 13 -10 12 -20 -9 -7 -16 -17 -23
-25 -20 -8 3 -22 -2 -31 -12 -12 -12 -20 -14 -28 -6 -8 8 -20 4 -44 -15 -19
-14 -34 -22 -34 -18 0 4 -8 1 -17 -6 -14 -12 -16 -12 -9 1 4 9 2 8 -7 -2 -8
-10 -17 -14 -22 -10 -4 4 -4 -3 -1 -15 8 -25 -3 -30 -23 -11 -8 7 -11 8 -8 3
3 -6 -3 -11 -13 -11 -14 0 -16 3 -8 13 20 24 2 13 -23 -14 -13 -14 -18 -23
-12 -19 9 5 11 2 7 -8 -3 -9 -15 -16 -26 -16 -10 0 -17 -4 -14 -9 4 -5 -3 -7
-14 -4 -15 4 -19 2 -15 -9 5 -11 0 -15 -18 -13 -22 3 -24 0 -21 -31 1 -19 -1
-32 -5 -29 -5 2 -7 -9 -5 -25 2 -16 -1 -32 -6 -35 -6 -4 -7 -11 -4 -17 5 -8 1
-9 -11 -5 -22 9 -46 -10 -38 -30 4 -11 2 -14 -5 -9 -7 4 -12 2 -12 -4 0 -7
-10 -21 -23 -32 -12 -11 -15 -16 -7 -12 13 7 13 5 1 -9 -7 -9 -17 -14 -22 -11
-5 3 -12 -8 -15 -25 -4 -17 -10 -31 -15 -31 -5 0 -6 -7 -3 -15 4 -8 1 -15 -6
-15 -6 0 -8 -4 -5 -10 3 -5 2 -10 -4 -10 -5 0 -8 -9 -6 -20 2 -11 -1 -20 -6
-20 -6 0 -7 -9 -4 -21 5 -14 4 -19 -4 -15 -7 5 -9 1 -5 -8 3 -9 2 -16 -3 -16
-6 0 -9 -13 -8 -30 1 -16 -2 -27 -6 -25 -4 3 -10 -2 -13 -11 -4 -10 -2 -13 6
-8 7 5 8 3 2 -7 -5 -8 -9 -18 -9 -24 -1 -5 -7 -9 -14 -7 -8 2 -11 -3 -8 -13 4
-8 2 -15 -3 -15 -5 0 -7 -12 -4 -26 3 -14 1 -31 -4 -38 -4 -6 -8 -18 -7 -26 0
-8 -3 -17 -7 -20 -4 -3 -9 -15 -11 -25 -1 -11 -6 -26 -10 -32 -5 -7 -5 -17 -2
-23 3 -5 -1 -23 -9 -39 -9 -16 -13 -38 -11 -50 2 -11 0 -23 -5 -26 -5 -3 -7
-14 -5 -25 2 -11 -1 -20 -6 -20 -6 0 -8 -4 -4 -9 3 -5 1 -12 -4 -15 -5 -3 -7
-21 -6 -40 2 -21 -2 -39 -10 -46 -8 -6 -11 -19 -8 -27 5 -11 3 -14 -6 -8 -10
6 -11 3 -2 -13 8 -15 8 -23 -1 -28 -7 -5 -8 -3 -3 6 5 8 4 11 -2 7 -6 -4 -9
-29 -8 -57 2 -28 -2 -53 -8 -57 -6 -4 -7 -1 -2 8 5 8 4 10 0 6 -12 -11 -15
-37 -4 -37 5 0 9 -5 9 -11 0 -5 -4 -7 -10 -4 -5 3 -10 1 -10 -4 0 -19 -2 -26
-9 -36 -4 -5 -7 -21 -6 -35 0 -14 -4 -28 -9 -32 -5 -3 -10 -21 -11 -40 0 -18
-5 -39 -9 -47 -6 -10 -5 -12 2 -7 14 8 11 -29 -3 -41 -4 -5 -5 -2 0 6 5 9 4
12 -3 8 -5 -4 -9 -15 -7 -25 1 -9 -2 -23 -8 -29 -6 -8 -6 -13 0 -13 5 0 10 -7
10 -15 0 -8 -4 -12 -9 -9 -8 5 -9 3 -13 -46 -1 -16 -4 -33 -5 -37 -1 -5 -2
-11 -1 -15 0 -5 -3 -8 -8 -8 -6 0 -8 -9 -6 -20 2 -11 -2 -20 -8 -20 -8 0 -7
-4 2 -9 13 -8 13 -12 0 -27 -8 -11 -9 -15 -2 -10 9 5 11 2 7 -8 -3 -9 -11 -13
-18 -9 -8 4 -8 3 0 -6 12 -13 7 -61 -6 -61 -4 0 -8 -12 -8 -27 0 -46 -6 -73
-15 -73 -4 0 -5 -6 0 -12 11 -19 15 -50 4 -44 -4 3 -7 -10 -5 -29 1 -20 -1
-33 -5 -31 -4 3 -7 -5 -6 -17 1 -12 0 -26 -3 -32 -4 -5 -7 -16 -8 -25 -3 -20
-12 -55 -14 -55 -1 0 -3 -8 -5 -17 -2 -10 4 -22 13 -27 13 -7 11 -13 -14 -37
-16 -15 -22 -23 -14 -19 12 7 13 6 4 -6 -6 -8 -10 -27 -9 -42 1 -15 -2 -30 -7
-33 -4 -3 -6 -10 -2 -15 3 -5 0 -17 -8 -26 -11 -14 -11 -15 0 -9 10 6 10 0 -2
-22 -18 -36 -20 -46 -6 -37 12 7 12 3 4 -19 -3 -9 -9 -14 -14 -11 -4 2 -6 -16
-5 -41 1 -25 -2 -47 -6 -50 -4 -2 -6 -13 -4 -24 2 -11 0 -22 -5 -25 -5 -3 -7
-16 -4 -30 2 -13 0 -26 -4 -29 -5 -3 -8 -19 -7 -36 1 -16 -3 -30 -9 -30 -6 0
-4 -5 4 -10 11 -8 12 -12 3 -18 -7 -4 -11 -18 -8 -30 2 -12 -1 -24 -6 -28 -5
-3 -7 -14 -4 -24 3 -10 2 -21 -2 -23 -5 -3 -8 -28 -8 -56 0 -27 -3 -47 -8 -44
-5 3 -6 -4 -3 -15 4 -11 2 -23 -4 -27 -6 -4 -8 -15 -5 -25 3 -10 1 -21 -5 -25
-8 -5 -8 -11 1 -21 9 -11 8 -18 -2 -31 -12 -15 -12 -16 1 -8 13 8 13 6 1 -8
-7 -9 -18 -14 -23 -11 -6 4 -5 -3 2 -15 9 -17 9 -26 0 -36 -7 -8 -9 -19 -5
-25 3 -5 1 -10 -5 -10 -7 0 -9 -8 -5 -19 3 -11 1 -22 -4 -25 -6 -4 -7 -14 -4
-23 4 -10 2 -14 -4 -10 -8 5 -10 -3 -6 -24 3 -22 1 -29 -7 -24 -9 5 -10 1 -6
-13 4 -11 2 -23 -4 -27 -6 -4 -8 -16 -4 -27 4 -15 3 -18 -6 -13 -9 5 -10 2 -5
-14 3 -11 2 -21 -3 -21 -5 0 -8 -21 -7 -46 2 -29 -1 -47 -9 -50 -7 -3 -14 -20
-15 -39 -3 -61 -5 -75 -12 -75 -3 0 -5 -11 -4 -25 2 -14 -1 -27 -5 -30 -5 -3
-7 -17 -4 -30 3 -15 0 -25 -7 -25 -6 0 -9 -6 -6 -14 3 -7 0 -19 -6 -26 -9 -10
-9 -11 1 -6 10 6 10 2 0 -21 -6 -15 -17 -34 -22 -42 -9 -12 -8 -13 4 -6 12 7
13 6 4 -6 -6 -8 -10 -26 -9 -41 1 -16 -1 -28 -5 -28 -4 0 -8 -10 -8 -22 -2
-31 -6 -51 -15 -65 -4 -6 -3 -15 3 -18 7 -4 7 -11 2 -18 -5 -7 -8 -27 -7 -45
1 -18 -2 -35 -6 -38 -5 -2 -5 -12 -2 -21 4 -10 2 -14 -4 -10 -6 4 -9 -16 -8
-53 1 -33 -2 -60 -5 -60 -4 0 -6 -18 -5 -40 1 -22 -1 -38 -5 -35 -4 2 -6 -10
-5 -28 2 -18 0 -36 -4 -42 -3 -5 -6 -17 -6 -25 0 -8 -3 -19 -6 -25 -3 -5 -5
-41 -5 -78 1 -38 -2 -71 -6 -73 -5 -3 -4 -13 0 -22 8 -16 8 -34 2 -47 -1 -3
-4 -18 -5 -35 -1 -16 -4 -31 -5 -32 -1 -2 -3 -30 -5 -63 -1 -33 -3 -60 -4 -60
-4 0 -13 -58 -16 -100 -1 -22 -3 -40 -5 -40 -1 0 -3 -16 -4 -35 -1 -19 -5 -40
-9 -47 -4 -6 -3 -15 3 -18 8 -5 7 -12 -2 -23 -9 -11 -9 -14 -1 -9 8 5 8 -1 -2
-19 -10 -20 -11 -33 -3 -47 9 -17 8 -19 -6 -14 -12 5 -15 3 -10 -5 10 -16 13
-158 3 -158 -4 0 -6 -11 -5 -24 0 -13 4 -22 8 -19 10 5 10 -11 1 -21 -4 -4 -8
-17 -9 -29 -2 -12 -4 -39 -6 -60 -3 -20 -1 -37 2 -37 6 0 5 -36 0 -50 -8 -17
-5 -198 3 -214 7 -13 6 -16 -3 -11 -9 5 -10 2 -6 -13 4 -11 2 -23 -4 -27 -7
-4 -8 -11 -2 -18 11 -13 8 -47 -5 -56 -12 -9 -15 -34 -3 -26 5 3 10 -1 10 -10
0 -9 -4 -13 -10 -10 -5 3 -10 1 -10 -4 0 -6 4 -11 8 -11 5 0 9 -7 9 -15 0 -8
-3 -15 -7 -15 -3 0 -5 -25 -5 -55 1 -30 -2 -55 -6 -55 -4 0 -6 -23 -4 -50 2
-36 0 -48 -8 -43 -7 4 -6 -1 2 -10 7 -9 10 -17 6 -17 -4 0 -1 -8 6 -17 12 -15
12 -16 -1 -8 -12 6 -12 5 -3 -5 7 -8 8 -21 4 -34 -5 -11 -7 -31 -6 -43 1 -13
-1 -23 -5 -23 -3 0 -5 -23 -4 -50 1 -38 -2 -50 -13 -50 -12 0 -12 -3 1 -16 19
-19 21 -28 4 -18 -9 5 -9 2 1 -9 7 -9 9 -17 4 -17 -5 0 -9 -19 -8 -42 1 -24
-5 -52 -11 -62 -9 -13 -10 -25 -4 -36 5 -10 6 -21 2 -24 -4 -4 -8 -22 -9 -39
-7 -98 -8 -107 -23 -108 -79 -4 -100 -3 -100 5 0 5 -3 6 -7 3 -3 -4 -13 -1
-21 6 -10 8 -13 8 -9 1 9 -16 -18 -25 -32 -11 -8 8 -11 8 -11 0 0 -7 -10 -10
-25 -7 -14 2 -25 1 -25 -4 0 -5 -7 -9 -15 -9 -8 0 -15 4 -15 8 0 9 -20 6 -38
-4 -19 -13 -32 1 -23 26 4 12 6 28 3 36 -2 8 0 11 5 8 11 -7 11 53 -1 72 -7
10 -6 12 4 6 9 -6 11 -4 4 6 -11 18 -13 239 -2 245 5 3 6 10 2 15 -3 5 -9 7
-14 4 -10 -6 -8 15 4 34 7 10 5 12 -3 6 -10 -5 -11 -3 -4 11 11 22 11 130 0
140 -4 4 -1 14 6 22 10 13 9 14 -3 7 -12 -7 -13 -6 -4 6 6 8 10 53 9 104 -1
50 3 96 8 103 7 9 7 12 -3 10 -13 -3 -23 58 -12 76 10 18 10 76 0 70 -13 -8
-6 28 9 44 7 7 9 20 6 29 -4 10 -2 14 4 10 13 -8 12 11 -1 32 -7 11 -6 12 5 6
11 -7 12 -6 3 6 -12 17 -12 218 1 238 5 9 4 12 -2 8 -5 -4 -9 20 -9 59 1 35 4
64 7 64 3 0 5 15 4 33 -1 17 2 37 7 44 5 6 5 14 0 16 -4 3 -8 33 -7 66 1 34
-2 61 -5 61 -3 0 -6 8 -7 18 -1 9 -4 29 -7 44 -2 17 0 28 7 28 8 0 9 3 1 8 -9
6 -13 171 -4 180 7 6 5 28 -3 39 -6 8 -6 18 0 25 6 7 9 60 8 118 -1 58 2 112
6 121 4 8 4 21 -1 29 -10 17 -1 42 13 33 6 -4 7 -1 1 8 -12 20 -16 38 -16 92
0 26 -3 47 -7 47 -4 0 -7 11 -7 25 0 14 4 25 9 25 4 0 5 5 2 10 -4 6 -10 8
-15 5 -10 -6 -8 15 5 35 5 8 10 31 11 51 1 21 5 42 8 48 4 5 2 12 -4 16 -5 3
-10 11 -10 16 0 6 4 7 10 4 6 -3 7 1 4 9 -3 9 -2 16 3 16 5 0 9 11 9 24 0 14
-4 22 -8 20 -8 -5 -10 7 -11 53 0 13 -4 23 -8 23 -5 0 -9 7 -9 16 0 8 4 13 8
10 5 -3 8 21 7 54 -2 49 1 57 14 53 12 -3 11 -1 -2 7 -15 10 -16 14 -5 28 11
13 11 14 -2 7 -12 -7 -13 -6 -3 6 7 9 8 20 3 29 -5 8 -2 23 8 39 16 24 16 25
-1 18 -9 -3 -18 -3 -18 1 -1 4 -3 17 -4 29 -1 13 -8 29 -15 38 -9 11 -9 15 -1
15 7 0 9 5 6 10 -3 6 -2 10 4 10 5 0 8 10 5 23 -3 12 -7 29 -8 37 -2 8 2 21 8
29 9 12 8 13 -4 7 -9 -5 -8 -2 2 7 14 11 15 16 5 27 -10 10 -9 11 3 5 12 -7
13 -6 4 6 -6 8 -10 48 -9 91 1 42 -2 75 -7 72 -12 -8 -5 19 7 28 6 5 5 12 -4
20 -12 11 -13 10 -6 -2 7 -12 6 -13 -6 -2 -12 11 -12 14 1 22 8 5 11 10 6 10
-6 0 -1 6 10 14 18 14 18 15 2 21 -13 5 -15 12 -9 23 4 10 7 31 6 49 -1 18 2
30 7 27 4 -3 8 1 9 8 0 7 2 21 4 31 2 9 0 17 -4 17 -4 0 -8 7 -8 15 0 8 4 12
9 9 13 -9 9 10 -9 35 -10 15 -11 21 -3 16 10 -6 11 -4 4 6 -12 19 -12 32 -1
47 6 7 6 12 0 12 -12 0 -11 50 1 69 7 11 6 12 -5 6 -12 -8 -12 -6 0 8 7 9 9
17 4 17 -13 0 -11 50 1 50 6 0 3 5 -7 11 -18 10 -18 11 0 32 10 11 12 17 4 12
-11 -6 -12 -5 -5 6 5 8 10 28 11 44 1 17 3 39 4 50 1 11 -1 31 -5 44 -6 18 -5
22 4 16 9 -6 11 -4 4 6 -13 21 -14 38 -2 46 7 4 8 1 3 -7 -5 -9 -4 -11 3 -6 9
5 8 13 -1 29 -8 13 -13 50 -12 95 1 39 -1 72 -5 72 -3 0 -6 14 -6 30 -1 17 3
30 8 30 5 0 7 4 4 9 -3 4 1 17 9 27 16 21 20 38 6 30 -5 -3 -11 1 -15 9 -3 8
0 17 5 21 7 4 7 10 1 16 -13 13 -3 50 12 41 7 -4 7 -1 -1 8 -7 9 -14 24 -16
35 -1 10 -7 25 -11 33 -7 10 -6 12 4 6 9 -6 11 -4 4 6 -12 20 -13 92 -1 107 8
10 7 16 -2 21 -16 10 -16 22 1 32 8 6 9 12 3 17 -12 9 -16 82 -4 82 5 0 7 18
5 40 -2 22 0 38 5 35 4 -3 7 8 6 25 -1 16 -6 30 -10 30 -5 0 -5 6 -1 12 11 17
13 98 3 98 -11 0 -1 44 10 48 5 2 7 17 4 34 -3 23 -1 28 9 22 10 -6 10 -4 -1
9 -7 9 -10 17 -5 17 5 0 3 4 -5 9 -10 6 -15 29 -15 68 -1 32 -5 56 -10 55 -5
-2 -12 2 -16 9 -9 13 10 40 22 32 4 -2 5 2 2 10 -3 8 0 18 5 22 6 3 8 12 4 18
-10 17 -13 37 -4 37 4 0 7 22 6 49 -1 28 2 48 7 45 4 -3 8 -3 8 0 0 2 3 11 6
19 3 10 0 14 -12 14 -9 -1 -18 6 -19 16 -2 10 1 14 8 10 6 -4 8 0 4 10 -3 9
-2 19 2 21 9 6 7 93 -3 139 -4 17 -2 27 5 27 8 0 7 5 -2 16 -10 12 -10 17 -1
23 8 4 10 15 6 26 -6 14 -4 16 6 10 10 -6 11 -4 4 6 -10 17 -13 118 -4 124 4
2 5 26 3 52 -9 117 -9 169 1 182 8 11 8 13 0 8 -14 -8 -29 23 -16 32 4 3 7 26
7 51 -1 25 3 51 9 59 8 11 8 13 -1 7 -9 -5 -11 -2 -7 8 3 9 11 13 16 10 7 -4
7 0 0 12 -15 28 -15 36 0 45 10 7 10 9 -2 9 -13 0 -13 1 0 10 10 7 11 10 2 10
-8 0 -11 9 -8 25 3 14 0 25 -5 25 -6 0 -6 7 1 19 5 11 6 22 2 25 -11 7 -9 77
2 95 6 10 5 12 -2 7 -15 -9 -11 20 6 52 7 12 8 22 3 22 -10 0 -9 25 2 36 3 4
3 12 0 18 -12 18 -12 37 -3 62 7 18 6 22 -5 17 -18 -6 -19 8 -2 26 10 11 9 12
-3 6 -12 -7 -13 -6 -4 6 12 15 11 53 -2 83 -5 13 -4 17 4 12 7 -4 10 3 8 21
-1 16 2 34 8 42 15 19 16 40 2 35 -7 -3 -13 2 -13 11 0 8 4 15 10 15 5 0 7 6
4 13 -2 6 3 18 12 25 9 8 10 11 3 7 -16 -8 -11 27 8 51 8 10 10 15 4 11 -9 -5
-11 7 -9 43 2 28 -1 48 -6 44 -5 -3 -9 0 -9 5 0 6 4 11 8 11 5 0 9 6 9 14 0 8
-6 12 -14 9 -10 -4 -11 0 -5 18 5 13 8 32 6 42 -1 9 2 15 7 11 10 -6 8 24 -3
41 -7 11 -3 50 7 80 5 15 4 16 -3 6 -7 -10 -9 5 -8 48 0 33 4 61 9 61 4 0 7 5
7 11 0 5 -4 8 -9 5 -11 -7 -8 21 4 31 4 4 5 2 0 -6 -6 -10 -4 -12 4 -7 9 6 9
11 1 21 -17 21 -21 57 -7 74 10 12 9 13 -3 6 -12 -6 -13 -5 -3 5 9 10 10 17 2
27 -9 10 -8 13 1 13 8 0 10 3 7 7 -4 3 -2 12 4 20 6 7 8 13 3 13 -5 0 -2 4 5
9 10 7 16 30 17 73 1 35 3 63 4 63 8 0 4 63 -4 74 -9 12 -8 13 4 6 12 -6 13
-5 2 6 -14 15 -17 33 -4 25 10 -6 9 24 -1 41 -8 12 1 43 12 43 4 0 8 7 8 15 0
8 -3 15 -7 15 -5 0 -5 81 0 88 7 7 5 29 -4 41 -9 12 -8 13 4 6 13 -8 13 -7 1
8 -7 9 -10 17 -5 17 4 0 3 5 -4 12 -15 15 -16 42 0 32 7 -5 8 -3 2 7 -9 16
-13 109 -4 109 3 0 5 19 5 43 -1 23 3 48 8 55 6 8 6 12 -2 12 -9 0 -9 5 -1 20
6 11 7 20 3 20 -4 0 -2 4 5 9 12 7 12 12 1 30 -11 16 -11 25 -2 39 6 11 8 24
3 33 -5 8 -4 19 3 28 10 12 9 13 -2 6 -11 -6 -13 -4 -8 8 3 9 2 19 -3 22 -6 4
-10 13 -10 21 0 8 4 13 10 9 5 -3 8 10 5 32 -2 21 1 45 6 55 6 11 5 19 -1 23
-8 5 -8 11 -1 19 6 7 8 24 6 38 -3 15 0 30 6 34 8 5 9 3 4 -7 -5 -8 -4 -11 1
-6 10 10 14 67 5 67 -8 0 -8 191 0 205 3 6 5 33 4 62 0 28 3 49 7 47 4 -3 8 0
8 6 0 6 5 8 12 4 7 -4 8 -3 4 5 -4 6 -12 9 -17 6 -10 -7 -11 -6 -13 54 -1 26
-7 46 -14 49 -10 3 -10 7 -1 19 14 16 20 53 10 53 -4 0 -6 27 -6 60 0 33 -4
60 -10 60 -6 0 -6 3 1 8 6 4 10 32 9 65 -1 31 2 57 7 57 5 0 6 5 3 10 -3 6 -2
10 4 10 10 0 9 19 -2 38 -5 6 -4 12 0 12 5 0 9 11 9 25 0 14 -4 25 -9 25 -5 0
-6 7 -3 16 4 10 2 13 -6 8 -7 -5 -9 0 -6 14 4 12 3 22 -1 22 -6 0 -7 91 -1 98
5 5 6 28 1 37 -3 6 -6 28 -6 50 0 22 -4 46 -9 54 -7 10 -6 12 4 6 10 -6 11 -4
4 6 -10 16 -13 89 -3 89 4 0 5 16 3 35 -1 20 1 33 6 30 10 -6 8 15 -4 34 -10
15 12 34 28 24 5 -3 6 -1 2 5 -4 7 -1 12 6 12 9 0 9 3 -2 10 -17 11 -20 28 -8
53 5 10 5 17 -1 17 -5 0 -12 7 -15 16 -4 10 -2 13 7 8 9 -6 9 -4 1 7 -13 15
-12 43 1 73 5 11 3 21 -4 26 -14 8 -14 16 0 42 5 9 5 19 1 22 -15 9 -8 71 7
68 11 -2 10 3 -3 23 -13 20 -14 30 -5 46 9 17 8 20 -3 14 -10 -6 -11 -5 -1 5
10 11 10 17 0 28 -9 12 -9 16 1 19 6 3 10 9 7 14 -4 5 0 6 8 4 10 -5 13 9 13
60 0 36 -3 65 -7 65 -4 0 -7 9 -6 20 1 11 5 20 10 20 5 0 7 7 3 15 -3 10 1 15
12 16 10 0 12 3 5 6 -18 7 -16 33 3 33 8 0 13 -4 9 -9 -3 -5 -1 -13 5 -16 6
-4 9 -1 8 6 -2 8 7 14 22 15 14 0 30 2 35 4 23 6 93 5 88 -2 -2 -5 1 -8 6 -8
6 0 11 4 11 9 0 5 11 8 25 6 14 -1 25 3 25 8 0 7 4 7 12 -1 13 -13 32 -16 24
-4 -2 4 8 8 24 7 15 0 26 -3 23 -7 -2 -5 6 -4 19 0 13 5 33 7 45 6 13 0 23 3
23 9 0 5 8 3 17 -4 14 -12 16 -12 8 0 -6 11 -2 13 19 7 20 -5 26 -3 21 5 -5 8
-1 9 13 5 11 -4 23 -2 27 4 4 6 12 7 23 1 9 -5 23 -6 32 -1 18 10 76 8 86 -3
4 -3 14 -3 23 2 9 5 36 7 61 6 25 -1 51 3 59 9 12 9 13 8 6 -4 -8 -13 -7 -13
8 -1 10 8 17 9 17 3 0 -9 39 -10 75 -2 6 1 12 1 15 0 15 -7 88 -6 107 1 13 5
23 5 23 0 0 -4 36 -7 80 -6 54 1 84 -3 91 -11 6 -7 20 -10 32 -7 12 3 33 5 47
5 14 0 31 5 39 11 10 8 13 9 8 1 -4 -7 2 -11 18 -11 14 0 22 3 19 8 -7 12 13
11 36 -1 13 -7 21 -7 25 0 4 7 12 7 24 0 10 -5 21 -6 25 -3 3 3 6 1 6 -5 0 -6
6 -9 14 -6 8 3 17 1 21 -5 4 -7 12 -8 24 -2 9 5 36 8 59 7 31 -2 45 2 52 13
10 18 19 18 31 0 12 -21 38 -19 54 4 8 12 15 18 15 13 0 -5 7 -3 15 4 15 12
20 6 16 -25 -1 -11 143 -14 155 -3 4 4 12 4 18 1 20 -13 65 -9 71 5 3 8 12 11
20 8 8 -3 15 -1 15 4 0 6 4 10 9 10 6 0 8 -9 6 -20 -2 -12 0 -18 6 -15 5 4 7
10 4 15 -3 5 -1 11 4 14 5 4 13 2 16 -4 5 -8 11 -7 21 1 11 9 14 9 14 0 0 -7
5 -9 10 -6 6 3 10 2 10 -3 0 -5 11 -8 25 -7 14 2 25 0 25 -3 0 -4 18 -8 40 -8
22 -1 37 3 33 9 -3 5 2 6 13 0 11 -5 42 -9 69 -8 28 1 55 -2 60 -5 11 -8 419
-5 595 4 63 4 145 8 182 9 37 2 71 6 74 10 4 4 13 2 21 -4 9 -9 13 -8 13 0 0
6 7 11 15 11 8 0 15 -6 15 -12 0 -8 3 -9 8 -3 8 11 27 17 60 17 12 0 25 5 28
10 4 6 10 5 15 -3 8 -12 10 -12 18 0 5 8 14 10 22 5 19 -11 40 -14 34 -4 -7
12 20 19 35 10 8 -5 21 -5 29 -1 21 9 62 8 80 -3 9 -6 12 -5 7 2 -6 9 41 10
69 1 6 -2 19 2 30 8 29 16 37 16 46 1 7 -11 9 -11 9 1 0 11 3 11 17 0 15 -12
16 -12 8 1 -8 13 -7 13 8 1 9 -7 17 -10 17 -7 0 4 6 4 13 -1 19 -12 37 -12 37
-1 0 7 5 6 14 -1 9 -8 16 -8 20 -2 4 7 15 7 30 1 13 -5 27 -6 30 -3 3 4 6 0 6
-7 0 -9 5 -7 14 6 8 10 18 16 22 12 4 -4 13 -3 21 3 10 9 17 8 30 -2 14 -12
16 -12 8 0 -6 10 -4 12 5 6 16 -10 162 -16 156 -6 -2 3 7 7 20 7 13 1 22 -2
19 -6 -6 -10 15 -8 33 4 7 4 20 2 29 -6 9 -7 14 -8 10 -2 -4 8 3 12 21 12 15
0 39 2 55 5 15 2 29 1 32 -3 6 -9 65 -11 65 -2 0 9 53 7 68 -2 7 -4 12 -3 12
2 0 10 68 8 78 -3 4 -5 -2 -5 -13 -1 -16 6 -17 5 -8 -5 10 -10 16 -9 28 1 17
14 147 21 138 8 -2 -5 1 -8 6 -8 6 0 11 5 11 10 0 6 5 10 11 10 5 0 7 -5 4
-10 -4 -6 3 -9 17 -6 13 2 29 -1 36 -6 8 -7 12 -7 12 0 0 14 52 11 62 -3 5 -6
8 -5 8 4 0 11 3 11 17 0 14 -12 16 -12 8 0 -6 11 -5 12 6 5 20 -12 51 -16 44
-5 -3 6 14 8 40 6 25 -3 44 -1 41 3 -10 17 86 3 107 -15 21 -17 21 -17 8 0
-13 16 -12 18 10 15 13 -2 30 -7 38 -12 10 -6 12 -5 7 2 -8 13 6 17 18 5 9
-10 37 -13 31 -3 -2 4 27 6 65 5 39 -1 73 1 75 5 2 4 17 6 32 3 16 -2 38 -5
51 -7 12 -1 25 -6 28 -9 4 -4 12 -3 18 0 14 9 56 12 56 4 0 -4 33 -7 73 -9
105 -3 201 -9 207 -12 15 -8 100 -4 100 5 0 5 5 2 10 -7 8 -13 17 -15 40 -8
19 5 28 5 25 -1 -4 -5 -1 -9 4 -9 6 0 11 4 11 8 0 4 11 9 26 10 14 1 23 -2 20
-6 -3 -5 1 -9 9 -9 8 0 11 5 8 10 -4 6 -1 7 8 1 18 -11 71 -13 86 -2 6 5 14 5
17 -1 4 -6 14 -7 23 -4 12 5 14 3 8 -8 -8 -12 -6 -12 9 0 14 12 21 13 38 2 11
-7 18 -8 14 -3 -7 11 64 10 82 -1 6 -5 12 -4 12 0 0 5 9 9 20 10 13 1 18 -2
14 -9 -4 -7 -2 -8 5 -4 6 4 18 2 26 -4 8 -7 15 -8 15 -3 0 5 9 9 20 10 11 1
18 -2 15 -7 -3 -4 11 -4 30 0 20 5 33 4 29 -1 -3 -5 0 -9 5 -9 6 0 11 5 11 11
0 5 4 8 10 4 16 -10 121 -14 115 -4 -8 12 2 11 25 -1 12 -6 21 -6 25 -1 3 5
17 8 30 5 16 -3 24 0 23 7 -2 6 10 13 25 16 16 2 26 0 23 -5 -3 -6 9 -8 27 -7
17 2 32 4 32 5 0 1 10 3 23 4 13 2 27 -4 32 -13 5 -9 12 -13 16 -9 4 5 14 2
22 -5 13 -10 14 -9 7 2 -6 11 -4 13 9 8 9 -4 27 0 40 8 12 8 26 12 30 8 9 -9
46 -11 46 -3 0 4 11 8 25 8 13 0 22 -4 19 -9 -3 -5 2 -6 10 -3 9 3 14 10 11
14 -3 5 3 7 12 5 10 -1 24 3 32 9 12 9 13 8 6 -4 -8 -13 -6 -13 8 -2 9 8 21
11 26 7 6 -3 20 -1 32 6 17 9 23 8 30 -2 6 -9 12 -10 17 -4 4 6 27 11 52 12
25 0 68 3 95 5 34 3 55 0 67 -9 12 -11 18 -12 24 -2 5 8 3 10 -7 4 -11 -6 -11
-5 -3 4 9 10 17 10 32 2 12 -6 23 -7 26 -3 3 5 20 7 37 4 27 -4 31 -2 26 12
-7 19 18 23 29 4z m-2031 -1683 c39 1 75 -3 82 -8 7 -5 28 -9 48 -10 19 -1 35
-5 35 -9 0 -4 12 -8 26 -8 21 0 24 -4 19 -20 -5 -14 -2 -20 9 -20 9 0 16 -5
16 -11 0 -7 9 -9 24 -5 24 6 47 -12 60 -47 3 -11 15 -21 26 -24 11 -3 20 -12
20 -19 0 -8 6 -14 14 -14 15 0 26 -21 26 -51 0 -10 6 -19 14 -19 17 0 50 -66
41 -81 -4 -6 0 -16 8 -22 14 -11 47 -101 47 -129 0 -7 10 -33 22 -58 11 -25
22 -56 24 -68 1 -13 10 -34 18 -48 9 -13 16 -32 16 -43 0 -11 5 -23 10 -26 6
-4 8 -11 5 -16 -4 -5 -1 -9 5 -9 7 0 9 -7 6 -16 -4 -9 -1 -23 5 -31 9 -10 9
-17 1 -25 -7 -7 -8 -16 -3 -22 16 -21 29 -95 18 -99 -6 -2 -7 -9 -2 -17 5 -8
8 -29 6 -47 -1 -18 1 -38 5 -45 5 -7 9 -17 9 -23 3 -31 18 -85 25 -85 4 0 10
-15 13 -32 3 -18 11 -55 17 -83 6 -27 13 -63 16 -80 3 -16 8 -37 11 -45 3 -8
5 -24 4 -36 -1 -11 4 -33 10 -50 7 -16 14 -44 16 -63 2 -18 8 -41 13 -51 6
-10 10 -30 10 -44 0 -30 27 -140 42 -173 6 -11 8 -25 4 -31 -6 -10 11 -179 20
-194 3 -5 7 -36 8 -70 2 -36 7 -63 14 -66 7 -2 12 -8 12 -13 0 -6 -5 -7 -12
-3 -8 5 -9 0 -4 -17 37 -122 59 -209 59 -237 0 -18 4 -27 8 -20 4 7 10 -4 14
-28 4 -21 9 -46 11 -54 2 -8 3 -19 3 -24 0 -5 4 -12 10 -15 5 -4 11 -24 12
-46 1 -22 5 -44 8 -50 6 -12 7 -18 9 -63 1 -18 6 -31 11 -28 5 3 7 -16 5 -43
-3 -29 0 -52 6 -56 6 -3 7 -11 4 -17 -4 -6 0 -14 7 -19 12 -8 12 -11 -1 -19
-13 -8 -13 -13 4 -44 10 -19 15 -42 12 -54 -4 -12 -1 -26 8 -35 8 -8 15 -23
15 -33 1 -44 4 -61 13 -99 6 -22 13 -53 15 -70 3 -16 8 -37 13 -45 4 -8 8 -35
9 -60 2 -66 5 -82 19 -108 10 -17 11 -27 2 -37 -7 -9 -8 -19 -1 -32 8 -16 38
-157 46 -223 2 -13 7 -47 11 -75 4 -27 7 -58 5 -67 -1 -10 5 -33 15 -53 9 -19
13 -42 10 -52 -7 -17 -1 -47 42 -218 38 -153 46 -208 56 -385 3 -47 7 -98 10
-115 3 -16 7 -66 11 -110 3 -44 8 -88 11 -97 12 -40 45 -238 68 -408 9 -69 22
-159 28 -200 6 -41 10 -84 11 -95 0 -34 25 -174 52 -295 15 -63 33 -155 41
-205 8 -49 17 -99 19 -110 25 -133 47 -266 54 -335 12 -105 28 -172 57 -227
20 -38 21 -44 7 -70 -8 -15 -16 -48 -18 -72 -2 -24 -9 -47 -15 -51 -6 -4 -8
-33 -6 -76 3 -43 0 -74 -7 -83 -9 -11 -9 -15 1 -19 9 -3 5 -11 -12 -27 -15
-14 -23 -30 -20 -38 3 -8 1 -18 -5 -22 -16 -10 -13 -43 5 -53 14 -8 14 -11 -2
-27 -11 -10 -19 -36 -21 -64 -7 -101 -15 -151 -25 -151 -5 0 -7 -8 -4 -18 3
-10 -2 -34 -13 -54 -10 -22 -16 -48 -13 -63 2 -15 -1 -37 -8 -50 -7 -14 -10
-39 -7 -59 4 -27 2 -36 -9 -36 -8 0 -14 -6 -15 -12 0 -7 -3 -24 -5 -38 -2 -14
-6 -57 -9 -96 -2 -38 -11 -86 -19 -105 -19 -47 -31 -159 -17 -159 6 0 11 -4
11 -10 0 -5 -10 -10 -21 -10 -16 0 -20 -5 -16 -20 3 -13 0 -20 -9 -20 -8 0
-14 -6 -15 -12 -1 -7 -2 -38 -4 -68 -2 -30 -12 -78 -24 -107 -15 -38 -17 -53
-8 -56 8 -3 6 -10 -6 -25 -21 -23 -36 -144 -31 -239 2 -29 -1 -53 -6 -53 -5 0
-9 -8 -9 -18 0 -20 -16 -187 -32 -327 -6 -56 -7 -113 -4 -128 5 -17 2 -33 -6
-43 -10 -12 -10 -15 1 -12 7 2 15 -3 17 -9 3 -7 -2 -13 -11 -13 -17 0 -21 -19
-17 -78 2 -18 -5 -65 -13 -105 -21 -94 -46 -235 -57 -322 -4 -38 -13 -87 -18
-109 -5 -21 -7 -44 -5 -51 7 -18 -13 -28 -33 -16 -12 6 -20 5 -28 -5 -7 -10
-40 -16 -110 -19 -149 -8 -192 -13 -215 -25 -12 -6 -67 -10 -139 -8 -66 1
-123 -1 -127 -4 -4 -4 -11 -5 -17 -1 -5 3 -62 6 -126 6 -64 0 -120 2 -124 4
-4 3 -62 7 -128 9 -65 2 -122 5 -127 5 -4 1 -9 0 -12 -1 -10 -4 -405 -7 -413
-3 -4 2 -62 6 -130 8 -67 1 -218 6 -336 9 -163 5 -217 3 -222 -6 -6 -9 -13 -8
-27 5 -16 14 -38 18 -104 18 -47 0 -89 -1 -94 -2 -5 -1 -17 1 -27 6 -9 4 -23
3 -30 -2 -6 -5 -55 -8 -107 -6 -52 1 -159 3 -237 4 -126 2 -169 9 -131 21 7 3
8 9 3 19 -5 8 -8 24 -6 37 1 12 -2 22 -8 22 -7 0 -11 24 -12 58 0 48 -6 110
-22 237 -1 11 1 40 4 65 4 25 5 49 2 53 -3 5 -6 46 -8 92 -2 46 -6 89 -10 95
-4 6 -2 17 5 25 7 8 7 15 1 19 -6 4 -6 18 -1 36 5 18 5 56 -1 93 -6 34 -9 76
-7 94 1 17 0 35 -4 38 -3 3 -3 20 1 38 4 18 4 73 -1 122 -4 50 -10 139 -12
198 -2 63 -8 113 -15 120 -6 6 -11 18 -11 26 0 8 -7 23 -17 33 -11 13 -12 18
-3 18 10 0 9 4 -1 17 -10 11 -14 46 -14 113 0 54 -5 104 -11 111 -6 8 -11 48
-12 89 -3 123 -25 257 -53 325 -11 26 -15 77 -7 90 16 26 -11 273 -33 301 -4
5 -6 20 -2 32 3 12 -1 32 -9 44 -14 21 -26 82 -31 148 -1 14 -6 28 -12 32 -15
11 -14 48 1 48 9 0 14 11 14 30 0 17 -4 30 -10 30 -5 0 -10 18 -10 39 0 22 -5
43 -10 46 -6 4 -8 21 -5 39 5 23 2 36 -9 45 -11 9 -13 19 -5 37 13 37 11 100
-5 113 -9 7 -13 29 -11 61 1 27 -4 61 -11 76 -17 33 -18 31 5 37 17 4 28 23
61 102 5 11 14 46 20 77 6 32 16 60 21 64 6 3 8 17 4 31 -3 14 -1 31 5 39 7 7
9 17 7 21 -8 13 22 256 36 293 7 18 17 80 21 130 1 19 6 76 10 125 11 124 13
142 24 205 5 30 8 69 5 86 -3 18 0 35 6 38 6 4 11 16 11 27 0 10 5 19 10 19 6
0 10 7 10 15 0 8 -5 15 -11 15 -8 0 -8 4 1 15 6 8 9 19 6 24 -4 5 -2 12 4 16
6 4 8 10 5 15 -3 5 -1 19 6 32 7 13 11 63 10 130 -1 60 2 115 6 121 4 7 8 48
9 92 2 80 20 191 34 210 4 6 15 46 25 90 9 44 21 95 25 114 6 21 5 41 -1 52
-11 22 13 195 30 212 6 6 11 25 11 42 0 16 7 43 15 59 8 15 15 41 15 56 0 16
6 35 13 42 18 18 60 165 53 185 -4 8 -2 21 3 27 20 25 37 130 44 276 2 36 9
75 15 86 6 11 11 40 11 64 1 57 6 97 16 133 5 20 4 27 -6 27 -8 0 -5 8 9 18
20 16 23 28 26 97 2 44 6 88 11 98 4 9 5 24 2 32 -4 8 -2 17 2 20 5 3 7 14 4
25 -3 11 0 26 6 33 6 8 10 31 10 53 -4 100 3 174 16 182 8 4 16 30 19 57 4 28
10 73 16 100 8 45 15 110 25 228 2 20 8 43 14 50 13 17 51 135 51 162 0 11 7
30 15 42 9 12 17 46 19 75 2 29 7 60 11 69 3 10 1 20 -5 24 -8 5 -7 12 4 24 9
10 17 31 19 47 2 16 8 38 14 49 6 11 15 38 19 60 4 22 18 63 31 92 12 30 23
67 23 83 0 27 15 66 30 80 4 3 18 30 33 60 15 30 31 62 36 70 33 55 61 122 61
144 0 15 8 30 20 36 11 6 20 20 20 30 0 11 4 28 10 38 20 37 69 150 75 175 4
15 11 30 16 33 5 3 9 15 9 28 0 12 5 27 11 33 6 6 12 28 13 50 2 25 12 49 30
67 14 16 26 35 26 42 0 8 5 14 10 14 6 0 10 6 10 13 0 6 13 18 29 25 21 9 28
18 24 32 -3 12 1 22 11 26 9 3 16 13 16 22 0 69 129 213 233 260 44 20 71 39
78 56 7 14 17 22 25 19 8 -3 14 0 14 7 0 19 43 60 63 60 10 0 17 5 15 12 -6
16 57 47 80 41 10 -2 24 3 31 11 8 9 21 16 31 16 9 0 25 9 35 20 13 14 22 17
35 10 13 -7 22 -4 35 10 11 12 23 17 29 12 6 -5 43 -8 81 -7z m-3524 -2842
c13 -16 12 -17 -3 -4 -17 13 -22 21 -14 21 2 0 10 -8 17 -17z m7172 -267 c4
-9 15 -12 32 -8 24 4 26 2 21 -16 -5 -16 -1 -23 20 -34 19 -9 31 -25 36 -48 5
-19 20 -57 33 -85 52 -111 65 -145 65 -169 0 -15 5 -26 10 -26 6 0 10 -6 10
-14 0 -7 6 -36 14 -62 8 -27 21 -83 30 -124 9 -41 25 -109 37 -150 23 -86 39
-152 44 -195 2 -16 7 -50 10 -75 3 -25 12 -65 20 -90 25 -81 39 -165 50 -305
17 -209 25 -274 36 -281 5 -3 9 -20 9 -37 0 -18 6 -63 14 -102 8 -38 17 -95
21 -125 8 -69 12 -94 15 -100 1 -3 4 -36 5 -75 1 -38 4 -81 7 -95 3 -14 8 -54
12 -90 4 -36 11 -85 16 -110 11 -52 39 -244 45 -310 4 -51 52 -308 60 -319 4
-7 19 -114 30 -216 1 -11 6 -51 10 -90 4 -38 10 -74 13 -80 3 -5 5 -23 4 -40
-3 -43 45 -349 55 -352 5 -2 7 -19 5 -38 -2 -19 -1 -43 3 -52 4 -10 8 -34 10
-53 1 -19 8 -64 14 -100 7 -36 15 -97 20 -137 4 -40 13 -78 19 -86 7 -7 14
-51 17 -96 2 -45 7 -87 11 -92 3 -6 12 -49 20 -97 8 -48 16 -98 19 -112 2 -14
7 -52 10 -85 4 -33 12 -65 17 -72 5 -7 7 -16 4 -22 -5 -8 2 -120 19 -318 3
-29 11 -81 19 -115 20 -83 47 -258 42 -266 -5 -9 15 -209 34 -332 5 -36 14
-117 20 -180 13 -140 37 -358 50 -460 6 -41 13 -102 16 -135 3 -33 7 -67 10
-76 2 -8 0 -36 -5 -61 -4 -26 -5 -50 -1 -55 4 -4 10 -36 13 -71 4 -53 3 -62
-11 -63 -10 0 -71 -2 -137 -5 -66 -2 -132 -6 -147 -8 -16 -2 -30 -1 -32 2 -2
4 -86 5 -186 2 -100 -3 -191 -2 -202 3 -12 4 -26 3 -34 -4 -9 -7 -18 -7 -33 0
-16 9 -22 8 -30 -6 -8 -15 -12 -16 -22 -5 -16 15 -66 16 -71 1 -2 -7 -12 -7
-30 0 -18 7 -29 7 -33 0 -4 -5 -10 -7 -15 -4 -5 3 -27 1 -48 -5 -49 -13 -340
-22 -347 -11 -5 9 -257 6 -352 -3 -25 -3 -51 -2 -57 2 -19 12 -320 10 -335 -2
-10 -8 -15 -8 -18 0 -2 7 -22 10 -48 8 -24 -2 -47 1 -50 7 -5 7 -11 6 -20 -1
-10 -8 -27 -9 -59 -2 -25 5 -48 7 -51 4 -6 -7 -26 -9 -135 -16 -47 -3 -99 -8
-115 -11 -17 -3 -45 -1 -63 4 -17 5 -32 6 -32 2 0 -9 -31 -8 -47 2 -6 4 -32 3
-58 -3 -25 -6 -72 -8 -105 -6 -33 3 -62 1 -64 -3 -3 -4 -62 -9 -130 -9 -69 -1
-131 -3 -137 -4 -14 -3 -21 130 -8 138 4 2 6 22 4 44 -2 22 0 42 5 45 4 3 8
26 8 53 0 26 3 65 7 86 4 22 9 49 10 60 1 12 3 21 4 21 5 0 9 33 15 118 4 48
12 101 17 119 10 34 26 146 35 252 3 32 10 70 15 83 5 14 7 28 4 33 -3 4 2 43
10 86 8 42 12 87 9 99 -3 13 -1 26 5 29 7 5 7 13 -1 26 -9 14 -9 25 0 45 7 14
12 46 12 70 0 24 4 45 9 47 5 2 11 46 13 98 3 53 8 102 13 110 5 8 8 31 6 52
-2 24 2 38 9 38 7 0 10 8 7 19 -2 10 0 27 6 37 6 10 14 34 18 54 4 19 19 67
34 105 15 39 29 87 32 108 3 20 9 37 14 37 13 0 11 48 -2 52 -8 3 -7 17 2 48
7 25 14 56 15 70 9 133 18 181 38 202 12 13 19 32 18 49 -2 15 2 30 7 34 7 4
9 22 5 45 -5 32 -3 41 10 46 9 4 16 14 15 23 -3 28 26 82 38 70 14 -14 27 99
13 116 -8 9 -6 17 5 29 9 9 15 28 14 44 -2 15 2 37 9 49 7 12 12 33 12 46 0
14 9 69 20 122 11 54 18 100 15 103 -3 3 -1 10 4 16 5 6 16 47 26 91 9 44 21
84 26 90 5 5 9 22 9 37 0 16 4 36 9 46 6 9 19 71 31 137 12 66 27 152 35 190
7 39 11 73 9 77 -2 4 1 10 8 14 8 5 4 10 -10 15 -27 10 -29 29 -2 29 12 0 22
8 25 23 18 82 23 111 18 123 -3 8 -1 20 5 27 8 10 17 53 26 122 5 40 28 141
37 160 10 24 29 125 34 180 5 62 44 284 61 345 32 117 36 128 50 123 8 -3 14
0 14 6 0 6 -5 11 -11 11 -6 0 -3 7 5 16 19 19 20 31 4 38 -10 3 -8 8 4 16 12
8 16 20 12 46 -4 32 -2 35 16 29 15 -5 21 0 26 21 4 15 2 35 -5 45 -16 27 -14
38 9 32 11 -3 20 0 20 6 0 6 -4 11 -10 11 -5 0 -10 5 -10 10 0 6 7 10 15 10 8
0 15 9 15 21 0 11 5 29 11 40 7 15 7 24 -2 35 -9 11 -9 14 2 14 13 0 46 78 54
125 2 11 4 20 5 20 2 0 4 10 5 21 3 25 92 207 139 281 18 29 41 79 51 110 10
32 20 65 23 73 3 8 4 23 3 33 -1 9 2 17 7 17 6 0 13 12 16 28 6 23 87 200 118
257 7 11 17 30 23 42 7 13 24 35 38 49 15 15 27 33 27 40 0 8 5 14 10 14 6 0
10 7 10 14 0 8 11 36 25 62 14 26 25 51 25 56 0 5 16 43 37 86 34 71 116 172
140 172 6 0 14 10 20 22 10 23 12 23 151 30 28 1 52 6 52 10 0 14 38 9 43 -6z
m-7484 -21 c6 3 8 0 5 -8 -3 -10 4 -14 25 -15 18 0 32 5 35 15 4 8 12 13 20
10 7 -3 18 -1 24 5 10 10 52 -9 52 -24 0 -5 7 -8 15 -8 9 0 12 6 9 15 -7 17
11 21 21 4 4 -6 14 -8 22 -5 8 3 24 0 36 -6 12 -7 24 -13 27 -14 3 0 13 -4 23
-9 10 -4 31 -5 47 -1 17 3 30 1 30 -4 0 -10 56 -40 75 -40 13 0 46 -29 158
-138 98 -95 96 -93 113 -163 8 -35 19 -72 25 -82 5 -10 7 -22 5 -26 -7 -11 21
-107 45 -151 23 -44 39 -107 32 -126 -3 -7 2 -16 10 -20 10 -3 14 -16 12 -38
-4 -37 11 -122 25 -148 6 -10 10 -28 10 -42 0 -13 9 -50 19 -83 10 -32 17 -71
14 -86 -3 -15 -1 -27 4 -27 5 0 10 -28 10 -62 2 -95 15 -229 28 -288 20 -90
40 -139 59 -144 20 -6 20 -7 3 -17 -14 -8 -17 -21 -16 -55 2 -25 6 -47 9 -49
3 -2 5 -43 3 -91 -1 -61 2 -93 11 -106 9 -13 11 -29 7 -46 -4 -15 -6 -45 -5
-67 4 -73 14 -190 19 -220 3 -16 7 -50 9 -75 2 -25 10 -58 16 -75 7 -16 14
-52 16 -80 2 -27 7 -75 11 -105 4 -30 7 -62 8 -70 0 -8 6 -25 13 -37 7 -13 9
-23 5 -23 -13 0 -14 -192 -2 -207 6 -7 8 -20 5 -29 -6 -16 19 -260 30 -288 3
-9 11 -16 16 -16 7 0 6 -5 -1 -13 -6 -8 -8 -17 -4 -20 3 -4 7 -31 8 -59 1 -29
7 -89 14 -133 8 -44 14 -96 16 -115 1 -19 7 -64 13 -100 6 -36 14 -86 17 -112
3 -27 11 -48 18 -48 8 0 8 -3 0 -11 -9 -9 -7 -29 10 -104 2 -11 8 -51 12 -90
4 -38 9 -81 11 -95 1 -14 6 -63 9 -110 3 -47 13 -98 21 -114 8 -18 10 -33 5
-40 -6 -7 -2 -40 10 -86 10 -41 19 -92 19 -112 0 -21 7 -59 16 -85 11 -33 13
-48 5 -51 -6 -2 -8 -9 -4 -15 4 -7 8 -29 8 -50 1 -22 7 -42 16 -48 10 -6 10
-9 2 -9 -18 0 -16 -20 4 -42 11 -12 12 -18 3 -18 -9 0 -10 -10 -5 -37 4 -21
11 -65 16 -98 6 -33 12 -71 15 -85 3 -14 10 -73 17 -132 7 -58 14 -109 17
-111 3 -3 5 -33 4 -66 -1 -34 2 -61 5 -61 3 0 7 -21 7 -46 1 -41 8 -62 35
-116 4 -9 4 -29 0 -45 -5 -18 -5 -37 1 -48 8 -13 7 -16 -1 -11 -17 11 -14 -29
4 -44 8 -7 15 -16 15 -21 0 -5 -7 -9 -15 -9 -8 0 -15 -7 -15 -15 0 -8 5 -14
11 -12 6 1 13 -6 14 -15 2 -10 -1 -18 -6 -18 -5 0 -9 -9 -9 -20 0 -11 4 -20 8
-20 5 0 10 -17 11 -37 3 -64 9 -115 21 -193 7 -41 12 -87 11 -102 -1 -14 3
-38 9 -53 7 -17 7 -24 0 -20 -6 3 -10 -5 -10 -19 0 -14 5 -28 10 -31 6 -4 8
-16 4 -27 -3 -11 -2 -18 2 -15 5 3 10 -5 10 -16 2 -30 15 -99 21 -117 3 -8 7
-22 8 -30 1 -8 7 -40 12 -70 6 -30 11 -68 12 -85 1 -16 6 -32 11 -33 6 -2 10
-10 10 -18 0 -9 -4 -12 -10 -9 -5 3 -10 1 -10 -4 0 -6 5 -11 10 -11 6 0 10
-10 9 -22 0 -13 -3 -17 -6 -10 -4 10 -8 10 -19 1 -11 -9 -41 -10 -112 -4 -53
4 -104 7 -112 7 -8 0 -47 -1 -86 -3 -39 -1 -75 1 -81 4 -9 6 -190 19 -243 18
-14 0 -32 2 -40 6 -19 7 -111 10 -115 3 -2 -3 -87 -5 -189 -5 -102 0 -186 -3
-186 -7 0 -3 -37 -5 -82 -4 -46 2 -91 -1 -101 -6 -11 -6 -23 -6 -30 0 -15 12
-124 14 -131 3 -6 -10 -56 -2 -73 11 -7 6 -15 3 -21 -8 -9 -15 -12 -16 -41 -1
-17 8 -33 12 -35 8 -7 -11 -146 10 -146 22 0 5 -7 4 -15 -3 -8 -7 -20 -8 -27
-3 -17 11 -157 12 -185 2 -14 -5 -25 -4 -29 2 -4 8 -9 8 -17 0 -7 -7 -16 -7
-29 0 -12 7 -18 6 -18 -1 0 -7 -20 -11 -47 -10 -27 0 -127 -3 -223 -6 -176 -7
-360 -13 -457 -14 -29 0 -53 -3 -53 -8 0 -6 -134 -7 -150 -1 -3 1 -12 2 -20 3
-8 1 -15 7 -14 14 1 6 2 23 3 37 0 16 7 25 17 25 13 0 14 3 4 15 -8 10 -10 37
-5 92 4 43 9 82 12 86 3 5 8 41 10 80 3 39 8 80 13 91 4 11 4 35 0 53 -5 20
-4 33 2 33 5 0 6 10 3 22 -6 17 -4 20 9 15 10 -4 16 -1 16 8 0 8 -4 15 -10 15
-5 0 -10 12 -10 26 0 14 4 23 9 19 5 -3 12 -1 15 4 4 5 2 12 -3 15 -11 7 -2
46 10 46 5 0 9 11 9 25 0 13 6 30 14 37 10 9 11 21 4 43 -9 34 -8 125 3 140 7
9 11 89 10 175 0 19 4 46 9 60 6 14 13 68 15 120 6 114 8 131 19 148 13 21 15
66 3 80 -16 20 -8 122 14 177 17 43 18 74 4 125 -14 55 -11 122 11 232 9 46
19 97 21 115 3 18 11 38 19 44 16 13 19 49 4 49 -5 0 -10 7 -10 16 0 8 -5 12
-11 8 -14 -8 -10 65 5 84 7 9 6 16 -4 22 -8 5 -10 17 -6 36 4 16 9 40 11 54 2
14 8 55 14 92 6 36 11 131 10 210 -1 122 2 151 20 197 11 30 18 58 15 63 -3 5
-1 14 4 21 19 24 22 65 6 96 -8 17 -13 35 -9 41 3 5 8 36 10 67 7 93 16 134
31 140 7 2 16 26 19 51 4 26 9 54 12 62 11 28 11 40 1 40 -6 0 -8 25 -3 70 5
49 4 70 -4 70 -12 0 -15 42 -4 53 4 4 8 26 10 50 2 23 11 57 19 75 11 22 12
37 6 45 -7 8 -6 18 4 32 8 10 12 27 8 37 -3 10 2 25 10 34 21 20 21 58 1 50
-12 -4 -14 0 -9 22 4 15 12 36 18 47 6 11 9 38 6 60 -3 27 1 51 13 75 9 19 15
42 12 51 -3 10 1 44 9 76 8 32 15 67 15 78 0 53 20 214 31 250 6 22 17 74 24
115 8 52 16 74 25 72 9 -2 11 3 7 13 -3 8 -9 22 -12 30 -4 10 0 15 11 15 14 0
15 3 6 14 -9 11 -10 20 -1 36 6 11 8 25 5 30 -3 6 -3 16 2 22 4 7 8 29 9 49 1
20 8 47 15 60 13 25 16 36 23 109 3 25 14 76 25 114 11 38 18 73 14 79 -4 6
-1 7 7 2 10 -6 11 -4 5 11 -11 25 -7 84 6 100 6 8 9 21 5 29 -3 9 -2 13 4 10
10 -6 14 13 10 49 -1 10 4 23 12 28 10 7 10 11 1 15 -20 8 -16 36 3 29 15 -6
16 0 11 50 -4 44 -3 55 7 51 16 -7 30 73 15 88 -5 5 -9 16 -9 25 0 13 2 13 10
0 6 -10 9 2 8 38 0 40 8 69 32 117 25 49 30 71 25 95 -5 24 -3 35 12 45 14 11
15 16 6 26 -9 9 -9 19 2 45 7 18 10 35 7 39 -4 3 -1 10 6 14 7 4 14 19 15 32
0 13 5 27 9 30 5 3 26 55 47 115 22 60 45 124 53 143 14 36 68 101 84 101 5 0
16 9 23 19 8 11 20 17 27 14 6 -2 19 5 27 17 8 12 16 17 18 11 6 -18 73 18 95
50 10 16 24 27 31 24 7 -2 15 0 18 5 7 11 37 1 47 -14 4 -6 8 1 8 17 0 30 11
35 30 12 18 -21 30 -19 30 6 0 18 3 19 15 9 8 -6 19 -9 24 -5z"/>
<path d="M2615 12400 c3 -5 8 -10 11 -10 2 0 4 5 4 10 0 6 -5 10 -11 10 -5 0
-7 -4 -4 -10z"/>
<path d="M12355 12320 c-3 -5 -1 -10 4 -10 6 0 11 5 11 10 0 6 -2 10 -4 10 -3
0 -8 -4 -11 -10z"/>
<path d="M5849 10623 c-13 -16 -12 -17 4 -4 9 7 17 15 17 17 0 8 -8 3 -21 -13z"/>
<path d="M10510 8139 c0 -5 5 -7 10 -4 6 3 10 8 10 11 0 2 -4 4 -10 4 -5 0
-10 -5 -10 -11z"/>
<path d="M6699 10301 c-39 -19 -51 -54 -37 -110 12 -47 4 -91 -17 -91 -8 0
-15 -6 -15 -13 0 -8 -11 -24 -25 -37 -26 -24 -34 -60 -14 -60 12 0 4 -67 -11
-85 -4 -5 -6 -26 -4 -45 1 -19 -2 -62 -8 -95 -11 -65 -15 -98 -23 -188 -2 -32
-7 -62 -10 -67 -3 -5 -1 -11 5 -15 6 -3 10 -18 9 -33 -2 -54 10 -162 20 -181
15 -27 33 -142 37 -236 5 -133 15 -297 20 -345 2 -25 6 -70 9 -100 12 -158 15
-198 20 -236 3 -22 8 -100 10 -172 3 -73 12 -174 20 -225 9 -50 18 -108 21
-127 7 -50 14 -70 25 -70 6 0 17 -7 26 -16 14 -14 13 -18 -18 -44 l-34 -28 21
-29 c17 -22 29 -28 60 -29 45 0 84 14 84 31 0 12 37 50 48 50 4 0 5 10 4 23
-2 13 3 25 13 29 14 5 16 14 11 44 -3 22 -2 39 2 39 5 0 21 19 36 42 23 36 28
55 32 132 8 175 10 598 2 602 -5 3 -6 10 -2 15 16 26 23 236 11 298 -6 28 -5
52 1 66 6 13 8 26 4 29 -3 4 -7 25 -9 49 -6 64 -5 494 0 561 5 54 1 72 -24
131 -5 11 -11 59 -13 107 -3 57 -10 94 -21 112 -10 15 -14 33 -10 46 4 14 2
20 -7 18 -8 -2 -14 8 -16 25 -2 15 -7 27 -12 27 -5 0 -10 12 -12 28 -2 15 -9
27 -18 28 -26 2 -60 16 -60 25 0 5 -7 9 -15 9 -14 0 -16 32 -3 45 3 4 -1 23
-10 44 -19 43 -46 49 -103 22z"/>
<path d="M6177 10095 c-40 -16 -62 -45 -73 -95 -6 -26 -15 -44 -22 -42 -7 1
-12 -2 -12 -8 0 -5 -9 -10 -20 -10 -11 0 -20 -4 -20 -10 0 -5 5 -10 10 -10 6
0 10 -5 10 -11 0 -6 -9 -8 -20 -4 -17 5 -20 2 -20 -20 0 -15 -6 -39 -14 -53
-8 -15 -22 -52 -30 -82 -9 -30 -22 -73 -28 -95 -6 -22 -16 -46 -22 -53 -5 -8
-11 -44 -12 -80 -1 -37 -7 -92 -14 -122 -17 -78 -17 -93 -6 -108 7 -9 6 -16
-4 -22 -11 -7 -11 -12 -2 -23 12 -15 11 -135 -2 -155 -3 -6 -2 -13 3 -17 6 -3
9 -25 7 -48 -1 -23 1 -47 6 -53 5 -6 10 -51 12 -98 3 -48 10 -94 16 -101 7 -8
10 -21 7 -29 -3 -9 -1 -43 4 -78 6 -35 12 -120 12 -190 1 -71 5 -128 8 -128 4
0 7 -10 7 -22 1 -147 1 -285 0 -338 -1 -36 2 -96 7 -135 5 -38 9 -77 9 -85 1
-9 14 -17 35 -20 35 -5 56 -30 26 -30 -9 0 -13 -5 -9 -11 3 -6 1 -22 -6 -35
-11 -20 -10 -26 11 -48 25 -27 59 -35 59 -14 0 9 3 9 11 1 8 -8 24 -6 60 9 43
18 49 24 49 49 0 16 -4 29 -10 29 -5 0 -10 7 -10 15 0 13 19 20 44 16 4 -1 14
3 20 9 7 5 16 7 19 3 4 -3 7 -1 7 6 0 8 11 11 28 9 22 -2 28 1 30 22 2 14 11
31 20 38 9 7 11 12 4 12 -7 0 -12 7 -12 15 0 8 -7 15 -15 15 -8 0 -15 5 -15
10 0 6 4 10 9 10 12 0 21 39 11 45 -11 7 5 63 25 85 14 15 14 18 0 30 -11 9
-14 22 -10 41 9 42 11 150 3 155 -10 7 -10 48 -1 58 4 4 6 36 4 72 -2 54 0 64
14 64 12 0 15 5 9 23 -4 12 -11 25 -17 29 -6 4 -9 40 -8 90 2 45 4 109 4 141
1 44 5 57 17 57 11 0 12 2 3 8 -7 5 -13 26 -12 48 0 21 0 73 -1 114 -1 42 3
88 9 102 7 18 6 37 -4 64 -12 38 -12 60 0 249 13 204 15 232 14 265 0 19 -5
40 -11 47 -5 7 -7 24 -4 38 5 18 2 25 -9 25 -16 0 -20 16 -6 24 5 4 5 23 -1
47 -8 29 -8 43 1 52 18 18 13 75 -11 112 -13 19 -28 35 -34 35 -6 0 -19 9 -30
21 l-18 20 -8 -20 c-4 -12 -14 -21 -23 -21 -19 0 -19 14 0 30 42 34 -5 87 -58
65z"/>
<path d="M10018 7087 c-14 -5 -31 -21 -37 -34 -7 -15 -19 -23 -36 -23 -17 0
-25 -6 -25 -17 0 -15 -4 -13 -20 7 -19 24 -20 24 -20 3 0 -31 -33 -84 -48 -78
-8 3 -11 -2 -7 -18 4 -16 0 -25 -17 -32 -13 -5 -24 -19 -26 -30 -2 -11 -9 -24
-16 -30 -17 -14 -28 -62 -16 -70 6 -3 7 -17 4 -30 -8 -32 -11 -71 -18 -250 -4
-82 -11 -188 -16 -235 -10 -95 -11 -127 -10 -252 1 -48 -2 -93 -6 -99 -8 -14
-9 -151 0 -199 3 -19 8 -82 10 -140 3 -58 7 -113 11 -122 4 -9 2 -25 -4 -36
-7 -12 -7 -22 0 -29 5 -5 11 -39 12 -74 2 -35 6 -69 9 -74 8 -13 19 -81 23
-143 1 -24 10 -51 19 -61 9 -10 16 -35 16 -58 0 -57 8 -73 36 -73 13 0 24 -4
24 -10 0 -5 -7 -10 -15 -10 -8 0 -15 -4 -15 -10 0 -5 9 -10 19 -10 11 0 21 -5
23 -11 2 -6 21 -11 43 -11 67 0 90 7 93 28 1 11 16 28 32 39 36 24 37 28 7 52
-35 27 -39 49 -16 92 21 41 26 66 36 179 3 39 9 72 13 72 12 0 18 259 7 277
-8 12 -1 178 7 192 3 5 0 11 -6 14 -10 3 -10 7 0 19 13 16 12 50 -3 130 -4 20
-2 45 4 56 6 11 14 53 17 94 4 40 13 82 20 93 9 14 10 31 5 57 -5 20 -7 49 -4
65 5 33 5 332 0 418 -3 57 -21 105 -40 105 -5 0 -7 7 -3 15 3 8 -1 18 -9 22
-17 10 -37 91 -24 99 5 3 9 0 9 -5 0 -26 17 -8 26 29 8 28 8 42 0 51 -8 8 -8
13 2 16 17 7 15 27 -6 46 -21 19 -26 19 -64 4z"/>
<path d="M10475 7037 c-11 -7 -23 -16 -27 -22 -4 -5 -10 -6 -14 -3 -4 4 -15
-3 -26 -17 -14 -18 -18 -37 -16 -85 3 -68 -12 -90 -59 -90 -24 0 -31 -14 -13
-25 16 -10 12 -25 -5 -19 -11 5 -13 -2 -9 -32 3 -24 0 -40 -8 -45 -7 -5 -14
-33 -15 -66 -8 -188 -8 -253 -1 -291 14 -80 13 -285 -2 -312 -8 -14 -15 -46
-15 -71 -1 -25 -5 -51 -9 -57 -4 -6 -4 -23 0 -37 5 -20 3 -24 -10 -19 -11 4
-16 1 -16 -10 0 -9 7 -16 15 -16 20 0 19 -10 -2 -26 -17 -13 -17 -13 0 -14 13
0 17 -9 17 -38 0 -21 -5 -43 -12 -50 -8 -8 -8 -15 0 -24 12 -15 10 -208 -3
-229 -13 -20 -15 -60 -5 -80 7 -12 6 -19 -2 -21 -9 -3 -9 -11 1 -35 13 -31 6
-83 -12 -94 -6 -4 -6 -15 -2 -25 4 -11 9 -25 9 -33 1 -18 46 -48 46 -31 0 7 7
10 16 6 10 -4 22 1 30 11 12 16 13 15 14 -14 0 -18 -5 -33 -10 -33 -6 0 -8
-11 -6 -25 3 -13 0 -27 -5 -30 -17 -11 -9 -27 11 -22 11 3 23 1 26 -4 3 -5 11
-8 17 -7 7 2 14 -2 15 -7 2 -6 8 -15 14 -22 5 -7 7 -25 3 -42 -4 -20 -2 -32 8
-38 8 -4 19 -18 25 -30 8 -14 18 -20 32 -16 11 3 20 10 20 15 0 5 9 6 20 3 11
-4 20 -2 20 4 0 6 5 11 10 11 6 0 26 10 45 23 33 21 35 24 35 84 0 34 4 64 8
67 9 5 9 47 0 62 -10 15 -6 298 3 305 5 3 11 27 14 54 2 26 7 57 11 67 3 10 1
18 -5 18 -6 0 -5 12 3 33 7 17 12 58 11 90 -1 32 2 60 7 63 4 3 8 20 8 39 0
18 4 35 8 37 5 2 12 18 15 36 5 23 3 32 -7 32 -8 0 -17 8 -20 17 -9 23 3 138
20 185 8 25 10 46 4 65 -5 15 -17 54 -26 86 -9 32 -25 63 -35 70 -25 16 -25
53 1 60 11 3 20 10 20 16 0 6 -6 8 -14 5 -10 -4 -13 8 -14 50 0 52 1 55 19 46
16 -9 19 -7 19 12 0 12 10 32 22 45 l22 24 -29 24 c-17 14 -38 22 -47 19 -13
-4 -18 0 -18 16 0 11 -10 35 -22 52 -17 22 -19 32 -10 35 13 5 17 65 5 77 -4
4 -6 25 -4 46 3 41 -1 44 -46 41 -11 -1 -24 2 -27 8 -8 13 15 51 30 51 7 0 12
17 12 41 1 31 -3 39 -14 35 -8 -3 -14 1 -14 8 0 11 -24 29 -33 25 -1 0 -11 -6
-22 -12z"/>
<path d="M3147 7362 c-6 -7 -14 -38 -18 -69 -4 -31 -14 -60 -21 -64 -15 -9
-21 -58 -9 -74 10 -11 7 -123 -4 -175 -4 -19 -14 -42 -21 -51 -17 -19 -19 -51
-7 -99 5 -19 8 -51 7 -70 -5 -81 -16 -317 -15 -335 0 -11 0 -47 -1 -80 0 -33
1 -76 2 -95 6 -109 0 -324 -11 -330 -7 -5 -8 -10 -1 -14 9 -5 14 -151 14 -349
-1 -32 -10 -86 -21 -120 -11 -34 -21 -87 -23 -117 -1 -30 -5 -60 -9 -65 -5 -6
-4 -17 1 -25 11 -18 100 -21 115 -4 6 7 20 15 32 19 22 6 23 4 19 -47 -2 -29
-4 -61 -5 -70 0 -9 -8 -24 -17 -32 -14 -15 -14 -19 8 -44 29 -34 53 -31 100
11 49 43 59 68 76 182 5 33 16 77 25 98 9 20 14 37 11 37 -3 0 11 16 32 35 20
19 41 35 47 35 5 0 7 9 4 20 -3 11 -1 23 4 26 6 3 9 15 7 27 -2 14 2 22 12 22
11 0 14 14 13 67 -1 45 2 70 12 78 9 8 12 27 9 63 -3 38 1 62 14 89 11 21 22
34 26 31 13 -13 5 24 -10 45 -14 21 -14 25 -1 40 8 10 14 33 13 57 -2 22 1 51
5 65 4 14 10 66 13 115 3 50 7 97 10 105 2 8 8 58 11 110 4 52 9 120 12 150 8
74 7 79 -11 203 -17 114 -35 155 -95 214 -17 18 -31 36 -31 41 0 5 -7 15 -15
22 -8 7 -13 16 -10 20 13 22 -120 81 -146 64 -9 -5 -20 26 -13 37 3 6 0 16 -6
25 -7 8 -14 38 -15 67 -2 28 -6 69 -10 90 -7 37 -8 38 -52 35 -25 -2 -50 -9
-56 -16z"/>
<path d="M2754 7345 c-10 -8 -32 -15 -49 -15 -31 -1 -69 -22 -59 -33 4 -3 -4
-22 -16 -41 -14 -23 -19 -43 -15 -57 6 -17 3 -20 -17 -19 -46 4 -64 -10 -82
-64 -11 -31 -15 -62 -11 -75 5 -18 2 -24 -14 -28 -25 -6 -26 -13 -6 -59 11
-27 13 -60 10 -132 -3 -54 -5 -114 -5 -135 1 -21 -2 -42 -6 -48 -3 -6 -7 -88
-9 -182 -3 -147 -8 -222 -15 -222 -1 0 -3 -27 -5 -60 -2 -33 -8 -80 -14 -105
-5 -25 -11 -86 -12 -136 -2 -111 -17 -204 -35 -225 -17 -19 -18 -36 -1 -46 15
-10 17 -23 23 -163 3 -93 8 -123 27 -160 22 -46 30 -49 82 -36 l26 7 -8 -48
c-4 -26 -7 -66 -6 -88 1 -22 -2 -44 -6 -50 -5 -5 -11 -24 -14 -42 -7 -38 5
-50 60 -59 33 -5 49 -2 76 15 19 11 46 21 61 21 16 0 26 5 26 15 0 8 7 15 15
15 10 0 15 10 15 33 0 18 4 37 9 43 12 13 33 103 26 114 -3 5 -1 11 5 15 5 3
10 15 10 26 0 11 9 23 22 28 12 4 17 10 11 14 -16 10 -3 67 16 67 12 0 13 2 3
8 -19 13 -24 118 -6 133 10 8 11 15 3 25 -8 9 -5 16 12 24 16 9 19 14 8 20
-10 7 -10 12 -1 23 7 8 12 51 12 108 0 52 7 128 15 169 9 41 16 84 16 94 0 10
7 28 15 40 18 26 18 36 0 36 -8 0 -18 5 -21 10 -11 18 -14 80 -5 111 5 16 5
31 -1 34 -5 3 -6 33 -2 65 4 42 2 60 -6 60 -6 0 -11 9 -11 21 0 11 -6 27 -14
35 -11 11 -14 35 -12 95 2 63 -1 90 -15 120 -11 21 -19 44 -19 52 0 7 -5 18
-11 24 -7 7 -7 13 -1 17 12 7 -3 79 -17 84 -6 2 -11 21 -11 42 0 21 -6 52 -14
70 -10 24 -11 43 -4 68 9 33 6 46 -13 48 -5 1 -13 2 -19 3 -11 1 -14 41 -4 41
4 0 13 -8 20 -17 10 -15 15 -16 25 -5 20 19 39 105 27 120 -7 8 -7 16 1 26 6
8 11 18 10 22 -1 5 -1 11 1 14 12 32 6 60 -15 74 -30 20 -36 20 -61 1z"/>
</g>
</svg>
