<?xml version="1.0" encoding="utf-8"?>
<!-- Generator: Adobe Illustrator 26.3.1, SVG Export Plug-In . SVG Version: 6.00 Build 0)  -->
<svg version="1.1" id="Layer_1" xmlns="http://www.w3.org/2000/svg" xmlns:xlink="http://www.w3.org/1999/xlink" x="0px" y="0px"
	 viewBox="0 0 2160 960" style="enable-background:new 0 0 2160 960;" xml:space="preserve">
<g>
	<path d="M1258.82,448.73c-4.31-3.92-8.62-7.85-12.93-11.78c-5.14,4.97-11.44,9.25-15.02,15.16c-2.21,3.64,8.19,13.6,12.99,13.62
		C1248.15,465.75,1257.52,455.06,1258.82,448.73 M1702.44,309.37c-2.07,4.02-3.4,5.85-3.99,7.88c-1.63,5.6-3.56,11.22-4.24,16.97
		c-0.9,7.66-0.88,15.45-0.99,23.18c-0.16,11.26,0.12,22.54-0.18,33.8c-0.28,10.73-1.68,21.47-1.48,32.18
		c0.21,11.47,2,22.91,2.5,34.38c0.26,5.82-1.13,11.69-1.23,17.55c-0.21,12.67-0.24,25.34-0.02,38.01c0.3,17.24,1.03,34.47,1.29,51.7
		c0.07,4.47,1.89,5.83,6.01,5.59c14.62-0.87,29.45-7.57,35.28-22.75c3.26-8.49,6.5-17.13,8.34-26c1.43-6.93,1.42-14.37,0.72-21.46
		c-1.38-14-2.9-27.75-0.98-41.99c1.62-11.99,1.06-24.43,0.05-36.56c-1.5-18.02-0.23-35.47,10.66-50.29
		c5.76-7.83,14.37-13.53,21.46-20.43c3.43-3.34,6.31-7.24,9.43-10.89C1750.33,348.32,1722.38,341.75,1702.44,309.37 M1480.5,326.17
		c-2.6-8.45,1.71-12.1,5.23-15.6c10.24-10.18,20.89-19.94,31.21-30.02c3.2-3.12,5.83-6.83,8.86-10.14
		c4.16-4.52,8.23-5.01,13.32-0.68c8.76,7.46,17.76,14.67,27.14,21.32c15.21,10.79,31.97,13.87,50.08,8.47
		c2.67-0.8,5.68-1.51,8.31-1.05c2.23,0.4,4.89,2.15,5.95,4.07c0.81,1.46,0.09,4.74-1.14,6.18c-9.91,11.52-16.29,24.76-18.33,39.67
		c-0.97,7.07-0.64,14.69,0.9,21.66c3.39,15.3,2.63,30.3-0.01,45.54c-1,5.76-0.4,11.82-0.29,17.74c0.4,21.23,0.93,42.45,1.38,63.68
		c0.14,6.55,0.07,13.11,0.29,19.66c0.4,11.81,8.84,22.47,20.96,25.61c0-2.45,0.51-4.79-0.09-6.82c-2.96-10.15-2.09-20.26-1.65-30.68
		c0.55-13-1.98-26.1-2.74-39.19c-0.36-6.26-0.58-12.75,0.63-18.84c2.76-13.87,1.85-27.41,0.15-41.35
		c-1.62-13.29-1.11-26.98-0.07-40.38c0.37-4.77,4.22-10.03,7.89-13.64c18.02-17.74,36.63-34.89,54.79-52.49
		c5.58-5.4,10.39-11.59,15.56-17.41c2.19-2.47,4.19-5.13,6.57-7.4c9-8.6,10.48-8.07,19.92-0.34c13.14,10.76,25.17,24.28,43.02,26.69
		c10.71,1.44,21.88-0.43,32.84-0.89c2.57-0.11,5.19-0.95,7.68-0.65c5.09,0.61,7.18,5.95,3.29,9.16
		c-18.51,15.25-18.19,36.27-17.02,56.97c1.07,18.88,1.73,37.4-2.09,56.2c-1.69,8.35,1.8,17.63,1.95,26.51
		c0.26,15.02-0.53,30.06-0.37,45.09c0.08,7.94,0.06,16.2,2.24,23.69c1.81,6.2,6.07,12.1,10.49,17.03
		c11.02,12.29,22.72,23.97,34.21,35.84c1.3,1.35,2.99,2.3,4.45,3.49c9.78,7.94,10.8,13.89,2.56,23.15
		c-9.85,11.08-20.4,21.53-30.72,32.19c-16.6,17.14-33.18,34.29-49.94,51.27c-3.63,3.67-8.18,6.42-11.91,10
		c-7.28,6.99-14.12,14.45-21.46,21.38c-6.61,6.25-13.48,12.27-20.62,17.89c-1.62,1.28-5.19,1.38-7.25,0.54
		c-6.97-2.84-14.4-5.37-20.33-9.79c-13.29-9.91-27.63-10.07-43.08-8.17c-9.44,1.16-19.15-0.05-28.75-0.03
		c-12.89,0.03-25.78,0.12-38.67,0.4c-8.4,0.19-16.8,0.83-25.2,1.14c-23.58,0.86-44.93,8.03-64.22,21.72
		c-2.8,1.98-9.34,3.64-10.27,2.44c-3.56-4.59,1.49-7.35,4.29-10.29c10.04-10.57,19.83-21.41,30.3-31.55
		c13.2-12.79,26.35-25.94,43.66-33.19c5.91-2.48,12.67-3.37,19.14-3.98c20.12-1.89,40.27-4.27,60.44-4.59
		c19.68-0.31,39.38,1.88,59.08,2.56c6.29,0.21,12.62-1.21,18.94-1.34c11.97-0.24,23.97-0.61,35.91,0.05
		c13.04,0.72,24.75-1.84,35.11-10.04c5.53-4.38,11.12-8.7,17-12.58c4.99-3.29,5.72-6.28,2.23-11.47
		c-5.19-7.74-10.57-15.05-18.88-19.66c-9.52-5.29-13.81-14.47-17.68-23.9c-2.22-5.41-4.17-10.94-6.18-16.44
		c-2.41-6.6-4.42-7.29-9.34-2.56c-7.82,7.53-15.48,15.24-23.06,23.02c-14.35,14.71-28.56,29.56-42.93,44.25
		c-4.21,4.3-8.13,4.93-13.16,0.01c-15.6-15.25-28.28-31.99-32.62-54.05c-0.64-3.27-3.75-6.05-5.72-9.05
		c-2.88,2.07-6.09,3.81-8.58,6.27c-10.07,9.94-19.76,20.26-29.92,30.09c-3.64,3.51-7.66,3.39-10.26-1.94
		c-5.87-12-11.95-23.91-17.68-35.98c-2.83-5.97-4.03-6.47-8.83-1.91c-3.43,3.26-6.63,6.77-10.06,10.05
		c-9.87,9.44-19.91,18.72-29.67,28.27c-6.22,6.09-12.06,12.56-18.06,18.87c-0.32,0.34-0.49,0.81-0.78,1.18
		c-9.4,11.81-13.08,11.82-24.47,2.37c-15.73-13.04-23.39-30.9-30.49-49.1c-3.82-9.78-6.72-19.92-10.05-29.89
		c-0.94-2.82-1.91-5.63-2.87-8.44c-0.88,0.06-1.76,0.12-2.65,0.18c0,6.22-0.91,12.61,0.18,18.64c2.7,14.87,1.06,29.49-0.5,44.25
		c-0.78,7.4-0.25,14.94-0.22,22.41c0.01,3.07,0.94,6.32,0.2,9.15c-0.54,2.01-3.21,4.98-4.88,4.94c-19.72-0.39-39.51,1.94-59.17-1.53
		c-5.12-0.9-6.82-2.65-7.12-8.12c-0.54-9.81-3.53-19.52-3.71-29.3c-0.2-10.75,2.34-21.54,2.37-32.32
		c0.06-20.29-1.37-40.6-1.16-60.89c0.2-19.32,2.05-38.61,2.48-57.93c0.16-7.2-2.14-14.42-2.45-21.67
		c-0.45-10.52-1.49-21.3,0.2-31.56c2.43-14.71,1.14-29.03-0.32-43.55c-0.51-5.13,0.09-10.37-0.07-15.54
		c-0.08-2.45-0.78-4.88-1.43-8.62c-2.93,1.95-4.99,2.97-6.63,4.47c-7.48,6.81-14.88,13.69-22.2,20.67
		c-4.61,4.39-8.86,9.18-13.58,13.46c-8.16,7.38-16.41,14.68-24.91,21.66c-4.2,3.45-6.72,7.5-1.52,10.84
		c13.03,8.34,20.81,21.68,31.9,31.79c8,7.28,15.88,14.69,23.8,22.06c4.96,4.62,3.11,8.09-1.21,12.3
		c-10.44,10.2-20.28,21.01-30.51,31.42c-3.96,4.04-8.41,7.58-12.47,11.52c-18.64,18.1-37.28,36.2-55.78,54.45
		c-3.83,3.77-6.75,3.29-10.06-0.4c-12.24-13.65-27.91-24.1-37.4-40.36c-1.38-2.36-3.73-4.39-6.07-5.91
		c-10.63-6.87-18.82-15.93-26.4-26.03c-4.68-6.23-11.79-10.64-17.74-15.93c-3.47-3.09-6.79-6.35-10.24-9.46
		c-5.5-4.95-3.64-9.48,0.73-13.86c9.98-10.01,20-19.99,29.98-30c6.82-6.85,13.86-13.5,20.2-20.77c1.57-1.8,2.12-6.61,0.84-8.42
		c-7.44-10.56-14.85-20.97-26.03-28.57c-8-5.43-13.86-13.94-20.96-20.79c-5.52-5.33-11.47-10.22-18.32-16.27
		c-3.87,9.89-4.24,18.39-4.02,26.93c0.25,9.08,0.8,18.14,1.13,27.22c0.44,12.02,1.28,24.05,1.06,36.05
		c-0.2,11.01-2.07,21.99-2.28,33c-0.2,10.48,1.08,20.98,1.22,31.48c0.18,12.89-0.25,25.79-0.21,38.68
		c0.02,9.86,0.34,19.72,0.55,29.57c0.09,3.96,0.31,7.91,0.36,11.86c0.18,13.68,0.65,27.36,0.33,41.03
		c-0.23,9.83-1.3,19.66-2.55,29.42c-0.24,1.91-2.83,4.78-4.62,5.02c-13.27,1.73-26.58,3.25-39.93,4.12
		c-6.51,0.42-13.16-0.43-19.69-1.21c-7.27-0.88-9.67-4.16-9.55-13.69c0.22-16.53,1.04-33.06,1.3-49.6
		c0.23-15.01,0.17-30.02-0.02-45.02c-0.07-5.39-1.33-10.77-1.26-16.14c0.12-9.19-0.51-18.71,1.67-27.47
		c3.16-12.73,0.25-24.55-1.28-36.87c-1.23-9.96,0.29-20.25,0.41-30.4c0.14-12.05,0.07-24.1,0.15-36.16
		c0.03-3.9,0.43-7.81,0.34-11.71c-0.39-15.1-1.15-30.18-1.29-45.28c-0.07-7.51-0.47-15.47,1.74-22.44
		c3.81-12.02-0.42-23.29-0.69-34.88c-0.27-11.25-0.32-22.56,0.74-33.72c0.21-2.27,5.8-5.66,8.97-5.74
		c20.14-0.53,40.29-0.46,60.43-0.07c2.8,0.06,5.92,2.53,8.25,4.61c10.55,9.4,20.95,18.99,31.24,28.67c2.9,2.73,5.13,6.18,7.91,9.06
		c15.75,16.3,31.46,32.64,47.42,48.74c8.29,8.35,17.11,16.17,25.57,24.34c3.1,2.99,5.26,1.55,7.82-0.75
		c7.33-6.57,15.1-12.68,22.16-19.54c5.37-5.22,9.78-11.4,14.84-16.96c3.62-3.98,7.64-7.59,11.4-11.45
		c8.38-8.59,16.69-17.24,25.06-25.84c3.78-3.88,7.63-7.71,11.49-11.52c6.71-6.64,14.48-12.51,19.9-20.07
		c6.6-9.2,14.63-10.67,24.64-9.24c7.9,1.13,15.88,2.34,23.83,2.38c7.22,0.04,14.53-1.06,21.67-2.34
		c10.85-1.95,14.23,1.94,13.05,12.87c-0.92,8.54,0.69,17.34,0.88,26.03c0.33,15.33,0.47,30.66,0.59,45.98
		c0.02,3.3-0.44,6.6-0.58,9.91c-0.5,11.23-1.4,22.46-1.27,33.69c0.09,7.97,2.29,15.91,2.35,23.87c0.09,12.89-0.91,25.79-1.25,38.69
		c-0.2,7.68-0.18,15.38,0.03,23.06c0.35,12.88,1,25.75,1.4,38.63c0.17,5.63,0.03,11.27,0.03,19.38c4.33-2.92,7.98-4.23,9.8-6.82
		c9.24-13.13,20.69-23.62,34.16-32.38c4.67-3.03,7.02-9.41,11.16-13.53c8.44-8.42,17.32-16.39,26.19-24.37
		c0.86-0.77,2.89-0.25,4.38-0.33c-0.21,1.68,0.05,3.59-0.69,4.98c-5.94,11.12-13.79,21.57-17.65,33.35
		c-3.85,11.75-3.74,24.79-5.4,37.26c-0.7,5.3-1.02,10.71-2.33,15.87c-3.31,13.07,0.32,25.69,1.7,38.49c0.68,6.31,0.53,12.72,1.41,19
		c0.26,1.87,2.59,4.72,4.22,4.91c11.8,1.31,35.62-13.08,38.44-24.33c4.38-17.45,8.29-34.86,6.2-53.51
		c-1.63-14.54,1.04-29.54,1.59-44.34c0.21-5.79,0.76-11.8-0.43-17.37c-4.58-21.43-4.85-42.15,9.74-60.14
		c6.8-8.37,15.06-15.55,22.58-23.35c1.87-1.94,3.44-4.16,4.34-7.91c-4.94,0.65-9.9,1.19-14.82,1.96
		c-22.09,3.45-40.2-1.84-55.1-20.12c-15.53-19.05-12.25-15.55-28.33-2.35C1487.88,321.9,1484.45,323.65,1480.5,326.17"/>
	<path d="M952.51,337.78c-0.6-1-1.19-1.99-1.79-2.99c-2.9,1.09-5.79,2.23-8.71,3.26c-6.13,2.16-12.16,5.62-18.43,6.16
		c-21.98,1.91-38.1-10.02-53.04-24.2c-2.24-2.13-5.16-3.54-7.76-5.29c-1.63,2.45-4.25,4.73-4.69,7.39
		c-1.2,7.12-1.65,14.38-2.04,21.61c-0.44,8.21-0.39,16.44-0.73,24.65c-0.47,11.41-1.64,22.83-1.51,34.23
		c0.1,8.87,2.22,17.7,2.53,26.58c0.26,7.48-1.09,15.02-1.21,22.53c-0.22,13.89-0.05,27.79-0.07,41.69
		c-0.01,7.74-0.12,15.48-0.11,23.22c0.01,11.97,0.25,23.93,0.06,35.89c-0.08,5.39-1.14,10.76-1.41,16.16
		c-0.22,4.49,1.71,6.63,6.6,5.17c13.68-4.07,25.08-11.82,33.9-22.74c6.41-7.95,9.26-17.71,9.51-28.14c0.34-14,5.49-27.46,2.97-41.98
		c-2.1-12.08-1.47-24.67-1.69-37.04c-0.24-13.34-0.31-26.7,0.08-40.04c0.15-5.28,0.13-11.66,2.93-15.58
		c9.67-13.53,20.32-26.38,31.09-39.08C942.77,344.8,947.96,341.57,952.51,337.78 M798.36,546.6c-0.46-4.01-0.4-6.04-0.94-7.89
		c-5.48-18.73-6.69-37.45-2.9-56.85c1.47-7.48-1.79-15.78-2.01-23.73c-0.33-11.94,0.28-23.91,0.21-35.85
		c-0.07-12.66-0.68-25.32-0.67-37.97c0.01-11.44-1.48-22.5,8.63-32.38c11.12-10.87,22.1-21.75,33.94-31.9
		c7.75-6.66,12.94-16.31,20.66-23.02c10.29-8.93,22.21-15.92,28.86-28.67c0.67-1.28,6.77-1.31,9.03,0.14
		c4.29,2.75,8.06,6.65,11.29,10.68c12.22,15.22,29.08,19.87,47.36,21.13c7.96,0.55,16.02-0.29,23.98,0.29
		c3.11,0.23,6.54,2.11,8.83,4.28c0.76,0.72-1.15,4.92-2.5,7.14c-5.56,9.11-14.61,16.38-15.14,28.09
		c-0.27,5.86-0.59,11.96,0.62,17.62c2.86,13.33-0.31,26.18-1.48,39.26c-0.85,9.49-0.01,19.13,0.07,28.7
		c0.11,12.61,0.24,25.23,0.29,37.84c0.01,1.88-0.47,3.76-0.48,5.64c-0.04,13.64-0.54,27.31,0.25,40.9
		c0.3,5.32,2.33,11.41,5.61,15.53c10.93,13.72,20.07,28.96,36,38.48c6.94,4.14,11.33,12.46,17.05,18.72
		c3.49,3.81,2.64,7.49-0.33,10.66c-3.37,3.59-7.48,6.47-11.01,9.92c-7.21,7.07-14.25,14.29-21.33,21.49
		c-6.1,6.2-12.13,12.45-18.24,18.63c-1.83,1.85-3.97,3.39-5.76,5.27c-16.13,16.91-31.97,34.1-48.42,50.68
		c-7.78,7.84-16.74,14.5-25.08,21.79c-4.25,3.71-8.03,10.2-12.56,10.71c-4.34,0.49-9.13-5.65-14.14-7.95
		c-15.2-6.97-31.06-11.9-47.92-12.51c-19.08-0.69-38.17-1.42-57.26-1.35c-18.81,0.07-37.64,0.85-56.43,1.95
		c-5.24,0.31-10.76,2.03-15.44,4.46c-11.85,6.13-23.23,13.15-34.94,19.54c-2.34,1.28-5.33,1.38-8.03,2.02
		c-0.43-0.83-0.87-1.66-1.3-2.49c5.05-6.37,9.7-13.13,15.26-19.02c10.54-11.18,21.3-22.21,32.59-32.61
		c5.27-4.85,11.77-8.58,18.16-11.96c8.29-4.38,17.2-7.55,25.54-11.86c13.37-6.91,27.79-8.1,41.79-5.22
		c13.62,2.81,26.52,0.95,39.85-0.21c11.16-0.97,22.48-0.17,33.73-0.17c12.2-0.01,24.4-0.06,36.59-0.07c7.99,0,16,0.41,23.97-0.03
		c21.17-1.18,40.6-6.8,56.4-22.12c4.46-4.32,4.42-7.55,0.57-11.78c-6.06-6.64-11.37-14.08-18.06-19.99
		c-12-10.59-17.85-23.83-19.87-39.25c-0.18-1.38-0.68-2.72-1.13-4.05c-2.05-6.13-4.55-7.15-9.59-2.94
		c-3.95,3.29-7.08,7.55-10.61,11.36c-6.21,6.7-12.38,13.45-18.69,20.06c-12.22,12.8-24.46,25.56-36.81,38.22
		c-7.01,7.19-9.16,6.82-14.85-0.96c-4.72-6.46-9.5-12.92-14.83-18.86c-9.11-10.15-15.8-21.58-20.01-34.5
		c-1.63-5-3.47-6.64-8.31-2.46c-10.36,8.92-21.36,16.91-29.28,28.54c-5.98,8.77-8.67,8.34-15.77,0.43
		c-8.11-9.03-9.73-20.59-11.96-31.87c-0.18-0.92,0.17-2.05-0.24-2.81c-1.6-2.99-3.4-5.86-5.12-8.78c-2.71,1.68-6,2.84-8.04,5.12
		c-21.14,23.54-42.6,46.73-67.03,67.01c-4.51,3.74-6.65,2.46-9.69-1.26c-4.45-5.44-9.54-10.37-13.92-15.87
		c-4.5-5.64-9.32-11.28-12.5-17.67c-6.68-13.45-12.38-27.38-18.5-41.11c-0.54-1.22-1.21-2.38-2.24-4.39
		c-0.95,1.64-1.88,2.51-1.94,3.44c-1.1,15.26-2.42,30.51-2.95,45.79c-0.21,6.02,1.67,12.08,2.08,18.17c0.32,4.65,0.14,9.4-0.4,14.05
		c-0.48,4.2-3.23,6.31-7.54,5.04c-15.09-4.46-29.82-0.3-44.73,1.3c-7.61,0.81-15.48-0.09-23.14-0.97c-1.73-0.2-3.86-3.34-4.44-5.5
		c-0.77-2.87-0.16-6.1-0.22-9.17c-0.29-13.64-1.02-27.29-0.8-40.93c0.18-11,1.7-21.98,2.22-32.99c0.36-7.68,1.16-15.62-0.24-23.06
		c-3.15-16.71-2.96-33.19,0.04-49.8c0.29-1.62,0.21-3.3,0.21-4.96c0.01-16.03,0.15-32.05-0.09-48.07
		c-0.07-4.23-1.35-8.44-2.21-13.37c-2.19,1.15-3.13,1.41-3.77,2.01c-15.55,14.49-31.74,28.39-46.32,43.8
		c-8.48,8.96-16.93,17.46-27.28,24.18c-3.29,2.14-6.35,5.2-8.42,8.53c-5.93,9.57-13.59,17.18-22.61,23.88
		c-5.78,4.29-10.45,10.11-15.47,15.39c-4.99,5.24-9.56,10.9-14.76,15.92c-4.51,4.35-7.55,9.01-6.97,15.47
		c0.87,9.58,2.24,19.14,2.52,28.74c0.32,11.06-0.29,22.15-0.55,33.22c-0.06,2.35-0.49,4.7-0.53,7.04
		c-0.12,8.76-2.28,11.37-11.32,11.42c-7.52,0.04-15.03-1.18-22.56-1.35c-11.24-0.25-22.53-0.57-33.74,0.11
		c-9.04,0.55-10.43-0.15-10.68-9.02c-0.27-9.66-1.12-19.31-1.27-28.98c-0.07-4.91,1.3-9.84,1.23-14.76
		c-0.23-14.41-1.21-28.82-1.19-43.23c0.01-7.45,2.14-14.9,2.21-22.36c0.1-10.48-1.01-20.96-1.27-31.46
		c-0.26-10.31-0.16-20.62-0.13-30.94c0.03-10.65,0.18-21.29,0.28-31.94c0.06-6.04,0.32-12.09,0.13-18.12
		c-0.29-9.43-1.51-18.86-1.23-28.26c0.46-15.29,1.9-30.55,2.71-45.83c0.22-4.15,0.23-8.47-0.7-12.47
		c-3.95-16.98-3.61-33.92-1.31-51.08c0.96-7.19,0.18-14.62,0.01-21.94c-0.08-3.76-1.44-7.74-0.55-11.19
		c0.67-2.58,3.94-6.3,6.17-6.38c15.99-0.59,32.02-0.27,48.04-0.48c5.42-0.07,10.83-0.92,16.25-1.19
		c7.52-0.37,10.18,2.55,10.14,10.08c-0.1,16.04,0.23,32.1-0.12,48.14c-0.13,6.03-2.49,12.03-2.39,18.02
		c0.19,10.92,1.95,21.8,2.16,32.72c0.2,10.79-0.95,21.61-1.04,32.42c-0.1,11.7,0.39,23.4,0.52,35.11
		c0.14,12.43,0.17,24.86,0.23,37.28c0.02,4.75,0,9.5,0,14.24c1.08,0.51,2.15,1.03,3.22,1.54c5.26-4.31,11.64-7.79,15.51-13.11
		c7.32-10.05,15.54-18.67,26.03-25.44c4.44-2.86,7.8-7.46,11.44-11.46c6.77-7.44,13.3-15.09,20.09-22.51
		c6.99-7.65,14.04-15.26,21.32-22.63c4.64-4.7,9.97-8.72,14.59-13.43c9.45-9.62,19.03-19.18,27.7-29.47
		c2.85-3.38,4.11-8.92,4.33-13.56c0.58-12.2,0.19-24.45,0.2-36.67c0.01-11.09,0.04-22.17,0.04-33.25c0-4.18,1.59-6.65,6.22-6.74
		c18.44-0.37,36.87-0.99,55.31-1.23c3.68-0.05,7.54,0.68,11.03,1.88c8,2.74,6.65,10.44,6.83,16.21c0.6,19.03-1.31,38.25,0.66,57.09
		c1.99,19.11-4.98,37.63-0.84,56.85c2.31,10.74,0.6,22.39,0.37,33.63c-0.21,10.12-1.47,20.25-1.2,30.34
		c0.36,13.62,2.06,27.2,2.54,40.82c0.26,7.5-1.03,15.05-1.19,22.58c-0.07,3.1,1,6.21,1.73,10.32c9.84-4.76,18.14-9.65,23.52-17.98
		c6.38-9.87,14.64-17.54,23.6-25.04c7.86-6.58,13.76-15.46,20.77-23.11c3.47-3.78,7.23-7.44,11.39-10.39
		c1.5-1.06,4.92-0.49,6.8,0.54c0.84,0.46,0.82,4.38-0.14,5.9c-4.08,6.54-8.69,12.74-13.02,19.14
		c-7.03,10.36-10.25,21.93-10.82,34.36c-0.15,3.25-0.41,6.64-1.45,9.69c-6.1,17.82-0.49,35.25,1.07,52.87
		c0.61,6.89-1.66,13.98-1.91,21.01c-0.16,4.49-0.61,10.51,1.89,13.21c3.98,4.28,10.58,2.8,15.04-0.64
		c14.27-10.99,30.26-21.07,33.14-40.97c1.3-9,0.72-18.32,0.58-27.49c-0.27-16.95-1.03-33.9-1.19-50.84
		c-0.05-5.59,1.34-11.19,1.64-16.8c0.49-9.06,2.33-18.49,0.54-27.13c-3.37-16.23,1.91-28.42,13.02-39.4
		c8.22-8.12,16.09-16.59,24.02-25c1.03-1.09,1.52-2.7,2.3-4.14c-0.88-0.27-1.44-0.63-1.71-0.48c-19.7,10.75-38.16,2.94-55.67-5.26
		c-8.07-3.78-14.43-11.81-20.69-18.72c-8.59-9.47-10.34-9.95-19.64-1.09c-2.57,2.44-4.75,5.36-7.55,7.49
		c-1.37,1.04-3.74,0.76-5.66,1.08c0.21-1.9-0.32-4.54,0.73-5.59c11.34-11.28,22.93-22.31,34.44-33.42
		c4.4-4.24,9.09-8.24,13.06-12.85c3.61-4.19,6.38-4.52,10.49-0.65c6.87,6.47,14.28,12.36,21.29,18.68
		c14.49,13.07,31.95,12.19,49.56,10.87c4.7-0.35,9.43-0.94,14.12-0.77c6.53,0.23,9.37,5.74,5.93,11.16
		c-1.63,2.57-3.42,5.2-5.69,7.17c-12.53,10.85-15.65,23.54-11.85,39.93c2.57,11.11,0.71,23.26,0.73,34.95
		c0.02,10.81-0.13,21.63-0.13,32.44c0,1.88,0.5,3.76,0.5,5.64c0.04,21.95,0.1,43.9-0.04,65.85c-0.03,4.19-0.24,8.62-1.58,12.53
		c-3.42,10.01,1.3,16.95,7.9,23.25C786.53,536.59,791.74,540.82,798.36,546.6"/>
</g>
</svg>
